<?xml version="1.0" standalone="no"?>
<!DOCTYPE svg PUBLIC "-//W3C//DTD SVG 1.1//EN" "http://www.w3.org/Graphics/SVG/1.1/DTD/svg11.dtd" >
<svg>
<metadata>
Created by FontForge 20090622 at Sat Jun 23 22:08:06 2018
 By deploy user
Copyright (c) 2009 by Muthu Nedumaran. All rights reserved.
</metadata>
<defs>
<font id="BanglaMN" horiz-adv-x="1800" >
  <font-face 
    font-family="Bangla MN"
    font-weight="400"
    font-stretch="normal"
    units-per-em="1800"
    panose-1="0 0 5 0 0 0 0 0 0 0"
    ascent="1440"
    descent="-360"
    x-height="1024"
    cap-height="1326"
    bbox="-1001 -897 2489 1895"
    underline-thickness="102"
    underline-position="-154"
    unicode-range="U+000D-U+FB01"
  />
    <missing-glyph />
    <glyph glyph-name="fi" unicode="fi" horiz-adv-x="1352" 
d="M955 937h-499v-937h-204v937h-213v87h213v118q0 84 30 157.5t81.5 128t121 86.5t148.5 32q63 0 119.5 -18t103.5 -52l-98 -96q-24 39 -60.5 64.5t-93.5 25.5q-33 0 -60.5 -17.5t-47 -46t-30 -65.5t-10.5 -76v-241h701v-1024h-202v937zM939 1416q0 24 9 45t25 37t37 25
t45 9t45 -9t37 -25t25 -37t9 -45t-9 -45t-25 -37t-37 -25t-45 -9t-45 9t-37 25t-25 37t-9 45z" />
    <glyph glyph-name="bn_rra" unicode="&#x9a1;&#x9bc;" horiz-adv-x="1236" 
d="M1286 1114h-664v-457q0 -26 21 -26q15 0 46.5 16t69 47.5t74.5 77t63 105.5q52 -39 89.5 -84.5t62 -95t36 -100.5t11.5 -100q0 -95 -31.5 -169.5t-86 -125.5t-127.5 -78t-157 -27q-123 0 -229 60.5t-186.5 175.5t-131 282t-63.5 380l64 -38q5 -71 23 -150.5t50 -158
t77 -150t104 -126t132 -87t160 -32.5q73 0 133 23t103 62.5t66 93t23 114.5q0 18 -2.5 39.5t-8.5 43.5t-17 44t-29 41q-32 -61 -72.5 -108t-82.5 -79t-83.5 -48.5t-75.5 -16.5q-83 0 -116 54t-33 158v440h-498v116h1286v-116zM520 -104q0 21 8 40t22 33.5t33 22.5t40 8
t40 -8t33.5 -22.5t22.5 -33.5t8 -40t-8 -40t-22.5 -33t-33.5 -22t-40 -8t-40 8t-33 22t-22 33t-8 40z" />
    <glyph glyph-name="bn_rha" unicode="&#x9a2;&#x9bc;" horiz-adv-x="967" 
d="M1017 1114h-713v-727q0 -23 6.5 -43.5t19.5 -36t31 -25t42 -9.5q35 0 75 13t80 36t77 54t65.5 67t45.5 75t17 78q0 5 -2 13q-34 -35 -66.5 -50.5t-62.5 -15.5q-32 0 -59 12t-46.5 32t-31 47t-11.5 56q0 33 11.5 62t32 51t47.5 35t59 13q58 0 95.5 -26t59.5 -65.5
t30 -87.5t8 -92q0 -117 -41 -207t-105 -151.5t-141.5 -93t-150.5 -31.5q-11 0 -31 2.5t-43 11t-47 24.5t-43.5 42.5t-32 66t-12.5 95.5v775h-180v116h1017v-116zM380 -97q0 21 8 40t22 33.5t33 22.5t40 8t40 -8t33.5 -22.5t22.5 -33.5t8 -40t-8 -40t-22.5 -33t-33.5 -22
t-40 -8t-40 8t-33 22t-22 33t-8 40z" />
    <glyph glyph-name="bn_yya" unicode="&#x9af;&#x9bc;" horiz-adv-x="1036" 
d="M742 1114h-367q36 -21 76.5 -59t78.5 -83t69.5 -93t49.5 -88q-50 -19 -99 -46t-94 -58t-85 -64.5t-70 -65.5q61 -21 114.5 -44t106 -55.5t106 -78.5t114.5 -113v848zM502 899q-63 58 -134 97t-139.5 64t-128.5 37.5t-100 16.5l-59 116h1115v-116h-190v-1114l-60 40
q-57 105 -125.5 173t-140.5 111t-144.5 66t-137.5 38l-144 171q31 37 71 78t88.5 80.5t105.5 76t123 65.5zM260 103q0 21 8 40t22 33.5t33 22.5t40 8t40 -8t33.5 -22.5t22.5 -33.5t8 -40t-8 -40t-22.5 -33t-33.5 -22t-40 -8t-40 8t-33 22t-22 33t-8 40z" />
    <glyph glyph-name="bn_ka_nukta" unicode="&#x995;&#x9bc;" horiz-adv-x="1330" 
d="M777 0l-60 40q-34 88 -81 165.5t-107 139t-133.5 104.5t-161.5 62l-154 188q63 72 138.5 128t152 95t150 60.5t132.5 24.5v107h-653v116h1380v-116h-603v-107q74 0 148 -30t133 -85.5t95.5 -134.5t36.5 -177q0 -54 -14.5 -96.5t-39.5 -72t-58.5 -45.5t-71.5 -16
q-29 0 -54 10.5t-43.5 29t-29.5 42.5t-11 51q0 57 38 92t98 35q13 0 30 -4t33.5 -14.5t29.5 -28.5t18 -47q9 9 14 27.5t5 33.5q0 77 -34.5 130.5t-87.5 86.5t-116 48t-119 15v-857zM653 857q-54 -5 -101.5 -18t-93.5 -36t-93 -58.5t-100 -85.5q123 -43 222.5 -140.5
t165.5 -252.5v591zM260 103q0 21 8 40t22 33.5t33 22.5t40 8t40 -8t33.5 -22.5t22.5 -33.5t8 -40t-8 -40t-22.5 -33t-33.5 -22t-40 -8t-40 8t-33 22t-22 33t-8 40z" />
    <glyph glyph-name="bn_kha_nukta" unicode="&#x996;&#x9bc;" horiz-adv-x="1202" 
d="M768 899q0 -64 -25 -112t-64 -83t-86 -58t-91 -38q36 -15 86.5 -43t105.5 -70t111 -99t103 -131v1181l124 -111v-105h190v-116h-190v-1114l-60 40q-29 82 -91 159t-143 140t-174 108t-183 63l-150 189q33 0 79 8.5t95.5 24.5t98 38.5t87 50t62.5 60.5t24 70q0 58 -22 99
t-51 64q-27 -66 -66.5 -105.5t-84 -59.5t-89.5 -26t-83 -6q-45 0 -81.5 11.5t-63 31t-41 45t-14.5 54.5q0 57 31.5 87.5t91.5 30.5q18 0 37 -7t35 -21t26 -34.5t10 -47.5q0 -5 -3 -19t-9.5 -30.5t-17.5 -32t-27 -23.5h7q37 0 69.5 20.5t60.5 56.5t50.5 85t39.5 106
q57 -16 109 -46t91 -72t62.5 -96t23.5 -117zM310 103q0 21 8 40t22 33.5t33 22.5t40 8t40 -8t33.5 -22.5t22.5 -33.5t8 -40t-8 -40t-22.5 -33t-33.5 -22t-40 -8t-40 8t-33 22t-22 33t-8 40z" />
    <glyph glyph-name="bn_ga_nukta" unicode="&#x997;&#x9bc;" horiz-adv-x="1054" 
d="M760 1446l124 -111v-105h190v-116h-190v-1114l-124 80v734q-52 68 -96 118t-86 83t-86 49t-97 16q-36 0 -67 -10t-54 -28t-36 -43.5t-13 -56.5q0 -4 0.5 -11.5t2.5 -11.5q7 4 20 9.5t30 10t36.5 7.5t37.5 3q46 0 81.5 -14.5t60 -39.5t37 -58t12.5 -70q0 -34 -14 -68.5
t-36 -67.5t-49 -63.5t-51.5 -54.5t-44 -41l-27.5 -24l-109 105q116 92 178 160t62 110q0 31 -22 46.5t-57 15.5q-24 0 -54.5 -11t-61 -27t-58 -33.5t-45.5 -30.5q-38 32 -56 78t-18 84q0 58 22.5 110t63 91t97.5 61.5t125 22.5q54 0 104.5 -23.5t98 -62.5t90 -90t79.5 -107
v499zM260 103q0 21 8 40t22 33.5t33 22.5t40 8t40 -8t33.5 -22.5t22.5 -33.5t8 -40t-8 -40t-22.5 -33t-33.5 -22t-40 -8t-40 8t-33 22t-22 33t-8 40z" />
    <glyph glyph-name="bn_gha_nukta" unicode="&#x998;&#x9bc;" horiz-adv-x="1025" 
d="M0 1230h1045v-116h-190v-1114l-60 40q-34 88 -86.5 155t-120 116t-147 81.5t-167.5 51.5l-145 149l77.5 56.5t82.5 66l80 69.5t71 68q-15 -8 -33 -14t-36.5 -11t-36 -7.5t-32.5 -2.5q-45 0 -85 13t-70.5 37t-48.5 58.5t-18 77.5q0 30 13 59.5t38 50.5h-131v116zM587 838
q-35 -40 -62.5 -68.5l-54.5 -54l-57.5 -53l-73.5 -66.5q46 -14 100 -42t107 -69.5t101.5 -96t83.5 -122.5v848h-435q-33 -23 -48 -49.5t-15 -60.5q0 -23 10.5 -43t28.5 -35t43 -23.5t54 -8.5q44 0 75.5 10t49.5 26zM260 103q0 21 8 40t22 33.5t33 22.5t40 8t40 -8
t33.5 -22.5t22.5 -33.5t8 -40t-8 -40t-22.5 -33t-33.5 -22t-40 -8t-40 8t-33 22t-22 33t-8 40z" />
    <glyph glyph-name="bn_nga_nukta" unicode="&#x999;&#x9bc;" horiz-adv-x="1199" 
d="M614 614q41 0 77.5 14t65.5 35t49 44.5t29 43.5q75 -46 122.5 -80t74.5 -67t36.5 -69.5t9.5 -86.5q0 -54 -19 -99.5t-50.5 -82.5t-73 -65t-86 -47t-89.5 -28.5t-84 -9.5q-108 0 -190.5 32t-143.5 87.5t-104 130t-71 160.5t-44.5 178.5t-25.5 183.5l61 -47q10 -66 27 -134
t43.5 -132t64 -120.5t89.5 -98.5t120.5 -66.5t156.5 -24.5q57 0 116.5 18.5t108.5 51.5t80.5 77.5t31.5 97.5q0 19 -6 33.5t-15.5 24.5t-20.5 16.5t-20 8.5q-30 -52 -72 -81t-83 -43.5t-74.5 -17.5t-46.5 -3q-44 0 -85 20.5t-72.5 60.5t-51 97.5t-19.5 132.5q0 23 1.5 47
t3.5 47q-53 25 -99.5 58.5t-86 69.5t-71 71l-54.5 62l103 116q56 -85 115.5 -144.5t121.5 -96.5q16 50 40 94t56 76.5t72 51.5t88 19q45 0 84 -12t68 -37.5t45.5 -64.5t16.5 -92q0 -54 -24.5 -94.5t-66.5 -67.5t-97.5 -40.5t-117.5 -13.5q-23 0 -49.5 4.5t-48.5 9.5
q-9 -23 -10.5 -35.5t-1.5 -28.5q0 -29 7.5 -55t21 -45.5t30.5 -31.5t37 -12zM701 919q34 0 64.5 6.5t53 19.5t35.5 33t13 48q0 17 -8 29t-19.5 20t-24.5 11.5t-23 3.5q-73 0 -125.5 -43.5t-85.5 -110.5q30 -9 60.5 -13t59.5 -4zM560 -97q0 21 8 40t22 33.5t33 22.5t40 8
t40 -8t33.5 -22.5t22.5 -33.5t8 -40t-8 -40t-22.5 -33t-33.5 -22t-40 -8t-40 8t-33 22t-22 33t-8 40z" />
    <glyph glyph-name="bn_ca_nukta" unicode="&#x99a;&#x9bc;" horiz-adv-x="987" 
d="M305 334q0 -22 3 -35.5t8.5 -21t13.5 -10.5t17 -3q21 0 53.5 18.5t69 48t73.5 66.5t67 75t48.5 72.5t18.5 58.5q0 14 -21 36t-54 49l-74.5 59.5l-83 67.5t-78.5 73t-61 76v-630zM305 1071q45 -54 103 -99.5t118 -84.5l118 -74t103 -69t72.5 -68.5t27.5 -72.5
q0 -33 -27.5 -83.5t-71.5 -106.5t-100 -112.5t-112.5 -101.5t-108.5 -73.5t-89 -28.5q-35 0 -64 11.5t-50 30t-32.5 43.5t-11.5 52v880h-180v116h1037v-116h-732v-43zM283 -108q0 21 8 40t22 33.5t33 22.5t40 8t40 -8t33.5 -22.5t22.5 -33.5t8 -40t-8 -40t-22.5 -33
t-33.5 -22t-40 -8t-40 8t-33 22t-22 33t-8 40z" />
    <glyph glyph-name="bn_cha_nukta" unicode="&#x99b;&#x9bc;" horiz-adv-x="1111" 
d="M581 949q23 0 50.5 3.5l55.5 7l54.5 7t47.5 3.5q36 0 73.5 -10.5t67.5 -35t49.5 -66t19.5 -103.5q0 -93 -35 -174.5t-97.5 -146t-147 -109.5t-183.5 -66q51 -12 112.5 -33t126.5 -55.5t129 -84t120 -117.5v-70q-80 72 -175.5 120.5t-192.5 80t-188.5 49.5t-163.5 30
l-112 207q32 -11 64 -15.5t65 -4.5q118 0 220 39t177.5 101.5t118.5 140.5t43 156q0 22 -9.5 36t-23 21t-29 9.5t-27.5 2.5q-29 0 -58.5 -9t-52.5 -15q-6 -83 -39.5 -144t-81 -101t-103 -59t-105.5 -19q-37 0 -68.5 12t-54 37.5t-35.5 66t-13 96.5v377h-180v116h1161v-116
h-857q21 -35 53.5 -65t70 -52t77.5 -35t76 -13zM304 737q6 -40 19 -57.5t45 -17.5q28 0 60.5 8.5t61.5 29.5t50.5 55.5t26.5 86.5q-21 0 -57 9t-74.5 28.5t-74 50t-57.5 73.5v-266zM460 -97q0 21 8 40t22 33.5t33 22.5t40 8t40 -8t33.5 -22.5t22.5 -33.5t8 -40t-8 -40
t-22.5 -33t-33.5 -22t-40 -8t-40 8t-33 22t-22 33t-8 40z" />
    <glyph glyph-name="bn_ja_nukta" unicode="&#x99c;&#x9bc;" horiz-adv-x="1355" 
d="M1375 1114h-630q5 -33 26.5 -62t53.5 -51t72.5 -34.5t83.5 -12.5q35 0 70.5 9.5t68.5 29.5l154 -166q-33 -29 -61.5 -75.5t-49 -106.5t-32.5 -131.5t-12 -150.5q0 -86 16 -177.5t51 -185.5q-1 0 -18 6l-37.5 13.5l-37.5 13.5l-17 6l-32 121.5t-25.5 111t-16.5 104
t-6 100.5q0 82 18 167.5t59 186.5q-45 -12 -94 -12q-57 0 -114.5 16t-108.5 45t-92.5 70t-66.5 91q-15 -10 -37 -29t-46.5 -43.5t-49 -52.5t-44 -55t-31.5 -51.5t-12 -42.5q0 -43 24 -60.5t60 -17.5q33 0 72 11.5t75 28t65 35t43 32.5q42 -24 72.5 -56t51 -68.5t30 -77
t9.5 -80.5q0 -60 -20.5 -117t-59.5 -101.5t-95 -71.5t-128 -27q-97 0 -171 35.5t-129 94t-92.5 134t-60 156.5t-32.5 161.5t-10 148.5v29l61 -44q1 -117 30.5 -219t84 -177t131.5 -118.5t172 -43.5q35 0 79 13.5t83 38t65.5 58t26.5 74.5q0 23 -10.5 48t-33.5 51l-48 -24.5
t-55.5 -25.5t-58.5 -20t-57 -8q-72 0 -120 15.5t-77 45t-41 71t-12 93.5q0 66 15.5 121t36.5 97t43.5 71t36.5 42h-433v116h1375v-116zM460 3q0 21 8 40t22 33.5t33 22.5t40 8t40 -8t33.5 -22.5t22.5 -33.5t8 -40t-8 -40t-22.5 -33t-33.5 -22t-40 -8t-40 8t-33 22t-22 33
t-8 40z" />
    <glyph glyph-name="bn_jha_nukta" unicode="&#x99d;&#x9bc;" horiz-adv-x="1361" 
d="M703 883q-58 -13 -120 -40.5t-119 -62t-104.5 -73t-76.5 -74.5q61 -21 125 -57.5t121 -84t103 -105t71 -120.5v617zM827 622q30 -22 57 -45.5t55.5 -55t59 -74t68.5 -101.5v1100l124 -111v-105h190v-116h-190v-1014l-60 40q-20 51 -54 98t-75.5 90t-87 81.5t-87.5 70.5
v-480l-60 40q-34 88 -88.5 165.5t-124 139t-151 104.5t-169.5 62l-154 188q87 79 162.5 137t148.5 100t148.5 70t163.5 48v60h-703v116h827v-608zM260 103q0 21 8 40t22 33.5t33 22.5t40 8t40 -8t33.5 -22.5t22.5 -33.5t8 -40t-8 -40t-22.5 -33t-33.5 -22t-40 -8t-40 8
t-33 22t-22 33t-8 40z" />
    <glyph glyph-name="bn_nya_nukta" unicode="&#x99e;&#x9bc;" horiz-adv-x="1595" 
d="M1007 744q18 -51 45.5 -96t62 -78t75.5 -52.5t87 -19.5q24 0 47 6t41 19t29 34.5t11 52.5q0 16 -6.5 41t-29.5 49q-26 -34 -53 -43.5t-53 -9.5q-11 0 -27 4.5t-30.5 15.5t-25 29.5t-10.5 47.5t10.5 47.5t25 29.5t30.5 15.5t27 4.5q26 0 53 -9.5t53 -43.5q23 24 29.5 49
t6.5 41q0 31 -11 52.5t-29 34.5t-41 19t-47 6q-46 0 -87 -19.5t-75.5 -52.5t-62 -78t-45.5 -96zM1012 951q29 55 61.5 93t67 62t70.5 34.5t71 10.5q39 0 77 -15t68.5 -43t49.5 -67.5t19 -88.5q0 -37 -8.5 -68t-22 -55t-29.5 -41.5t-31 -28.5q15 -11 31 -28.5t29.5 -41.5
t22 -55t8.5 -68q0 -49 -19 -88.5t-49.5 -67.5t-68.5 -43t-77 -15q-35 0 -71 10.5t-70.5 34.5t-67 62t-61.5 93v-537l-64 40q-33 40 -68 63.5t-73.5 36t-80.5 16t-90 3.5q-60 0 -120 -5t-114 -5q-75 0 -134.5 21t-101 58.5t-63.5 89t-22 112.5q0 41 10 84t31 89l41 -41
q-9 -24 -13 -45t-4 -40q0 -51 27 -83t69 -50t93.5 -24t101.5 -6q29 0 58.5 0.5t58.5 0.5q51 0 100.5 -7.5t93.5 -26t80 -50t60 -80.5v849q0 45 -31 66.5t-85 21.5q-31 0 -78.5 -11t-102.5 -42t-112 -87t-106 -146q41 42 76 57t70 15t61 -12.5t43.5 -32t26.5 -44.5t9 -49
q0 -34 -13 -60t-34.5 -43t-50.5 -26t-61 -9q-41 0 -73.5 14.5t-55 38.5t-34.5 55.5t-12 66.5q0 64 22 123t59 110t86.5 92.5t103.5 70.5t110 45t107 16q43 0 79.5 -7t63 -28.5t41.5 -61.5t15 -106v-76zM360 -97q0 21 8 40t22 33.5t33 22.5t40 8t40 -8t33.5 -22.5t22.5 -33.5
t8 -40t-8 -40t-22.5 -33t-33.5 -22t-40 -8t-40 8t-33 22t-22 33t-8 40z" />
    <glyph glyph-name="bn_tta_nukta" unicode="&#x99f;&#x9bc;" horiz-adv-x="967" 
d="M1017 1230v-116h-713v-727q0 -23 6.5 -43.5t19.5 -36t31 -25t42 -9.5q35 0 75 13t80 36t77 54t65.5 67t45.5 75t17 78q0 5 -2 13q-34 -35 -66.5 -50.5t-62.5 -15.5q-32 0 -59 12t-46.5 32t-31 47t-11.5 56q0 33 11.5 62t32 51t47.5 35t59 13q58 0 95.5 -26t59.5 -65.5
t30 -87.5t8 -92q0 -117 -41 -207t-105 -151.5t-141.5 -93t-150.5 -31.5q-11 0 -31 2.5t-43 11t-47 24.5t-43.5 42.5t-32 66t-12.5 95.5v775h-180v116h581q30 16 43.5 35.5t13.5 33.5q0 30 -23 46.5t-60.5 25t-85.5 13t-97.5 10t-97.5 16t-85.5 31.5t-60.5 55.5t-23 89.5
q0 25 13.5 55t44.5 57l36 -28q-25 -21 -30.5 -37.5t-5.5 -30.5q0 -27 25.5 -42.5t67 -24.5t94 -13.5t107.5 -10.5t108 -16t94.5 -29.5t66.5 -50.5t25 -80q0 -18 -6 -33.5t-15 -28.5t-20 -23.5l-21 -19.5h328zM260 -97q0 21 8 40t22 33.5t33 22.5t40 8t40 -8t33.5 -22.5
t22.5 -33.5t8 -40t-8 -40t-22.5 -33t-33.5 -22t-40 -8t-40 8t-33 22t-22 33t-8 40z" />
    <glyph glyph-name="bn_ttha_nukta" unicode="&#x9a0;&#x9bc;" horiz-adv-x="982" 
d="M1032 1230v-116h-461q49 -67 97.5 -140.5t87 -149t62.5 -151t24 -147.5q0 -84 -23.5 -162t-71 -137t-119 -94.5t-167.5 -35.5q-83 0 -152.5 27t-119.5 74.5t-78.5 112t-28.5 138.5q0 59 16 106q67 21 124.5 61.5t98.5 96.5t64.5 124.5t23.5 144.5q0 69 -24 132h-385v116
h381q-34 46 -63.5 93t-51.5 93.5t-34.5 93.5t-12.5 95q0 64 26 128.5t87 131.5l130 -96q-56 -54 -80 -108.5t-24 -111.5q0 -77 37.5 -157t93.5 -162h543zM535 898q0 -77 -22 -147.5t-63.5 -130t-102 -105t-137.5 -72.5q0 -98 62 -155.5t179 -57.5q65 0 117.5 22.5t89 63.5
t56 97t19.5 124q0 61 -19 128.5t-50 133t-69 125.5t-76 108q6 -27 9 -45.5t4.5 -32.5t2 -27t0.5 -29zM360 -97q0 21 8 40t22 33.5t33 22.5t40 8t40 -8t33.5 -22.5t22.5 -33.5t8 -40t-8 -40t-22.5 -33t-33.5 -22t-40 -8t-40 8t-33 22t-22 33t-8 40z" />
    <glyph glyph-name="bn_nna_nukta" unicode="&#x9a3;&#x9bc;" horiz-adv-x="1016" 
d="M348 1090q-37 0 -75 -12.5t-68.5 -36t-50 -58.5t-19.5 -80q0 -18 4 -35.5t12 -25.5q6 27 19 44.5t29.5 27t34 13t32.5 3.5q57 -3 93 -38.5t36 -95.5q0 -26 -11.5 -49t-31 -40t-45.5 -27t-56 -10q-36 0 -67.5 17t-54.5 48.5t-36 75t-13 96.5q0 67 18 125.5t51.5 102.5
t81.5 69.5t108 25.5q49 0 101.5 -23.5t102.5 -62.5t96 -90t83 -107v499l124 -111v-105h190v-116h-190v-1114l-124 80v756q-86 118 -177.5 186t-196.5 68zM260 103q0 21 8 40t22 33.5t33 22.5t40 8t40 -8t33.5 -22.5t22.5 -33.5t8 -40t-8 -40t-22.5 -33t-33.5 -22t-40 -8
t-40 8t-33 22t-22 33t-8 40z" />
    <glyph glyph-name="bn_ta_nukta" unicode="&#x9a4;&#x9bc;" horiz-adv-x="1294" 
d="M1121 1114h-1121v116h1344v-116h-223zM765 97q-110 0 -198 45t-157 118.5t-121 167.5t-89 192.5t-61 193.5t-38 171l58 -27q20 -74 47.5 -155t64 -160t83.5 -151t106 -126.5t132 -86.5t161 -32q79 0 132 27.5t85.5 70.5t46 96.5t13.5 106.5q0 56 -8.5 110t-32 101.5
t-64.5 85t-106 60.5q14 -18 29 -45.5t15 -57.5q0 -27 -13.5 -49.5t-35.5 -38.5t-48.5 -25t-51.5 -9q-24 0 -52 9.5t-52 28t-40 46.5t-16 65q0 34 15 62.5t41 49.5t60 32.5t73 11.5q96 0 172 -37.5t129 -99.5t81.5 -141.5t28.5 -162.5q0 -105 -31.5 -187.5t-85 -140.5
t-124 -88.5t-148.5 -30.5zM660 -97q0 21 8 40t22 33.5t33 22.5t40 8t40 -8t33.5 -22.5t22.5 -33.5t8 -40t-8 -40t-22.5 -33t-33.5 -22t-40 -8t-40 8t-33 22t-22 33t-8 40z" />
    <glyph glyph-name="bn_tha_nukta" unicode="&#x9a5;&#x9bc;" horiz-adv-x="1077" 
d="M391 561q40 -18 90.5 -45t103.5 -63.5t104.5 -83t93.5 -104.5v1181l124 -111v-105h190v-116h-190v-1114l-60 40q-38 86 -103.5 160t-148 133t-177.5 101.5t-191 65.5l-148 162q54 1 111.5 10t113 25.5t105.5 40.5t87.5 54.5t59.5 67t22 79.5q0 42 -21 75t-53.5 55
t-72 33.5t-77.5 11.5q-58 0 -107 -21.5t-91 -78.5q10 4 23 10t26 11t24.5 9t19.5 4q42 0 66.5 -15t38 -35.5t17.5 -40.5t4 -30q0 -25 -11.5 -46t-29.5 -36.5t-41 -24.5t-46 -9q-33 0 -58.5 14.5t-43 37.5t-27 52.5t-9.5 59.5q0 62 23.5 109.5t61 80t85 49t94.5 16.5
q64 0 114.5 -25.5t85 -67.5t52.5 -95.5t18 -108.5q0 -65 -15.5 -118.5t-47 -98.5t-79 -83.5t-110.5 -71.5zM260 103q0 21 8 40t22 33.5t33 22.5t40 8t40 -8t33.5 -22.5t22.5 -33.5t8 -40t-8 -40t-22.5 -33t-33.5 -22t-40 -8t-40 8t-33 22t-22 33t-8 40z" />
    <glyph glyph-name="bn_da_nukta" unicode="&#x9a6;&#x9bc;" horiz-adv-x="1043" 
d="M1063 1114h-759v-491q42 58 99.5 111t121 97t128 76.5t120.5 47.5l166 -122q-62 -124 -86 -238.5t-24 -229.5q0 -47 3 -90t8 -87t13 -90t18 -98l-73 50q-32 128 -53.5 242t-21.5 228q0 62 7 124.5t24 128.5q-50 -15 -112 -52t-124 -90.5t-118.5 -122t-95.5 -146.5
l-124 159v593h-180v116h1063v-116zM260 103q0 21 8 40t22 33.5t33 22.5t40 8t40 -8t33.5 -22.5t22.5 -33.5t8 -40t-8 -40t-22.5 -33t-33.5 -22t-40 -8t-40 8t-33 22t-22 33t-8 40z" />
    <glyph glyph-name="bn_dha_nukta" unicode="&#x9a7;&#x9bc;" horiz-adv-x="995" 
d="M826 1114v-1114l-60 40q-34 88 -88.5 165.5t-124 139t-151 104.5t-169.5 62l-154 188l83 73.5l78 64.5q-32 12 -58.5 34t-46.5 50.5t-31 63t-11 71.5q0 34 12 65.5t33 55.5t50 38.5t62 14.5q28 0 52.5 -10.5t42.5 -28.5t28.5 -41.5t10.5 -49.5q0 -27 -12 -51t-30.5 -41
t-42 -27t-47.5 -10q-21 0 -43.5 9t-42.5 35q7 -26 22 -48t34.5 -38.5t42.5 -27t47 -12.5q94 64 187.5 103t202.5 62v176h313v-116h-189zM702 903q-69 -8 -134 -34.5t-121 -62.5t-100.5 -76t-72.5 -74q42 -18 99.5 -52t117.5 -83.5t116 -113t95 -141.5v637zM260 103
q0 21 8 40t22 33.5t33 22.5t40 8t40 -8t33.5 -22.5t22.5 -33.5t8 -40t-8 -40t-22.5 -33t-33.5 -22t-40 -8t-40 8t-33 22t-22 33t-8 40z" />
    <glyph glyph-name="bn_na_nukta" unicode="&#x9a8;&#x9bc;" horiz-adv-x="1071" 
d="M355 710q32 -20 52 -56t20 -84q0 -26 -12 -53t-33.5 -49t-51.5 -35.5t-65 -13.5q-31 0 -63.5 10.5t-59.5 34t-44.5 59.5t-17.5 87q0 55 22.5 98t58.5 72t82 44t93 15q58 0 109.5 -16t95.5 -43t81.5 -62t67 -73.5t51.5 -78t36 -74.5v622h-777v116h1091v-116h-190v-1114
l-124 80v257q-35 79 -85 147t-107 118t-116.5 79t-113.5 29zM260 103q0 21 8 40t22 33.5t33 22.5t40 8t40 -8t33.5 -22.5t22.5 -33.5t8 -40t-8 -40t-22.5 -33t-33.5 -22t-40 -8t-40 8t-33 22t-22 33t-8 40z" />
    <glyph glyph-name="bn_pa_nukta" unicode="&#x9aa;&#x9bc;" horiz-adv-x="1256" 
d="M962 1446l124 -111v-105h190v-116h-190v-1114l-124 80v608l-14 23l-75 116t-75 104l-333 -344l-125 60l34 35l34 36q26 49 26 93q0 52 -33 82.5t-82 30.5q-23 0 -49 -7.5t-52 -24.5q1 0 -20 8.5l-46.5 19l-46.5 19.5t-21 10q33 59 76.5 110t93.5 89t107 60t117 22
q90 0 156 -30t121 -85t104 -132t103 -171v634zM518 1114q-43 0 -80 -14.5t-66.5 -34.5t-49 -41t-27.5 -34q25 6 49 6q34 0 62 -11.5t48.5 -31t32 -45.5t11.5 -56q0 -16 -5 -38l215 215q-45 40 -91.5 62.5t-98.5 22.5zM260 103q0 21 8 40t22 33.5t33 22.5t40 8t40 -8
t33.5 -22.5t22.5 -33.5t8 -40t-8 -40t-22.5 -33t-33.5 -22t-40 -8t-40 8t-33 22t-22 33t-8 40z" />
    <glyph glyph-name="bn_pha_nukta" unicode="&#x9ab;&#x9bc;" horiz-adv-x="1423" 
d="M870 0l-60 40q-57 105 -125.5 173t-140.5 111t-144.5 66t-137.5 38l-144 171q31 37 71 78t88.5 80.5t105.5 76t123 65.5q-63 58 -136 98.5t-143 66.5t-130 38t-97 12l-59 116h1532v-116h-1094q36 -21 76.5 -59t78.5 -83t69.5 -93t49.5 -88q-50 -19 -99 -46t-94 -58
t-85 -64.5t-70 -65.5q61 -21 114.5 -44t106 -55.5t106 -78.5t114.5 -113v683h124q88 0 168.5 -31t141.5 -86.5t97 -132.5t36 -169q0 -54 -14.5 -96.5t-39.5 -72t-58.5 -45.5t-71.5 -16q-29 0 -54 10.5t-43.5 29t-29.5 42.5t-11 51q0 57 38 92t98 35q13 0 30 -4t33.5 -14.5
t29.5 -28.5t18 -47q9 9 14 27.5t5 33.5q0 72 -37.5 123.5t-95 84.5t-125.5 48.5t-129 15.5v-799zM260 103q0 21 8 40t22 33.5t33 22.5t40 8t40 -8t33.5 -22.5t22.5 -33.5t8 -40t-8 -40t-22.5 -33t-33.5 -22t-40 -8t-40 8t-33 22t-22 33t-8 40z" />
    <glyph glyph-name="bn_bha_nukta" unicode="&#x9ad;&#x9bc;" horiz-adv-x="1355" 
d="M1405 1114h-1405v116h1405v-116zM782 60q-46 0 -101.5 18.5t-116 61t-124.5 113.5t-126.5 175.5t-121.5 246.5t-110 328l89 -62q33 -95 69.5 -185t79 -170.5t91 -148t105.5 -116t123 -76t143 -27.5q68 0 119.5 21t89.5 54.5t63.5 77t41 88t22 86.5t6.5 74q0 12 -1.5 28
t-4.5 33.5t-8 34t-12 28.5q-57 -46 -108.5 -73.5t-97 -42t-85.5 -19t-73 -4.5q-48 0 -90 15t-73.5 42t-50 65t-18.5 84q0 35 12 65t33.5 51.5t50 34t61.5 12.5q31 0 58.5 -11t48.5 -30.5t33 -46t12 -57.5q0 -58 -30.5 -96t-79.5 -57q62 8 111 29t86 48.5t64 59t45 61t28 55
t14 41.5q53 -32 85.5 -74t50.5 -87t24 -88.5t6 -78.5q0 -72 -10.5 -143t-32 -135.5t-56 -120t-82.5 -96t-111 -63.5t-141 -23zM680 -166q0 21 8 40t22 33.5t33 22.5t40 8t40 -8t33.5 -22.5t22.5 -33.5t8 -40t-8 -40t-22.5 -33t-33.5 -22t-40 -8t-40 8t-33 22t-22 33t-8 40z
" />
    <glyph glyph-name="bn_ma_nukta" unicode="&#x9ae;&#x9bc;" horiz-adv-x="1159" 
d="M932 40q-18 63 -49 126t-76.5 120.5t-106 106.5t-138.5 84q-26 -52 -59.5 -71t-85.5 -19q-21 0 -47.5 8.5t-49.5 27t-39 48.5t-16 72q0 25 8.5 51.5t27 48.5t47 35.5t68.5 13.5q29 0 55.5 -12t42.5 -25q0 61 -21.5 117t-59 104t-87.5 88t-107.5 70.5t-118.5 50.5t-120 29
l-55 116h1234v-116h-190v-1114zM614 692q0 -28 -3 -49t-7 -41q48 -34 117 -92.5t144 -156.5v761h-529q56 -24 106.5 -70.5t88.5 -105t60.5 -122.5t22.5 -124zM260 103q0 21 8 40t22 33.5t33 22.5t40 8t40 -8t33.5 -22.5t22.5 -33.5t8 -40t-8 -40t-22.5 -33t-33.5 -22t-40 -8
t-40 8t-33 22t-22 33t-8 40z" />
    <glyph glyph-name="bn_la_nukta" unicode="&#x9b2;&#x9bc;" horiz-adv-x="1179" 
d="M1009 1114v-1114l-124 80v503q-9 23 -23.5 50t-33.5 50.5t-41 39.5t-46 16q-26 0 -47 -14.5t-36.5 -36t-25.5 -47.5t-14 -49h-50q-26 41 -51 69t-52.5 45.5t-59 25t-69.5 7.5q-28 0 -60.5 -12.5t-60 -36.5t-46 -59t-18.5 -79q0 -34 9 -59t21.5 -43t26 -29t21.5 -17
q-16 36 -16 68q0 28 11 50.5t28.5 38t39 23.5t42.5 8q29 0 54.5 -10t44 -27.5t29 -41t10.5 -51.5q0 -29 -11.5 -53.5t-32.5 -42t-49.5 -27.5t-62.5 -10q-46 0 -88.5 20t-75.5 56.5t-52.5 87.5t-19.5 114q0 65 20.5 117.5t56 89t83.5 56t104 19.5q43 0 81.5 -14.5t70 -39.5
t56 -60t38.5 -75q4 37 18 71t33.5 60.5t44 42t51.5 15.5t50.5 -15t42.5 -39t33 -54.5t22 -61.5v395h-885v116h1199v-116h-190zM260 103q0 21 8 40t22 33.5t33 22.5t40 8t40 -8t33.5 -22.5t22.5 -33.5t8 -40t-8 -40t-22.5 -33t-33.5 -22t-40 -8t-40 8t-33 22t-22 33t-8 40z
" />
    <glyph glyph-name="bn_sha_nukta" unicode="&#x9b6;&#x9bc;" horiz-adv-x="1182" 
d="M888 1446l124 -111v-105h190v-116h-190v-1114l-124 80v727q-17 44 -44.5 94t-62.5 92.5t-75 70.5t-80 28q-16 0 -32 -7t-29.5 -19.5t-23.5 -28.5t-14 -34q23 -18 49.5 -42.5t48.5 -53.5t36.5 -61.5t14.5 -67.5q0 -66 -37 -101.5t-92 -35.5q-45 0 -82 30t-69 84
q-10 -24 -27.5 -45t-39 -36.5t-47 -24t-51.5 -8.5q-29 0 -51.5 11t-38.5 29.5t-24.5 42.5t-8.5 50q0 34 15 67.5t39.5 63.5t56 55t64.5 43q-15 42 -36 64.5t-44 33t-46.5 12t-43.5 1.5h-113v116h111q41 0 83.5 -15t79 -42.5t65 -66t40.5 -84.5q23 95 81 151.5t148 56.5
q28 0 58 -15.5t58.5 -40.5t55 -56t48.5 -62.5t37.5 -60t22.5 -48.5v499zM260 103q0 21 8 40t22 33.5t33 22.5t40 8t40 -8t33.5 -22.5t22.5 -33.5t8 -40t-8 -40t-22.5 -33t-33.5 -22t-40 -8t-40 8t-33 22t-22 33t-8 40z" />
    <glyph glyph-name="bn_ssa_nukta" unicode="&#x9b7;&#x9bc;" horiz-adv-x="1037" 
d="M0 1114l-59 116h1116v-116h-190v-1114l-60 40q-61 105 -129.5 173t-140 110.5t-142.5 66t-136 38.5l-144 171q28 34 66.5 72.5t85 77t100 74.5t111.5 66q-44 38 -101 77t-120 71.5t-129.5 53.5t-127.5 23zM302 557q61 -21 117.5 -47.5t110.5 -61t107 -79t106 -103.5v339
l-76.5 88.5l-67.5 75.5q-43 -20 -85 -45t-80.5 -53t-72 -57t-59.5 -57zM743 1114h-391q59 -31 116.5 -82.5t108.5 -110.5t94 -120t72 -110v423zM260 103q0 21 8 40t22 33.5t33 22.5t40 8t40 -8t33.5 -22.5t22.5 -33.5t8 -40t-8 -40t-22.5 -33t-33.5 -22t-40 -8t-40 8t-33 22
t-22 33t-8 40z" />
    <glyph glyph-name="bn_sa_nukta" unicode="&#x9b8;&#x9bc;" horiz-adv-x="1201" 
d="M-55 1230h1276v-116h-190v-1114l-124 80v558q-13 21 -30.5 41t-37 35.5t-40 25t-38.5 9.5q-41 0 -73 -26t-60 -65.5t-54 -85.5t-54.5 -85.5t-62.5 -65.5t-77 -26q-54 0 -93 22.5t-68.5 58t-51.5 78t-40 81.5l54 46q8 -20 20.5 -42t28.5 -40t35 -30t40 -12q30 0 57 19
t52.5 49.5t50 68l49.5 74.5q-24 65 -62.5 116t-85 88.5t-97 63.5t-100 43t-93.5 25t-76 10zM704 921q28 0 57 -20t56.5 -48t50.5 -59l39 -53v373h-532q23 -16 48 -39t50 -57t47.5 -79.5t41.5 -105.5q32 38 66 63t76 25zM260 103q0 21 8 40t22 33.5t33 22.5t40 8t40 -8
t33.5 -22.5t22.5 -33.5t8 -40t-8 -40t-22.5 -33t-33.5 -22t-40 -8t-40 8t-33 22t-22 33t-8 40z" />
    <glyph glyph-name="bn_ha_nukta" unicode="&#x9b9;&#x9bc;" horiz-adv-x="1015" 
d="M1065 1230v-116h-714q9 -7 24.5 -21.5t29.5 -37.5q73 0 141 -22t121 -63t85 -99.5t32 -132.5q0 -68 -31 -121t-79.5 -90.5t-107.5 -58.5t-114 -24l93.5 -44t99.5 -55t109.5 -82.5t123.5 -126.5l52 -135q-90 99 -183.5 169t-188.5 116.5t-190.5 72.5t-191.5 37l-85 236
q17 -2 43.5 -11.5l60 -21t72 -20.5t79.5 -9q40 0 90 14t94 40t74 63.5t30 85.5t-15.5 82t-42 57.5t-62 36.5t-75.5 18q17 -22 23.5 -48t6.5 -46q0 -35 -13.5 -62.5t-36 -47t-51 -30t-59.5 -10.5q-29 0 -57 11t-50 31t-35 49t-13 64q0 34 12.5 61t33.5 47.5t49 34.5t60 22
q-5 15 -20.5 35t-43.5 36h-245v116h1065zM260 103q0 21 8 40t22 33.5t33 22.5t40 8t40 -8t33.5 -22.5t22.5 -33.5t8 -40t-8 -40t-22.5 -33t-33.5 -22t-40 -8t-40 8t-33 22t-22 33t-8 40z" />
    <glyph glyph-name="exclam" unicode="!" horiz-adv-x="567" 
d="M252 339q-4 110 -18 223l-29 223.5t-27 215.5t-12 199q0 36 10 65t26.5 49t37.5 31t44 11q25 0 46 -11t37 -31t25 -49t9 -65q0 -94 -12 -199t-27.5 -215.5t-29.5 -223.5t-18 -223h-62zM284 180q22 0 42 -8.5t34.5 -22.5t23 -33.5t8.5 -40.5q0 -23 -8.5 -42t-23 -33.5
t-34.5 -22.5t-42 -8q-23 0 -43 8t-35 22.5t-23.5 33.5t-8.5 42q0 21 8.5 40.5t23.5 33.5t35 22.5t43 8.5z" />
    <glyph glyph-name="quotedbl" unicode="&#x22;" horiz-adv-x="752" 
d="M188 787q-9 73 -22.5 132.5l-26 114t-21.5 107.5t-9 114q0 43 29.5 72t72.5 29t72.5 -29t29.5 -72q0 -61 -9 -114t-21.5 -107.5l-26 -114t-22.5 -132.5h-46zM517 787q-9 73 -22.5 132.5l-26 114t-21 107.5t-8.5 114q0 43 29.5 72t72.5 29q21 0 39.5 -8t32 -21.5t21.5 -32
t8 -39.5q0 -61 -9 -114t-21.5 -107.5l-26 -114t-22.5 -132.5h-46z" />
    <glyph glyph-name="numbersign" unicode="#" horiz-adv-x="999" 
d="M283 861l99 465h102l-100 -465h331l100 465h99l-97 -465h173v-74h-189l-69 -329h258v-74h-275l-93 -433h-101l92 433h-330l-94 -433h-102l95 431h-172v76h187l70 329h-257v74h273zM298 458h332l69 329h-330z" />
    <glyph glyph-name="dollar" unicode="$" horiz-adv-x="1047" 
d="M468 598q-71 39 -135.5 82.5t-114.5 95t-79.5 114.5t-29.5 141q0 65 28 121.5t76.5 100t114 70.5t140.5 33v95h79v-95q52 -3 97.5 -11.5t87 -21.5t79.5 -28.5l76 -31.5v-292h-38q-11 90 -37 146t-64.5 90t-89 49.5t-111.5 24.5v-503q70 -38 139.5 -83t125 -99t90 -119
t34.5 -142q0 -72 -27.5 -135.5t-78.5 -113t-123 -80.5t-160 -37v-90h-79v90q-54 1 -101.5 6.5t-91 16t-84.5 27t-82 39.5v270h47q10 -76 32 -130t59.5 -88t92 -49.5t128.5 -15.5v553zM547 45q46 8 85.5 31t69 55t46 71.5t16.5 80.5q0 42 -16.5 80t-46 71.5t-69 62.5
t-85.5 54v-506zM468 1281q-41 -6 -75 -25t-59.5 -46.5t-39.5 -61.5t-14 -70q0 -37 14 -72t39.5 -67t59.5 -60t75 -51v453z" />
    <glyph glyph-name="percent" unicode="%" horiz-adv-x="1679" 
d="M353 1356q69 0 121 -32t87.5 -83.5t53 -117.5t17.5 -133q0 -66 -18 -129.5t-53.5 -113t-87.5 -79.5t-121 -30q-68 0 -120 30t-87.5 79.5t-54 113t-18.5 129.5q0 67 18.5 133t54 117.5t88 83.5t120.5 32zM355 1306q-29 0 -49.5 -17.5t-35 -45t-23 -62.5t-13 -70t-6 -67
t-1.5 -54q0 -21 1 -51t5.5 -63.5t12.5 -67t22 -60.5t34.5 -43.5t49.5 -16.5q28 0 48.5 16.5t34.5 43t22.5 59.5t13 66.5t6 64t1.5 52.5q0 21 -1.5 52.5t-6 66.5t-13 70.5t-22 63.5t-33 45.5t-47.5 17.5zM1330 688q69 0 121 -32t87 -84t53 -117.5t18 -132.5t-18 -130.5
t-53.5 -113t-88 -79.5t-121.5 -30q-68 0 -120 30t-87 79.5t-53 113t-18 130.5t18.5 132.5t54 117.5t87.5 84t120 32zM1332 638q-29 0 -49.5 -17.5t-34.5 -45t-23 -62.5t-14 -70.5t-6.5 -67t-1.5 -53.5q0 -21 1.5 -51.5t5.5 -64t12.5 -67t22.5 -60.5t34 -43.5t49 -16.5
t49.5 16.5t34.5 43t22.5 60t13 67t6 64.5t1.5 52t-1.5 52.5t-6 66.5t-13 70t-22 63.5t-33.5 46t-47 17.5zM410 -31h-87l951 1387h87z" />
    <glyph glyph-name="ampersand" unicode="&#x26;" horiz-adv-x="1561" 
d="M508 658q-50 -29 -92.5 -64t-73.5 -74.5t-48.5 -83.5t-17.5 -92q0 -54 17.5 -101t49.5 -81.5t78.5 -54.5t104.5 -20q79 0 150.5 35t136.5 86q-45 49 -86.5 104t-79.5 112.5t-72.5 117zM652 805q52 27 97 56t78.5 62.5t52.5 74t19 89.5q0 48 -12.5 85.5t-34 64t-50 40.5
t-61.5 14q-37 0 -68 -19t-53.5 -49.5t-35.5 -68t-13 -74.5q0 -60 21.5 -132t59.5 -143zM1233 715q-12 -71 -29.5 -127t-42 -105.5t-57 -96.5t-73.5 -99q77 -78 145.5 -123.5t126.5 -45.5q75 0 128 29.5t85 104.5l38 -14q-13 -65 -42.5 -115t-72.5 -84.5t-98 -52t-119 -17.5
q-82 0 -168.5 46.5t-169.5 124.5q-98 -76 -213.5 -123.5t-249.5 -47.5q-94 0 -160 21t-108 59t-61.5 91t-19.5 117q0 91 34.5 161.5t91 126.5t128.5 99.5t148 80.5q-42 88 -66.5 162t-24.5 125q0 66 21.5 128t65 110t108.5 77t151 29q64 0 120.5 -18.5t98.5 -54t66.5 -87
t24.5 -116.5t-31 -114t-81 -88t-113.5 -71l-128.5 -63q52 -99 125.5 -196.5t158.5 -191.5q99 112 148.5 207t65.5 166z" />
    <glyph glyph-name="quotesingle" unicode="'" horiz-adv-x="346" 
d="M150 787q-9 73 -22.5 132.5l-26 114t-21 107.5t-8.5 114q0 21 8 39.5t21.5 32t32 21.5t39.5 8q43 0 72.5 -29t29.5 -72q0 -61 -9 -114t-21.5 -107.5l-25.5 -114t-22 -132.5h-47z" />
    <glyph glyph-name="parenleft" unicode="(" horiz-adv-x="733" 
d="M721 -413q-129 46 -235.5 135t-182.5 206.5t-118 255.5t-42 281q0 96 19 191t55 183.5t87 169t115 147.5t140.5 118.5t161.5 81.5v-34q-108 -72 -180.5 -168.5t-116 -208t-61.5 -234t-18 -246.5q0 -122 14.5 -242t56 -229.5t115 -204.5t190.5 -167v-35z" />
    <glyph glyph-name="parenright" unicode=")" horiz-adv-x="733" 
d="M14 -378q117 72 190 167t114 204.5t55.5 229.5t14.5 242q0 124 -18 246.5t-61 234t-115 208t-180 168.5v34q85 -31 161 -82t140 -118t115 -147.5t86.5 -169t54.5 -183.5t19 -191q0 -143 -42 -281t-118 -255.5t-182 -206.5t-234 -135v35z" />
    <glyph glyph-name="asterisk" unicode="*" horiz-adv-x="786" 
d="M379 989q0 33 -9.5 69t-21.5 71.5t-21.5 68.5t-9.5 60q0 42 22.5 70t54.5 28q33 0 55.5 -28t22.5 -70q0 -27 -10 -60l-21.5 -68.5t-21.5 -71.5t-10 -69q28 16 55 42.5t51.5 54.5l48 53t46.5 39q31 16 59 16q20 0 37 -8.5t27 -25.5q4 -7 6.5 -16t2.5 -17
q0 -23 -14.5 -46.5t-41.5 -38.5q-22 -13 -55 -21t-69 -15.5t-72.5 -17.5t-64.5 -26q28 -17 64 -26t73 -16.5t70 -15t56 -20.5q26 -17 40 -40t14 -46q0 -16 -8 -34q-9 -16 -26.5 -24t-37.5 -8q-14 0 -29 3.5t-31 11.5q-23 13 -46.5 38l-48 53t-50.5 54.5t-56 43.5
q0 -33 10 -69.5t21.5 -72.5l21.5 -69.5t10 -58.5q0 -21 -6 -39t-16.5 -31.5t-25 -21t-30.5 -7.5q-32 0 -54.5 28.5t-22.5 70.5q0 27 9.5 60l20.5 69l21 72t11 69q-29 -18 -55.5 -44.5t-51.5 -54.5l-49 -52.5t-47 -37.5q-28 -18 -59 -18q-44 0 -64 34q-8 12 -8 31
q0 25 14.5 48.5t40.5 38.5q21 13 54.5 21t70.5 15.5t73.5 17.5t65.5 27q-29 16 -65 25.5t-73 17t-70.5 15.5t-55.5 22q-26 17 -41.5 40t-15.5 45q0 18 10 33q10 17 27.5 25.5t37.5 8.5q14 0 29 -3.5t31 -11.5q23 -14 46 -39.5l47.5 -53.5t51 -54.5t56.5 -42.5z" />
    <glyph glyph-name="plus" unicode="+" horiz-adv-x="1135" 
d="M517 962h86v-441h461v-83h-461v-441h-86v441h-460v83h460v441z" />
    <glyph glyph-name="comma" unicode="," horiz-adv-x="508" 
d="M86 -282q45 13 85 36.5t69 53.5t46 65.5t17 72.5q0 21 -8.5 37.5t-21.5 16.5t-21.5 -5l-17 -10.5t-20 -10.5t-30.5 -5q-20 0 -37.5 8.5t-31 24t-21.5 36t-8 44.5q0 26 10.5 48t29 38.5t43.5 25.5t53 9q37 0 69 -16.5t56 -45t37.5 -66t13.5 -80.5q0 -68 -25.5 -125
t-68 -99.5t-99 -68.5t-119.5 -30v46z" />
    <glyph glyph-name="hyphen" unicode="-" horiz-adv-x="586" 
d="M536 536v-117h-487v117h487z" />
    <glyph glyph-name="period" unicode="." horiz-adv-x="436" 
d="M219 180q22 0 42 -8.5t35 -22.5t23.5 -33.5t8.5 -40.5q0 -23 -8.5 -42t-23.5 -33.5t-35 -22.5t-42 -8q-23 0 -43 8t-35 22.5t-23.5 33.5t-8.5 42q0 21 8.5 40.5t23.5 33.5t35 22.5t43 8.5z" />
    <glyph glyph-name="slash" unicode="/" horiz-adv-x="514" 
d="M435 1356h91l-445 -1387h-91z" />
    <glyph glyph-name="zero" unicode="0" horiz-adv-x="1122" 
d="M562 -31q-110 0 -200.5 52t-155 145t-99.5 222t-35 282q0 141 35 266t99.5 218.5t155 147.5t200.5 54t200 -54t154.5 -147.5t99.5 -218.5t35 -266q0 -153 -35 -282t-99.5 -222t-154.5 -145t-200 -52zM562 35q67 0 117 52t83 140t49.5 202.5t16.5 240.5t-16.5 239
t-49.5 197.5t-83 134.5t-117 50q-68 0 -118 -50t-83 -134.5t-49 -197.5t-16 -239t16 -240.5t49 -202.5t83 -140t118 -52z" />
    <glyph glyph-name="one" unicode="1" horiz-adv-x="1122" 
d="M557 0v1122h-223v57q122 0 195 46t113 131h103v-1356h-188z" />
    <glyph glyph-name="two" unicode="2" horiz-adv-x="1122" 
d="M86 0v35l255 246.5t183.5 188.5t122.5 143.5t73 110.5t35.5 89.5t9.5 81.5q0 59 -18.5 114.5t-54.5 98t-90 68t-126 25.5q-55 0 -108.5 -19t-97 -51.5t-73.5 -76t-38 -92.5h-38q6 81 42.5 153t94.5 125.5t132.5 84.5t155.5 31q103 0 180.5 -29.5t130 -79.5t79 -116.5
t26.5 -139.5q0 -51 -15 -102.5t-46.5 -108t-82 -120.5t-121.5 -140l-164 -167.5l-210 -201.5h708l-98 -151h-847z" />
    <glyph glyph-name="three" unicode="3" horiz-adv-x="1122" 
d="M355 690q76 9 138.5 35t107.5 66.5t70 95t25 119.5q0 44 -17.5 82.5t-49 67t-75 45t-96.5 16.5q-38 0 -78.5 -13t-78 -35.5t-69 -53t-51.5 -64.5l-40 15q21 60 56.5 113t85 92.5t112.5 62t140 22.5q73 0 136.5 -21.5t111 -59t75 -88.5t27.5 -111q0 -31 -16 -69t-43.5 -77
t-64 -76.5t-77.5 -66.5q57 -17 106.5 -52.5t86.5 -83.5t58.5 -103.5t21.5 -110.5q0 -118 -46 -206t-127 -146t-191 -87t-238 -29q-54 0 -97 8t-73 22.5t-46 34.5t-16 44q0 21 10.5 35.5t26.5 23t35 12t36 3.5q36 0 61.5 -7t45.5 -17.5t37 -22.5t36 -22.5t42.5 -17.5t56.5 -7
q69 0 122 22.5t89 61t54.5 88t18.5 103.5q0 69 -26.5 128t-80.5 102.5t-137 68t-195 24.5v34z" />
    <glyph glyph-name="four" unicode="4" horiz-adv-x="1122" 
d="M683 343h-634v121l695 892h126v-869h189v-144h-189v-343h-187v343zM181 487h502v654z" />
    <glyph glyph-name="five" unicode="5" horiz-adv-x="1122" 
d="M913 1163h-430l-99 -181q82 0 159 -17.5t145 -50t124 -79t96 -104t62.5 -125t22.5 -142.5q0 -102 -46 -192t-125.5 -157.5t-187 -106.5t-230.5 -39q-56 0 -102 10.5t-79 28.5t-51 42t-18 51q0 35 27.5 52.5t64.5 17.5q40 0 68 -15t57 -33t65.5 -33t93.5 -15
q65 0 122.5 25.5t100.5 69.5t68 103.5t25 127.5q0 92 -46.5 167t-132 128.5t-207 82.5t-271.5 29l286 518h521z" />
    <glyph glyph-name="six" unicode="6" horiz-adv-x="1122" 
d="M995 1322q-80 -7 -155 -32.5t-142.5 -66t-126 -94.5t-105 -118t-80 -135.5t-50.5 -146.5q32 22 66.5 42t73 34t81.5 22.5t93 8.5q80 0 151 -31t123.5 -85t83 -126.5t30.5 -154.5q0 -97 -37.5 -182.5t-101.5 -149.5t-150.5 -101t-183.5 -37q-104 0 -190.5 41.5
t-148.5 112.5t-97 167t-35 206q0 116 29 225.5t83.5 205t134 174.5t179.5 135.5t219.5 88t255.5 31.5v-34zM334 670q-8 -44 -12.5 -90.5t-4.5 -89.5q0 -91 16.5 -173.5t50.5 -145t86 -99.5t123 -37q49 0 92.5 24.5t75.5 67.5t51 100t19 123q0 83 -22 156t-60.5 127.5
t-89.5 86t-109 31.5q-24 0 -52.5 -6t-57.5 -16.5t-56.5 -25.5t-49.5 -33z" />
    <glyph glyph-name="seven" unicode="7" horiz-adv-x="1122" 
d="M1010 1291l-485 -1322h-127l436 1194h-699l76 163h799v-35z" />
    <glyph glyph-name="eight" unicode="8" horiz-adv-x="1122" 
d="M544 1356q90 0 166 -22.5t131 -62.5t86 -94.5t31 -118.5q0 -41 -26 -88t-69 -91.5t-98.5 -82t-114.5 -59.5q86 -50 150.5 -106.5t107 -112t63.5 -107t21 -91.5q0 -73 -33.5 -137t-91.5 -111.5t-135 -75t-165 -27.5q-93 0 -171 25t-134 68.5t-87.5 103t-31.5 128.5
q0 64 20 115.5t57.5 96t91 84.5t119.5 80q-72 54 -123 98t-83.5 86.5t-47.5 87.5t-15 100q0 64 30 121.5t82 100t121.5 67.5t148.5 25zM601 774q43 34 79 70.5t61.5 77t39.5 85.5t14 96q0 39 -17 73.5t-48.5 60t-77 40t-102.5 14.5q-51 0 -93 -16.5t-72 -44t-47 -62
t-17 -70.5q0 -49 26 -93.5t66.5 -85t90.5 -77zM482 634q-47 -37 -79.5 -79.5t-53 -85.5t-30 -84t-9.5 -75q0 -57 21 -107t56.5 -87.5t83 -59t101.5 -21.5t102.5 15t85 41t57.5 61t21 75t-15 77t-54.5 82t-109 104z" />
    <glyph glyph-name="nine" unicode="9" horiz-adv-x="1122" 
d="M119 4q112 10 218 59.5t193.5 127.5t150 178.5t88.5 212.5q-33 -20 -66.5 -38t-71 -31.5t-79.5 -21t-92 -7.5q-87 0 -156 34.5t-117.5 92t-74.5 131.5t-26 153q0 96 36.5 180t100.5 146.5t149 98.5t183 36q97 0 183 -41t150 -112.5t101.5 -168t37.5 -206.5
q0 -118 -32.5 -227.5t-92 -205t-142 -174t-183.5 -134.5t-217 -87t-241 -31v35zM786 657q7 43 12 95t5 103q0 89 -22 168t-60 138.5t-89.5 94.5t-110.5 35q-61 0 -104.5 -27t-71.5 -71.5t-41.5 -100.5t-13.5 -113q0 -89 16 -163.5t49 -128.5t84.5 -84t122.5 -30
q27 0 58.5 6.5t62 18t57.5 27t46 32.5z" />
    <glyph glyph-name="colon" unicode=":" horiz-adv-x="436" 
d="M219 915q22 0 42 -8.5t35 -22.5t23.5 -33.5t8.5 -41.5t-8.5 -41t-23.5 -33.5t-35 -23t-42 -8.5q-23 0 -43 8.5t-35 23t-23.5 33.5t-8.5 41t8.5 41.5t23.5 33.5t35 22.5t43 8.5zM219 180q22 0 42 -8.5t35 -22.5t23.5 -33.5t8.5 -40.5q0 -23 -8.5 -42t-23.5 -33.5
t-35 -22.5t-42 -8q-23 0 -43 8t-35 22.5t-23.5 33.5t-8.5 42q0 21 8.5 40.5t23.5 33.5t35 22.5t43 8.5z" />
    <glyph glyph-name="semicolon" unicode=";" horiz-adv-x="532" 
d="M258 915q22 0 42 -9t34.5 -24t23 -35t8.5 -42q0 -23 -8.5 -43t-23 -34.5t-34.5 -23t-42 -8.5q-23 0 -43 8.5t-35 23t-23.5 34.5t-8.5 43q0 22 8.5 42t23.5 35t35 24t43 9zM109 -282q45 13 85 36.5t70 53.5t47 65.5t17 72.5q0 21 -9 37.5t-23 16.5q-12 0 -20 -5l-17 -10.5
t-20.5 -10.5t-30.5 -5q-20 0 -38 8.5t-31.5 24t-21.5 36t-8 44.5q0 26 10.5 48t29.5 38.5t43.5 25.5t53.5 9q37 0 69 -16.5t56 -45t37.5 -66t13.5 -80.5q0 -68 -25.5 -125t-68 -99.5t-99.5 -68.5t-120 -30v46z" />
    <glyph glyph-name="less" unicode="&#x3c;" horiz-adv-x="1077" 
d="M1040 940v-101l-840 -361l840 -346v-101l-1007 418v56z" />
    <glyph glyph-name="equal" unicode="=" horiz-adv-x="1190" 
d="M90 692h1007v-102h-1007v102zM90 365h1007v-101h-1007v101z" />
    <glyph glyph-name="greater" unicode="&#x3e;" horiz-adv-x="1067" 
d="M1037 450l-1006 -418v101l839 346l-839 361v101l1006 -435v-56z" />
    <glyph glyph-name="question" unicode="?" horiz-adv-x="922" 
d="M407 310q0 87 16 154.5t40 124t51.5 106t51.5 100t40 106.5t16 126q0 65 -16 113t-45 80t-68.5 48t-85.5 16q-41 0 -75.5 -9.5t-59.5 -27t-39 -41t-14 -50.5q0 -29 10 -47t21.5 -33t21.5 -30.5t10 -39.5q0 -42 -23 -66.5t-56 -24.5q-23 0 -42.5 10.5t-33.5 29.5
t-22.5 45.5t-8.5 57.5q0 81 33 137.5t84.5 92t115 52t124.5 16.5q81 0 149.5 -21.5t118 -62t77.5 -99t28 -131.5q0 -72 -27.5 -133.5t-69 -118t-90 -111t-90 -111.5t-69 -120.5t-27.5 -137.5h-46zM438 188q22 0 42 -9t34.5 -24t23 -35t8.5 -42q0 -23 -8.5 -42.5t-23 -34.5
t-34.5 -23.5t-42 -8.5q-23 0 -43 8.5t-35 23.5t-23.5 34.5t-8.5 42.5q0 22 8.5 42t23.5 35t35 24t43 9z" />
    <glyph glyph-name="at" unicode="@" horiz-adv-x="1892" 
d="M1221 876l159 19l-182 -618q-11 -38 -18.5 -73t-7.5 -72q0 -39 15 -68t50 -29q44 0 91.5 23.5t92.5 66t85.5 101.5t71 130t48.5 151.5t18 165.5q0 135 -48.5 248t-131 194.5t-190.5 127.5t-227 46q-127 0 -239 -30t-206 -84.5t-168.5 -131.5t-126 -171t-79 -203
t-27.5 -227q0 -104 25 -202.5t72.5 -186t116 -160.5t155 -125.5t189.5 -82t220 -29.5q103 0 191.5 23t163.5 63t136.5 93.5t110.5 114.5t86.5 126t64.5 128l74 -20q-61 -138 -138.5 -250t-179 -191t-230.5 -122t-293 -43q-132 0 -246 31t-208.5 88t-168 137t-124 177.5
t-77 210.5t-26.5 235q0 129 31.5 246t90 217t141.5 180.5t186 137.5t224 87.5t255 30.5q145 0 269.5 -49t216 -139.5t144 -218t52.5 -283.5q0 -92 -19 -179.5t-53.5 -165t-82 -142t-104 -111.5t-120 -73t-129.5 -26q-42 0 -78 6.5t-62 23.5t-41 45.5t-15 72.5q0 32 3.5 67.5
t12.5 71.5q-6 -6 -11.5 -15.5t-11.5 -17.5l-77.5 -86.5t-84.5 -82t-90.5 -61.5t-94.5 -24q-47 0 -81 19.5t-55.5 52t-32 74t-10.5 86.5q0 67 21 146.5t58 158.5t88.5 153t112.5 131t129 91t139 34q31 0 56 -15t43.5 -38.5t30 -53.5t15.5 -60zM727 94q49 0 98.5 30.5t95 81.5
t85 116.5t68.5 134.5t46 137.5t17 124.5q0 28 -12.5 54t-31.5 46.5t-41.5 32.5t-41.5 12q-54 0 -104 -32.5t-93 -85.5t-79 -120.5t-61 -138t-39 -138t-14 -119.5q0 -21 4.5 -44.5t16.5 -44t32.5 -34t53.5 -13.5z" />
    <glyph glyph-name="A" unicode="A" horiz-adv-x="1327" 
d="M699 1356l624 -1356h-227l-202 442h-569l-209 -442h-112l639 1356h56zM364 528h489l-241 525z" />
    <glyph glyph-name="B" unicode="B" horiz-adv-x="1354" 
d="M180 1326h534q106 0 194.5 -23.5t152 -66.5t98.5 -103t35 -132q0 -55 -11 -98t-39 -79.5t-74.5 -69t-117.5 -66.5v-4q71 -11 128 -38t97.5 -68.5t62.5 -97t22 -121.5q0 -75 -32.5 -140.5t-93 -114t-146 -76.5t-191.5 -28h-619v1326zM403 729h284q67 0 119 19t88 52.5
t54.5 80t18.5 100.5q0 58 -22 105.5t-68.5 81.5t-118 52t-171.5 18h-184v-509zM403 97h241q97 0 168.5 18.5t118 52t69 80.5t22.5 103q0 63 -20 117t-65.5 93.5t-119 62.5t-180.5 23h-234v-550z" />
    <glyph glyph-name="C" unicode="C" horiz-adv-x="1589" 
d="M390 658q0 -139 42 -249.5t115.5 -187t173.5 -117t217 -40.5q70 0 135 27t120.5 70.5t99.5 98t72 110.5l94 -60q-41 -67 -97 -128.5t-129.5 -109t-166 -75.5t-206.5 -28q-165 0 -299.5 55t-230.5 149t-148.5 219.5t-52.5 265.5q0 93 24 181.5t69.5 166t111 142t148 111
t180.5 72t209 25.5q106 0 195.5 -28.5t163 -75.5t131 -108.5t98.5 -128.5l-97 -64q-83 161 -186 235.5t-237 74.5q-115 0 -215 -42t-174.5 -120t-117 -189.5t-42.5 -251.5z" />
    <glyph glyph-name="D" unicode="D" horiz-adv-x="1563" 
d="M180 1326h442q204 0 351 -38t245 -122q112 -96 168.5 -220t56.5 -271q0 -140 -50.5 -263t-148 -214.5t-241 -144.5t-328.5 -53h-495v1326zM403 97h237q112 0 211 37t172.5 110t116 179.5t42.5 246.5q0 123 -40 225.5t-112 176.5t-171.5 115t-217.5 41h-238v-1131z" />
    <glyph glyph-name="E" unicode="E" horiz-adv-x="1184" 
d="M1102 1326v-86h-699v-474h468v-86h-468v-594h699v-86h-922v1326h922z" />
    <glyph glyph-name="F" unicode="F" horiz-adv-x="1047" 
d="M1036 1326v-86h-647v-474h468v-86h-468v-680h-223v1326h870z" />
    <glyph glyph-name="G" unicode="G" horiz-adv-x="1622" 
d="M934 1261q-120 0 -221.5 -42.5t-175 -122t-114.5 -192t-41 -251.5q0 -140 44.5 -252.5t122 -191.5t182.5 -121.5t225 -42.5q87 0 157 23.5t126 67.5v465h-251v79h474v-583q-58 -31 -117 -55t-127.5 -40t-150.5 -24.5t-186 -8.5q-110 0 -209 24.5t-183.5 69.5
t-152.5 107.5t-115.5 138.5t-73.5 163.5t-26 180.5t24.5 181.5t70.5 167t112 143.5t149 112t181 73t208 26q105 0 194.5 -28.5t163 -75.5t130.5 -108.5t98 -128.5l-96 -64q-84 161 -186.5 235.5t-235.5 74.5z" />
    <glyph glyph-name="H" unicode="H" horiz-adv-x="1473" 
d="M403 636v-636h-223v1326h223v-604h666v604h223v-1326h-223v636h-666z" />
    <glyph glyph-name="I" unicode="I" horiz-adv-x="584" 
d="M180 1326h223v-1326h-223v1326z" />
    <glyph glyph-name="J" unicode="J" horiz-adv-x="924" 
d="M764 379q0 -72 -13 -142t-53 -126t-114 -90.5t-196 -34.5q-69 0 -124.5 13t-100.5 33.5t-81.5 46.5t-67.5 53l70 94l53 -45t67.5 -51.5t76 -42.5t79.5 -18q88 0 134.5 46t46.5 124v1087h223v-947z" />
    <glyph glyph-name="K" unicode="K" horiz-adv-x="1427" 
d="M180 1326h223v-588l698 588h145l-662 -558l840 -768h-284l-737 673v-673h-223v1326z" />
    <glyph glyph-name="L" unicode="L" horiz-adv-x="1090" 
d="M180 1326h223v-1240h668v-86h-891v1326z" />
    <glyph glyph-name="M" unicode="M" horiz-adv-x="1845" 
d="M180 1326h228l516 -1017h11l506 1017h224v-1326h-224v1087h-7l-544 -1087h-46l-550 1078h-15v-1078h-99v1326z" />
    <glyph glyph-name="N" unicode="N" horiz-adv-x="1462" 
d="M180 1326h125l869 -970h10v970h98v-1357h-52l-941 1078h-8v-1047h-101v1326z" />
    <glyph glyph-name="O" unicode="O" horiz-adv-x="1704" 
d="M852 -31q-154 0 -287.5 55t-232 150.5t-155 223t-56.5 272.5q0 95 25.5 183t72.5 164t113.5 138.5t147.5 107t175.5 69t196.5 24.5q103 0 197 -24.5t175.5 -69t147.5 -107t113.5 -138.5t73 -164t25.5 -183q0 -97 -25.5 -186t-73 -167t-113.5 -142t-147.5 -110t-175.5 -71
t-197 -25zM852 35q114 0 201.5 47.5t147.5 132.5t90.5 201t30.5 254q0 137 -30.5 251t-90.5 196.5t-147.5 128t-201.5 45.5q-116 0 -203.5 -45.5t-147 -128t-89.5 -196.5t-30 -251q0 -138 30 -254t89.5 -201t147 -132.5t203.5 -47.5z" />
    <glyph glyph-name="P" unicode="P" horiz-adv-x="1184" 
d="M180 1326h420q104 0 195 -25t158.5 -73.5t106 -119t38.5 -161.5q0 -90 -37.5 -157t-99 -111t-139.5 -65.5t-159 -21.5q-35 0 -73 1.5t-73 4.5t-65 7t-49 8v-613h-223v1326zM403 688q38 -13 81 -21.5t88 -8.5q72 0 126 21.5t90 59t53.5 88t17.5 107.5q0 67 -23 121
t-63.5 92.5t-95 59.5t-116.5 21h-158v-540z" />
    <glyph glyph-name="Q" unicode="Q" horiz-adv-x="1686" 
d="M1558 -415q-98 0 -194 18t-186 49t-172.5 72.5t-152.5 87t-125.5 93t-92.5 91.5q-113 28 -207.5 96t-162.5 160t-106 200.5t-38 217.5q0 142 55 267t152 218t229 147t287 54q154 0 286 -54t229 -147t152 -218t55 -267q0 -115 -41 -226.5t-113.5 -204.5t-173 -159.5
t-220.5 -90.5q22 -66 73.5 -132t123 -118.5t159.5 -85t184 -32.5v-36zM844 35q112 12 199.5 61.5t147.5 131t91.5 193t31.5 249.5q0 137 -31 251t-91 196.5t-147.5 128t-200.5 45.5q-116 0 -204 -45.5t-147 -128t-89 -196.5t-30 -251q0 -138 30 -254t89 -201t147 -132.5
t204 -47.5z" />
    <glyph glyph-name="R" unicode="R" horiz-adv-x="1280" 
d="M180 1326h460q119 0 209 -25.5t150 -71.5t90.5 -109.5t30.5 -138.5q0 -62 -23.5 -116t-66 -97.5t-102.5 -75t-132 -49.5l483 -643h-259l-461 623h-156v-623h-223v1326zM403 690h129q75 0 138.5 20t110 56.5t72.5 88.5t26 117q0 60 -20.5 110t-58 85.5t-89 55.5t-112.5 20
h-196v-553z" />
    <glyph glyph-name="S" unicode="S" horiz-adv-x="1204" 
d="M614 53q49 0 97 13.5t86 40t61 65t23 89.5q0 61 -31.5 108.5t-82.5 87t-116.5 74.5l-133.5 70t-133.5 73.5t-116.5 86t-82.5 106t-31.5 134.5t28.5 141t83.5 112.5t135.5 74.5t184.5 27q94 0 168 -20t130 -59t95 -96t63 -132l-114 -52q-20 61 -51 111.5t-74 86.5
t-99.5 55.5t-127.5 19.5q-63 0 -110 -17.5t-78.5 -46t-47 -64t-15.5 -72.5q0 -52 32 -95.5t85 -82t120.5 -74.5l137.5 -73t137.5 -77t120.5 -87.5t85 -104t32 -126.5q0 -79 -30 -148.5t-90 -121t-149 -81.5t-207 -30q-96 0 -171 21t-132.5 61t-98.5 97.5t-67 131.5l119 49
q21 -65 56.5 -116t82.5 -86.5t104.5 -54.5t122.5 -19z" />
    <glyph glyph-name="T" unicode="T" horiz-adv-x="1260" 
d="M1222 1326v-86h-480v-1240h-223v1240h-480v86h1183z" />
    <glyph glyph-name="U" unicode="U" horiz-adv-x="1464" 
d="M160 1326h223v-861q0 -85 29 -159.5t83 -130.5t130.5 -88.5t170.5 -32.5q95 0 171 32.5t129.5 88.5t82 130.5t28.5 159.5v861h98v-861q0 -102 -33 -192t-103.5 -157.5t-180.5 -107t-264 -39.5q-137 0 -242.5 39.5t-177 107.5t-108 159.5t-36.5 195.5v855z" />
    <glyph glyph-name="V" unicode="V" horiz-adv-x="1315" 
d="M239 1326l501 -1055l465 1055h106l-602 -1357h-58l-647 1357h235z" />
    <glyph glyph-name="W" unicode="W" horiz-adv-x="1825" 
d="M223 1326l396 -1008l348 910l359 -914l387 1012h108l-510 -1337h-66l-328 827l-314 -827h-76l-527 1337h223z" />
    <glyph glyph-name="X" unicode="X" horiz-adv-x="1321" 
d="M117 0h-117l559 654l-510 672h265l385 -509l434 509h118l-498 -582l565 -744h-267l-438 581z" />
    <glyph glyph-name="Y" unicode="Y" horiz-adv-x="1274" 
d="M230 1326l460 -672l458 672h121l-514 -753v-573h-223v552l-530 774h228z" />
    <glyph glyph-name="Z" unicode="Z" horiz-adv-x="1290" 
d="M1277 1326l-959 -1240h959v-86h-1259v33l931 1207h-931v86h1259z" />
    <glyph glyph-name="bracketleft" unicode="[" horiz-adv-x="612" 
d="M166 1356h438v-88h-282v-1556h282v-90h-438v1734z" />
    <glyph glyph-name="backslash" unicode="\" horiz-adv-x="516" 
d="M435 -31l-445 1387h92l444 -1387h-91z" />
    <glyph glyph-name="bracketright" unicode="]" horiz-adv-x="612" 
d="M10 -378v90h280v1556h-280v88h436v-1734h-436z" />
    <glyph glyph-name="asciicircum" unicode="^" horiz-adv-x="934" 
d="M8 639l429 717h62l429 -717h-124l-339 570l-341 -570h-116z" />
    <glyph glyph-name="underscore" unicode="_" horiz-adv-x="1065" 
d="M1071 -196v-88h-1071v88h1071z" />
    <glyph glyph-name="grave" unicode="`" horiz-adv-x="610" 
d="M340 1356l102 -344h-54l-294 344h246z" />
    <glyph glyph-name="a" unicode="a" horiz-adv-x="1075" 
d="M817 0q-40 20 -67.5 56.5t-27.5 83.5q-36 -27 -70.5 -56t-75 -52.5t-90 -38.5t-114.5 -15q-60 0 -108.5 19.5t-82 53.5t-52 81t-18.5 101q0 66 26 119t71.5 94.5t105.5 74t128 58t140 45.5t140 37v64q0 70 -10 118t-31 77.5t-53.5 42t-77.5 12.5q-43 0 -79 -17
t-63.5 -45.5t-45 -67t-23.5 -81.5h-186q8 66 45.5 118t94.5 87.5t129.5 54.5t150.5 19q100 0 168 -19.5t109 -54.5t58.5 -85.5t17.5 -111.5v-632q0 -47 27.5 -83.5t67.5 -56.5h-204zM722 596q-44 -14 -91 -32t-92 -40.5t-86 -48.5t-72 -56t-49 -63t-18 -69q0 -38 14 -71.5
t37 -59t53 -40t62 -14.5q34 0 65 9t60 24.5t58 35.5t59 43v382z" />
    <glyph glyph-name="b" unicode="b" horiz-adv-x="1253" 
d="M180 1489l144 57h60v-715q25 43 65.5 82t88 67.5t99 45.5t98.5 17q89 0 164 -36t129 -98t84.5 -144.5t30.5 -176.5q0 -127 -44.5 -238t-122 -193.5t-181.5 -130.5t-222 -48q-114 0 -214.5 30t-178.5 91v1390zM384 167q19 -18 41.5 -37t50.5 -34.5t62.5 -25t77.5 -9.5
q71 0 129 34.5t99.5 96t64 146t22.5 184.5q0 76 -23.5 142.5t-64 116t-95 78t-116.5 28.5q-35 0 -71.5 -10t-69.5 -27t-61 -39.5t-46 -48.5v-595z" />
    <glyph glyph-name="c" unicode="c" horiz-adv-x="1171" 
d="M852 736q-11 40 -30 81t-48.5 74.5t-69.5 54.5t-94 21q-69 0 -124 -28t-93 -76t-58 -112t-20 -136q0 -98 25.5 -185.5t72 -153.5t112 -104.5t146.5 -38.5q71 0 123.5 22.5t91 60.5t66.5 88.5t50 106.5l61 -25q-26 -96 -70 -172t-103.5 -128.5t-134 -80t-161.5 -27.5
q-101 0 -189 39.5t-153 108.5t-103 161t-38 197q0 77 19 148.5t53.5 133.5t83 113t107.5 87.5t126.5 56.5t140.5 20q61 0 117 -14t103 -39.5t83 -63t56 -83.5z" />
    <glyph glyph-name="d" unicode="d" horiz-adv-x="1262" 
d="M882 99q-35 -28 -76 -50.5t-85.5 -38t-89.5 -24t-88 -8.5q-90 0 -168.5 42t-137 113t-92.5 165.5t-34 199.5q0 104 42.5 202t115.5 174.5t170.5 122.5t208.5 46q75 0 130.5 -26t103.5 -69v540l143 58h59v-1546h-202v99zM882 698q0 60 -22.5 109.5t-58.5 85t-81.5 55
t-91.5 19.5q-61 0 -114 -30t-92.5 -84.5t-62.5 -130t-23 -166.5q0 -98 25 -183t68.5 -148.5t102 -100t125.5 -36.5q32 0 64.5 8.5t61.5 23t54.5 33.5t44.5 40v505z" />
    <glyph glyph-name="e" unicode="e" horiz-adv-x="1206" 
d="M613 -22q-104 0 -195.5 39t-159.5 106t-107.5 157.5t-39.5 192.5q0 123 36 227.5t102 180.5t158.5 119t206.5 43q100 0 184 -35.5t144.5 -95t94 -137.5t33.5 -163h-763q0 -103 26.5 -191t74.5 -152t114 -100t145 -36q66 0 127 21.5t110.5 56.5t84.5 80t49 93l59 -26
q-22 -79 -71 -148t-114.5 -120.5t-142.5 -81.5t-156 -30zM815 694q0 58 -20.5 108t-56.5 86.5t-84 57.5t-103 21q-46 0 -88 -20.5t-75 -57t-54.5 -86.5t-25.5 -108z" />
    <glyph glyph-name="f" unicode="f" horiz-adv-x="739" 
d="M604 1470q-33 0 -60.5 -17.5t-47 -46t-30 -65.5t-10.5 -76v-241h273v-87h-273v-937h-204v937h-213v87h213v118q0 84 30 157.5t81.5 128t121 86.5t148.5 32q54 0 104.5 -14t93.5 -39.5t76.5 -63t53.5 -83.5l-148 -107q-11 40 -26 81t-38 74.5t-58 54.5t-87 21z" />
    <glyph glyph-name="g" unicode="g" horiz-adv-x="1153" 
d="M1144 970v-86h-194q29 -41 47.5 -93.5t18.5 -103.5q0 -80 -35 -145t-97.5 -112t-149.5 -72.5t-192 -25.5q-39 0 -79.5 6t-70.5 16q-29 -24 -49 -55.5t-20 -63.5q0 -31 33.5 -49t95.5 -21l378 -17q91 -4 151.5 -21.5t96.5 -47t51 -69.5t15 -90q0 -89 -41.5 -161.5
t-119.5 -123.5t-190.5 -79t-254.5 -28q-127 0 -222 15t-158 42.5t-94 66t-31 86.5q0 42 21 80.5t54 74t73 68.5l79 63q-28 9 -52.5 21.5t-42.5 28.5t-28 34.5t-10 39.5q0 31 16.5 64.5t45 64t66 56t80.5 40.5q-103 44 -161.5 122.5t-58.5 180.5q0 75 34.5 142t95.5 117
t142.5 79t176.5 29q46 0 90.5 -6t83 -16t68 -23t46.5 -28h292zM323 8q-23 -17 -40 -38t-29 -44t-18 -46.5t-6 -44.5q0 -34 24 -65t72 -55t120.5 -38t168.5 -14q102 0 182.5 16t137 42.5t86 59t29.5 65.5q0 34 -17.5 59t-50.5 41t-80 24t-106 8q-74 0 -149 3.5t-140 8
t-114 10t-70 8.5zM576 385q43 0 83 19.5t70.5 53.5t48.5 79.5t18 98.5q0 75 -20.5 139.5t-55.5 112t-82 74.5t-99 27q-51 0 -88.5 -21t-61.5 -58.5t-35.5 -88t-11.5 -108.5q0 -69 17 -129t48 -104.5t74 -69.5t95 -25z" />
    <glyph glyph-name="h" unicode="h" horiz-adv-x="1217" 
d="M384 836q91 104 192 155.5t204 51.5q54 0 100.5 -24t81.5 -66t55 -98.5t20 -120.5v-734h-203v699q0 102 -46 154.5t-118 52.5q-32 0 -68 -11t-73 -30.5t-74 -46.5t-71 -60v-758h-204v1488l146 58h58v-710z" />
    <glyph glyph-name="i" unicode="i" horiz-adv-x="592" 
d="M196 985l143 58h59v-1043h-202v985zM180 1416q0 24 9 45t25 37t37 25t45 9t45 -9t37 -25t25 -37t9 -45t-9 -45t-25 -37t-37 -25t-45 -9t-45 9t-37 25t-25 37t-9 45z" />
    <glyph glyph-name="j" unicode="j" horiz-adv-x="582" 
d="M-107 -264q15 -27 34.5 -51t44.5 -42t55.5 -28.5t67.5 -10.5q24 0 43.5 8.5t33 28.5t21 53t7.5 83v1208l144 58h58v-1043q0 -153 -28 -246t-77.5 -143t-117.5 -66.5t-149 -16.5q-75 0 -145.5 31.5t-120.5 82.5zM185 1416q0 24 9 45t25 37t37 25t45 9t45 -9t37 -25t25 -37
t9 -45t-9 -45t-25 -37t-37 -25t-45 -9t-45 9t-37 25t-25 37t-9 45z" />
    <glyph glyph-name="k" unicode="k" horiz-adv-x="1092" 
d="M364 611l514 413h132l-459 -373l567 -651h-268l-486 560v-560h-204v1488l146 58h58v-935z" />
    <glyph glyph-name="l" unicode="l" horiz-adv-x="563" 
d="M384 0h-204v1488l145 58h59v-1546z" />
    <glyph glyph-name="m" unicode="m" horiz-adv-x="1919" 
d="M326 1043h58v-212q39 42 88 80.5t101 68t104 46.5t99 17q45 0 91.5 -16t86 -45t68 -68.5t37.5 -86.5q25 45 69.5 84.5t98.5 68.5t114.5 46t118.5 17t108.5 -25.5t88.5 -69t60 -102t22 -124.5v-722h-203v694q0 43 -14.5 81.5t-39.5 67.5t-58.5 46t-70.5 17
q-42 0 -85.5 -11.5t-82.5 -31.5t-71 -46.5t-51 -56.5v-760h-203v694q0 43 -15 81.5t-40 67.5t-59 46t-71 17q-39 0 -80.5 -12t-81 -32t-73.5 -46.5t-56 -55.5v-760h-204v986z" />
    <glyph glyph-name="n" unicode="n" horiz-adv-x="1217" 
d="M326 1043h58v-207q93 104 193 155.5t203 51.5q54 0 100.5 -24t81.5 -66t55 -98.5t20 -120.5v-734h-203v699q0 51 -12 89.5t-34 64.5t-51.5 39.5t-65.5 13.5q-32 0 -68 -11t-73.5 -30.5t-74.5 -46.5t-71 -60v-758h-204v986z" />
    <glyph glyph-name="o" unicode="o" horiz-adv-x="1300" 
d="M652 -22q-118 0 -217 41t-171 111.5t-112.5 165t-40.5 202.5q0 113 40.5 212.5t112.5 173.5t171 116.5t217 42.5q117 0 215.5 -39t170.5 -107t112.5 -159.5t40.5 -196.5q0 -116 -40.5 -218.5t-112.5 -179t-170.5 -121t-215.5 -44.5zM691 53q60 0 110 31t86 83.5t56 121.5
t20 146q0 111 -19 208t-62 169t-112 113.5t-168 41.5q-51 0 -99 -29.5t-84.5 -80.5t-58.5 -119.5t-22 -145.5q0 -112 23.5 -210t69 -171t111 -115.5t149.5 -42.5z" />
    <glyph glyph-name="p" unicode="p" horiz-adv-x="1268" 
d="M326 1043h58v-230q31 39 68.5 80t83 74.5t100.5 54.5t120 21q91 0 165 -38t126.5 -103t81 -152.5t28.5 -186.5q0 -127 -35 -234.5t-100 -185.5t-158 -121.5t-208 -43.5q-42 0 -78.5 4.5t-69 13.5t-63 23t-61.5 34v-484h-204v1417zM384 276q0 -46 20 -86.5t56 -71t86 -48
t110 -17.5q57 0 107.5 29t88 82.5t59 127.5t21.5 164q0 113 -20 197.5t-55.5 140.5t-84 84t-106.5 28q-44 0 -84.5 -13.5t-76.5 -36.5t-66.5 -53t-54.5 -63v-464z" />
    <glyph glyph-name="q" unicode="q" horiz-adv-x="1266" 
d="M885 160q-31 -33 -66.5 -66t-79.5 -58.5t-98 -41.5t-121 -16q-85 0 -159.5 38t-130 103t-87.5 153t-32 188q0 80 20 154.5t56 139.5t87 118t112.5 91t132.5 59t148 21q34 0 67.5 -6t63 -16.5t52.5 -24t35 -29.5l153 76h49v-1474h-202v591zM885 774q0 42 -18 73t-44 55
q-14 13 -35.5 25t-46 21t-50.5 14t-50 5q-66 0 -123.5 -31.5t-100.5 -86.5t-68 -128t-25 -155q0 -90 23.5 -169t64.5 -137.5t95.5 -92.5t117.5 -34q46 0 87.5 12t76 30.5t59.5 40.5t37 42v516z" />
    <glyph glyph-name="r" unicode="r" horiz-adv-x="885" 
d="M325 1043h31l27 -209q24 46 60 84t79.5 66t92 43.5t98.5 15.5q45 0 88.5 -12t81.5 -38l-64 -171q-20 22 -42 35.5t-45 21t-47 9.5t-48 2q-38 0 -74.5 -11t-69.5 -32.5t-61 -55t-49 -78.5v-713h-203v987z" />
    <glyph glyph-name="s" unicode="s" horiz-adv-x="987" 
d="M489 49q41 0 76 12.5t60.5 33.5t39.5 48.5t14 56.5q0 47 -23.5 82t-62 62.5t-87.5 50.5l-100 47.5t-100 52t-87.5 64.5t-62 85.5t-23.5 113.5q0 61 26 113.5t72.5 90.5t110.5 59.5t140 21.5q51 0 95 -7t86.5 -27t84.5 -57.5t89 -97.5l-75 -67q-58 95 -129.5 141.5
t-152.5 46.5q-44 0 -80 -10.5t-61.5 -29t-40 -43.5t-14.5 -53q0 -46 25.5 -80t67.5 -61.5t95.5 -50.5l109 -47t109 -52t95.5 -64.5t67.5 -84.5t25.5 -112q0 -65 -24 -121.5t-72.5 -98t-121.5 -65.5t-172 -24q-45 0 -92.5 7t-95.5 27.5t-96 57.5t-94 97l83 75
q37 -52 71 -88.5t69.5 -60t73 -34t81.5 -10.5z" />
    <glyph glyph-name="t" unicode="t" horiz-adv-x="813" 
d="M395 1372h58v-348h228v-87h-228v-721q0 -23 8.5 -43t23 -35t34.5 -23.5t44 -8.5q34 0 62 17t49 42l51 -34q-42 -71 -109 -112t-166 -41q-51 0 -89 17.5t-62.5 49t-36.5 75t-12 96.5v721h-178v38l178 49v291z" />
    <glyph glyph-name="u" unicode="u" horiz-adv-x="1233" 
d="M384 1024v-729q0 -38 17.5 -72t48.5 -59t71.5 -39.5t87.5 -14.5q30 0 64.5 13t67.5 35.5t61.5 53t48.5 64.5v748h202v-1024h-202v192q-27 -44 -67.5 -83t-87.5 -68t-97 -46t-95 -17q-67 0 -126 25t-103 68t-69.5 101t-25.5 123v729h204z" />
    <glyph glyph-name="v" unicode="v" horiz-adv-x="1042" 
d="M225 1024l362 -775l347 775h92l-461 -1035h-70l-483 1035h213z" />
    <glyph glyph-name="w" unicode="w" horiz-adv-x="1599" 
d="M233 1024l324 -748l321 748l323 -748l286 748h98l-418 -1035h-69l-286 669l-287 -669h-63l-448 1035h219z" />
    <glyph glyph-name="x" unicode="x" horiz-adv-x="969" 
d="M10 1024h240l708 -1024h-239zM121 0h-111l836 1024h112z" />
    <glyph glyph-name="y" unicode="y" horiz-adv-x="1092" 
d="M144 -242q12 -5 26.5 -13t32 -15.5t38.5 -12.5t47 -5q32 0 60 18t51 45t41 59t30 60l69 154l-523 976h231l394 -740l323 740h109l-523 -1204q-33 -75 -75.5 -130t-90.5 -91t-99 -53.5t-99 -17.5q-36 0 -70 11t-57 29z" />
    <glyph glyph-name="z" unicode="z" horiz-adv-x="1067" 
d="M20 53l736 885h-736v86h1025v-44l-753 -894h753v-86h-1025v53z" />
    <glyph glyph-name="braceleft" unicode="{" horiz-adv-x="639" 
d="M616 1322q-52 -5 -97.5 -29.5t-79 -63.5t-53 -90t-19.5 -107q0 -38 5 -69.5t10.5 -60l10.5 -54.5t5 -52q0 -48 -20.5 -97t-56.5 -92t-84 -76.5t-103 -50.5q55 -13 103 -45.5t84 -76.5t56.5 -96.5t20.5 -105.5q0 -32 -5 -59.5l-10.5 -55t-10.5 -57.5t-5 -66
q0 -59 19.5 -111t53 -91.5t79 -64.5t97.5 -29v-35q-80 0 -151 30.5t-124 83.5t-83.5 124t-30.5 151q0 29 4.5 56.5t10.5 56t10.5 60t4.5 69.5q0 48 -17.5 91t-48.5 74.5t-72 50t-88 18.5v47q47 0 88 18.5t72 50t48.5 74.5t17.5 91q0 42 -4.5 76t-10.5 63t-10.5 54t-4.5 49
q0 79 30.5 148t83.5 121t124 82t151 30v-34z" />
    <glyph glyph-name="bar" unicode="|" horiz-adv-x="332" 
d="M213 1346v-1776h-94v1776h94z" />
    <glyph glyph-name="braceright" unicode="}" horiz-adv-x="637" 
d="M23 1356q81 0 152 -30t124 -82t83.5 -121t30.5 -148q0 -24 -5 -49l-10.5 -54t-10.5 -63t-5 -76q0 -48 18 -91t48.5 -74.5t71.5 -50t88 -18.5v-47q-47 0 -88 -18.5t-71.5 -50t-48.5 -74.5t-18 -91q0 -38 5 -69.5t10.5 -60l10.5 -56t5 -56.5q0 -80 -30.5 -151t-83.5 -124
t-124 -83.5t-152 -30.5v35q52 4 97.5 29t79.5 64.5t53.5 91.5t19.5 111q0 36 -5 66t-10.5 57.5l-10.5 55t-5 59.5q0 53 20.5 105.5t56.5 96.5t84 76.5t103 45.5q-55 17 -103 50.5t-84 76.5t-56.5 92t-20.5 97q0 26 5 52l10.5 54.5t10.5 60t5 69.5q0 56 -19.5 107t-53.5 90
t-79.5 63.5t-97.5 29.5v34z" />
    <glyph glyph-name="asciitilde" unicode="~" horiz-adv-x="1069" 
d="M1050 633q0 -78 -19.5 -136.5t-55 -98t-85.5 -59.5t-112 -20q-56 0 -105 13.5t-92.5 33t-83.5 43t-77.5 43t-73.5 33t-73 13.5q-36 0 -70 -15t-61 -39.5t-45.5 -57t-24.5 -67.5h-47q0 76 20 135t58 98.5t92.5 60t123.5 20.5q44 0 90 -13.5t90.5 -33.5t88.5 -43l84.5 -43
t77 -33.5t68.5 -13.5q42 0 71.5 15t50.5 40t35.5 57.5t26.5 67.5h48z" />
    <glyph glyph-name="space" unicode=" " horiz-adv-x="420" 
 />
    <glyph glyph-name="uni0000" horiz-adv-x="0" 
 />
    <glyph glyph-name="uni0000" horiz-adv-x="0" 
 />
    <glyph glyph-name="copyright" unicode="&#xa9;" horiz-adv-x="1561" 
d="M783 1399q99 0 190 -25.5t169.5 -72t142.5 -111.5t109.5 -144t70.5 -169t25 -187q0 -100 -26 -191t-73 -169.5t-112.5 -142.5t-144 -109.5t-168 -70.5t-183.5 -25q-99 0 -190.5 25.5t-170.5 72t-143.5 111t-110.5 143.5t-71 169t-25 187t26.5 187.5t74.5 169.5t114 144
t145 111t168 71.5t183 25.5zM783 1284q-124 0 -232 -48.5t-188 -130.5t-126 -189.5t-46 -225.5q0 -82 22 -157t61 -141t94 -120t120.5 -92.5t140.5 -59.5t154 -21q78 0 152.5 21.5t140 60t120 92.5t94 119.5t61.5 141t22 156.5t-22 157t-61.5 142t-94 120.5t-120 93t-140 60
t-152.5 21.5zM1009 577l114 -36q-12 -61 -43 -108.5t-75 -80.5t-99.5 -50.5t-118.5 -17.5q-91 0 -161 32t-117.5 87.5t-72 128.5t-24.5 156q0 93 26.5 167.5t75.5 126t119.5 79t159.5 27.5q245 0 319 -220l-113 -28q-59 145 -211 145q-66 0 -112.5 -26t-76.5 -68t-44 -95.5
t-14 -108.5q0 -144 66 -217.5t180 -73.5q92 0 145 44t77 137z" />
    <glyph glyph-name="endash" unicode="&#x2013;" horiz-adv-x="975" 
d="M927 496h-874l-6 98h873z" />
    <glyph glyph-name="emdash" unicode="&#x2014;" horiz-adv-x="1579" 
d="M1529 496h-1474l-8 100h1474z" />
    <glyph glyph-name="quoteleft" unicode="&#x2018;" horiz-adv-x="457" 
d="M385 1375q-46 -13 -85.5 -36t-69 -53.5t-46.5 -65.5t-17 -72q0 -22 9 -38.5t21 -16.5q13 0 21.5 5t17.5 11t20.5 11t30.5 5q20 0 37.5 -8.5t31 -23.5t21.5 -36t8 -45q0 -26 -11 -48t-29.5 -38t-43 -25.5t-52.5 -9.5q-37 0 -69 16.5t-56 45t-38 66t-14 80.5q0 68 25.5 125
t68 99.5t99.5 68t120 29.5v-46z" />
    <glyph glyph-name="quoteright" unicode="&#x2019;" horiz-adv-x="457" 
d="M72 937q45 13 85 36t70 53.5t47 65.5t17 72q0 22 -9 38.5t-23 16.5q-12 0 -20 -5l-17 -11t-20.5 -11t-30.5 -5q-20 0 -38 8.5t-31.5 24t-21.5 36t-8 44.5q0 26 10.5 48.5t29.5 38.5t43.5 25t53.5 9q37 0 69 -16.5t56 -45t37.5 -66t13.5 -80.5q0 -68 -25.5 -125t-68 -99.5
t-99.5 -68t-120 -29.5v46z" />
    <glyph glyph-name="quotedblleft" unicode="&#x201c;" horiz-adv-x="817" 
d="M385 1375q-46 -13 -85.5 -36t-69 -53.5t-46.5 -65.5t-17 -72q0 -22 9 -38.5t21 -16.5q13 0 21.5 5t17.5 11t20.5 11t30.5 5q20 0 37.5 -8.5t31 -23.5t21.5 -36t8 -45q0 -26 -11 -48t-29.5 -38t-43 -25.5t-52.5 -9.5q-37 0 -69 16.5t-56 45t-38 66t-14 80.5q0 68 25.5 125
t68 99.5t99.5 68t120 29.5v-46zM746 1375q-45 -13 -85 -36t-69 -53.5t-46 -65.5t-17 -72q0 -22 8.5 -38.5t21.5 -16.5t21.5 5t17 11t20 11t30.5 5q20 0 37.5 -8.5t31 -23.5t21.5 -36t8 -45q0 -26 -10.5 -48t-29 -38t-43.5 -25.5t-53 -9.5q-37 0 -69 16.5t-56 45t-38 66
t-14 80.5q0 68 25.5 125t68.5 99.5t99.5 68t119.5 29.5v-46z" />
    <glyph glyph-name="quotedblright" unicode="&#x201d;" horiz-adv-x="817" 
d="M72 937q45 13 85 36t70 53.5t47 65.5t17 72q0 22 -9 38.5t-23 16.5q-12 0 -20 -5l-17 -11t-20.5 -11t-30.5 -5q-20 0 -38 8.5t-31.5 24t-21.5 36t-8 44.5q0 26 10.5 48.5t29.5 38.5t43.5 25t53.5 9q37 0 69 -16.5t56 -45t37.5 -66t13.5 -80.5q0 -68 -25.5 -125t-68 -99.5
t-99.5 -68t-120 -29.5v46zM433 937q46 13 86 36t69.5 53.5t46.5 65.5t17 72q0 22 -8.5 38.5t-22.5 16.5q-12 0 -20 -5l-17 -11t-20.5 -11t-30.5 -5q-21 0 -39 8.5t-31.5 24t-21.5 36t-8 44.5q0 26 11 48.5t29.5 38.5t43.5 25t54 9q37 0 69 -16.5t55.5 -45t37 -66t13.5 -80.5
q0 -68 -25 -125t-68 -99.5t-100 -68t-120 -29.5v46z" />
    <glyph glyph-name="bullet" unicode="&#x2022;" horiz-adv-x="702" 
d="M72 485q0 58 22 108.5t60 88.5t89 60t109 22t108.5 -22t88.5 -60t60 -88.5t22 -108.5q0 -57 -22 -107.5t-60 -88t-88.5 -59t-108.5 -21.5t-109 21.5t-89 59t-60 88t-22 107.5z" />
    <glyph glyph-name="NBSPACE" unicode="&#xa0;" horiz-adv-x="856" 
 />
    <glyph glyph-name="uni000D" unicode="&#xd;" horiz-adv-x="600" 
 />
    <glyph glyph-name="onequarter" unicode="&#xbc;" horiz-adv-x="1620" 
d="M1254 0v177h-349v94l366 435h132v-453h111v-76h-111v-177h-149zM1254 566l-265 -313h265v313zM225 1156q0 33 -1 53.5t-4.5 32t-10.5 15.5t-18 4q-17 0 -35 -6.5t-33 -14.5l-19 29l208 87h60v-705h-147v505zM335 -49h-109l948 1405h109z" />
    <glyph glyph-name="onehalf" unicode="&#xbd;" horiz-adv-x="1554" 
d="M321 -49h-108l947 1405h109zM937 35l71.5 53.5t80.5 66.5t80 75.5t69 80.5t48.5 83t18.5 82q0 30 -12 55t-32 43.5t-47.5 28.5t-58.5 10q-60 0 -98.5 -29t-57.5 -84h-47q7 42 28 79.5t53.5 65.5t75 44.5t92.5 16.5q117 0 182.5 -53.5t65.5 -153.5q0 -36 -17 -74
t-45 -75.5t-63.5 -74t-73.5 -69.5l-74.5 -62.5l-66.5 -52.5h340v-91h-512v35zM225 1156q0 33 -1 53.5t-4.5 32t-10.5 15.5t-18 4q-17 0 -35 -6.5t-33 -14.5l-19 29l208 87h60v-705h-147v505z" />
    <glyph glyph-name="threequarters" unicode="&#xbe;" horiz-adv-x="1704" 
d="M236 1039q34 0 65 6.5t54.5 22t37.5 40t14 60.5q0 54 -26.5 79.5t-83.5 25.5q-45 0 -75 -24.5t-54 -61.5l-56 18q31 71 91 111t143 40q34 0 67.5 -8.5t60 -26.5t43 -45.5t16.5 -65.5q0 -44 -26 -85t-63 -67q63 -21 97.5 -64.5t34.5 -112.5q0 -66 -28.5 -113t-75 -77
t-104.5 -44.5t-116 -14.5q-14 0 -39 3t-49 10.5t-42 20.5t-18 33q0 23 18 31t37 8t39 -6.5l41 -14t44.5 -13.5t50.5 -6q26 0 49 9.5t40 26t26.5 38.5t9.5 48q0 45 -16.5 75t-46.5 48t-71 25t-89 7v64zM410 -49h-89l947 1405h90zM1348 0v177h-348v94l374 435h111v-453h112
v-76h-112v-177h-137zM1348 570l-265 -317h265v317z" />
    <glyph glyph-name="uni200B" unicode="&#x200b;" horiz-adv-x="0" 
 />
    <glyph glyph-name="ZWNJ" unicode="&#x200c;" horiz-adv-x="0" 
 />
    <glyph glyph-name="ZWJ" unicode="&#x200d;" horiz-adv-x="0" 
 />
    <glyph glyph-name="uni20B9.rupee" unicode="&#x20b9;" horiz-adv-x="1019" 
d="M774 -30l-138 -52l-554 568l58 96q66 1 140.5 15t140 44t113 77t61.5 114h-532l48 91h482q-15 55 -61.5 95.5t-110.5 67t-138 39.5t-144 13h-76l48 92h816l-37 -92h-326q68 -38 116.5 -91.5t62.5 -123.5h184l-37 -91h-145q-10 -71 -52 -130t-108.5 -103.5t-153.5 -73
t-187 -37.5z" />
    <glyph glyph-name="uni2219" unicode="&#x2219;" horiz-adv-x="492" 
d="M245 753q22 0 42 -8.5t34.5 -22.5t23 -33.5t8.5 -41.5t-8.5 -41t-23 -33.5t-34.5 -23t-42 -8.5q-23 0 -43 8.5t-35 23t-23.5 33.5t-8.5 41t8.5 41.5t23.5 33.5t35 22.5t43 8.5z" />
    <glyph glyph-name="uni25CC" unicode="&#x25cc;" horiz-adv-x="1219" 
d="M257 979q0 29 20 51t53 22q30 0 49.5 -22t19.5 -51q0 -34 -19.5 -52.5t-49.5 -18.5q-33 0 -53 18.5t-20 52.5zM109 770q0 34 19 52.5t52 18.5q27 0 48 -18.5t21 -52.5q0 -33 -21 -52t-48 -19q-33 0 -52 19t-19 52zM80 530q0 34 20 52.5t51 18.5t52 -18.5t21 -52.5
q0 -29 -21 -49t-52 -20t-51 20t-20 49zM180 311q0 33 20 52t49 19t50 -19t21 -52q0 -31 -21 -51t-50 -20t-49 20t-20 51zM368 169q0 32 21 50.5t54 18.5q27 0 47 -18.5t20 -50.5q0 -33 -20 -52t-47 -19q-33 0 -54 19t-21 52zM612 140q0 29 19 50t50 21q33 0 52 -21t19 -50
q0 -33 -19 -53t-52 -20q-31 0 -50 20t-19 53zM839 238q0 33 19 53t50 20q34 0 52.5 -20t18.5 -53q0 -29 -18.5 -49t-52.5 -20q-31 0 -50 20t-19 49zM975 424q0 33 21 52t50 19q31 0 51 -19t20 -52q0 -29 -20 -50t-51 -21q-29 0 -50 21t-21 50zM996 678q0 34 20 52.5t49 18.5
q33 0 53 -18.5t20 -52.5q0 -33 -20 -52t-53 -19q-29 0 -49 19t-20 52zM902 906q0 25 20 48t51 23q27 0 49 -23t22 -48q0 -34 -22 -54.5t-49 -20.5q-31 0 -51 20.5t-20 54.5zM721 1031q0 29 20.5 50t54.5 21q29 0 47.5 -21t18.5 -50q0 -31 -18.5 -51t-47.5 -20
q-34 0 -54.5 20t-20.5 51zM485 1058q0 31 18.5 51t52.5 20q31 0 50 -20t19 -51t-19 -52t-50 -21q-34 0 -52.5 21t-18.5 52z" />
    <glyph glyph-name="bn_anji" unicode="&#x980;" horiz-adv-x="1017" 
d="M387 573q-55 0 -96.5 22.5t-69 58t-41.5 78t-14 83.5q0 74 23 138.5t63 112t93.5 75t113.5 27.5q61 0 112.5 -19.5t93 -53t73.5 -78t53 -94.5t32 -103t11 -102q0 -23 -2 -60.5t-8 -96t-16.5 -142t-26.5 -198.5q17 13 40 19.5t40 6.5q21 0 39 -8t31 -21.5t20.5 -31
t7.5 -36.5q0 -48 -26 -74t-77 -26q-41 0 -73 33.5t-53.5 92t-32.5 139t-11 173.5v85q-37 7 -66.5 9.5t-55.5 2.5t-47.5 -2l-42.5 -4l-42 -4t-45 -2zM688 717q0 168 -39 256.5t-109 88.5q-46 0 -97 -25.5t-94 -65t-71 -86.5t-28 -89q0 -26 9.5 -41.5t24.5 -23.5t33.5 -11
t36.5 -3q26 0 50 1.5l48 3l48.5 3t53.5 1.5t61.5 -2t72.5 -7z" />
    <glyph glyph-name="bn_chandrabindu" unicode="&#x981;" horiz-adv-x="0" 
d="M-232 1429q16 1 36 5.5t45.5 22.5t57 54.5t72.5 101.5q21 2 39 5q15 2 27.5 3.5t12.5 2.5q-12 -30 -27 -64t-34 -67.5t-42.5 -65t-51.5 -55t-62 -38t-73 -14.5q-40 0 -73.5 14.5t-61.5 38t-51.5 55t-42.5 65t-34 67.5t-27 64q0 -1 12 -2.5l27 -3.5q18 -3 40 -5
q40 -65 72 -101.5t57.5 -54.5t45.5 -22.5t36 -5.5zM-320 1646q0 18 7 33.5t19 27t28 18.5t34 7t34 -7t27.5 -18.5t18.5 -27t7 -33.5t-7 -33.5t-18.5 -27t-27.5 -18.5t-34 -7t-34 7t-28 18.5t-19 27t-7 33.5z" />
    <glyph glyph-name="bn_anusvar" unicode="&#x982;" horiz-adv-x="726" 
d="M142 939q0 49 18 92t49.5 75.5t73.5 51t90 18.5t90 -18.5t73.5 -51t50 -75.5t18.5 -92t-18.5 -92t-50 -75.5t-73.5 -51t-90 -18.5t-90 18.5t-73.5 51t-49.5 75.5t-18 92zM249 854q8 -13 26 -20t41 -7t48 7.5t50 22.5q38 24 57.5 56.5t19.5 59.5q0 17 -7 28
q-8 14 -26.5 21t-41.5 7q-22 0 -46 -6.5t-47 -21.5q-39 -24 -60 -58t-21 -62q0 -17 7 -27zM151 657q61 -21 129 -64t137 -119.5t135.5 -192t124.5 -281.5l-60 40q-32 61 -73.5 117.5t-89 106.5t-99 92.5t-101.5 74.5t-97 53.5t-87 29.5z" />
    <glyph glyph-name="bn_bisarga" unicode="&#x983;" horiz-adv-x="751" 
d="M142 939q0 49 18 92t49.5 75.5t73.5 51t90 18.5t90 -18.5t73.5 -51t50 -75.5t18.5 -92t-18.5 -92t-50 -75.5t-73.5 -51t-90 -18.5t-90 18.5t-73.5 51t-49.5 75.5t-18 92zM249 854q8 -13 26 -20t41 -7t48 7.5t50 22.5q38 24 57.5 56.5t19.5 59.5q0 17 -7 28
q-8 14 -26.5 21t-41.5 7q-22 0 -46 -6.5t-47 -21.5q-39 -24 -60 -58t-21 -62q0 -17 7 -27zM142 289q0 49 18 92t49.5 75.5t73.5 51t90 18.5t90 -18.5t73.5 -51t50 -75.5t18.5 -92t-18.5 -92t-50 -75.5t-73.5 -51t-90 -18.5t-90 18.5t-73.5 51t-49.5 75.5t-18 92zM249 204
q8 -13 26 -20t41 -7t48 7.5t50 22.5q38 24 57.5 56.5t19.5 59.5q0 17 -7 28q-8 14 -26.5 21t-41.5 7q-22 0 -46 -6.5t-47 -21.5q-39 -24 -60 -58t-21 -62q0 -17 7 -27z" />
    <glyph glyph-name="bn_a" unicode="&#x985;" horiz-adv-x="1415" 
d="M1435 1230v-116h-190v-1114l-56 49q-27 90 -54 152t-56 105t-59.5 73t-63.5 57q-40 -66 -112.5 -109.5t-169.5 -43.5q-91 0 -163.5 37t-130.5 99t-102 142.5t-78 167t-59 173.5l-45 161l69 -28q19 -70 43.5 -142t56 -138.5t71 -125.5t89.5 -102.5t111.5 -68.5t137.5 -25
q46 0 83 19t63 49.5t40.5 68.5t14.5 76q0 33 -3.5 71.5t-20 77t-51.5 75.5t-98 69q16 -32 16 -65q0 -27 -10 -51t-27.5 -41.5t-40.5 -28t-48 -10.5q-24 0 -49.5 8.5t-46 25.5t-34 42t-13.5 57q0 61 45 99t118 38q96 0 170 -30t124.5 -81.5t76.5 -120t26 -145.5
q0 -15 -2.5 -36.5t-4.5 -35.5l68 -87t51 -82v719h-1121v116h1435z" />
    <glyph glyph-name="bn_aa" unicode="&#x986;" horiz-adv-x="1889" 
d="M1189 49q-27 90 -54 152t-56 105t-59.5 73t-63.5 57q-40 -66 -112.5 -109.5t-169.5 -43.5q-91 0 -163.5 37t-130.5 99t-102 142.5t-78 167t-59 173.5l-45 161l69 -28q19 -70 43.5 -142t56 -138.5t71 -125.5t89.5 -102.5t111.5 -68.5t137.5 -25q46 0 83 19t63 49.5
t40.5 68.5t14.5 76q0 33 -3.5 71.5t-20 77t-51.5 75.5t-98 69q16 -32 16 -65q0 -27 -10 -51t-27.5 -41.5t-40.5 -28t-48 -10.5q-24 0 -49.5 8.5t-46 25.5t-34 42t-13.5 57q0 61 45 99t118 38q96 0 170 -30t124.5 -81.5t76.5 -120t26 -145.5q0 -15 -2.5 -36.5t-4.5 -35.5
l68 -87t51 -82v719h-1121v116h1595v216l124 -111v-105h190v-116h-190v-1114l-124 80v1034h-350v-1114z" />
    <glyph glyph-name="bn_i" unicode="&#x987;" horiz-adv-x="971" 
d="M991 1230v-116h-649q9 -7 24.5 -21.5t29.5 -37.5q73 0 141 -22t121 -63t85 -99.5t32 -132.5q0 -68 -31 -121t-79.5 -90.5t-107.5 -58.5t-114 -24l93.5 -44t99.5 -55t109.5 -82.5t123.5 -126.5l52 -135q-90 99 -183.5 169t-188.5 116.5t-190.5 72.5t-191.5 37l-85 236
q17 -2 43.5 -11.5l60 -21t72 -20.5t79.5 -9q40 0 90 14t94 40t74 63.5t30 85.5t-15.5 82t-42 57.5t-62 36.5t-75.5 18q17 -22 23.5 -48t6.5 -46q0 -35 -13.5 -62.5t-36 -47t-51 -30t-59.5 -10.5q-29 0 -57 11t-50 31t-35 49t-13 64q0 34 12.5 61t33.5 47.5t49 34.5t60 22
q-5 15 -20.5 35t-43.5 36h-236v116h534q30 16 43.5 35.5t13.5 33.5q0 30 -23 46.5t-60.5 25t-85.5 13t-97.5 10t-97.5 16t-85.5 31.5t-60.5 55.5t-23 89.5q0 25 13.5 55t44.5 57l36 -28q-25 -21 -30.5 -37.5t-5.5 -30.5q0 -27 25.5 -42.5t67 -24.5t94 -13.5t107.5 -10.5
t108 -16t94.5 -29.5t66.5 -50.5t25 -80q0 -18 -6 -33.5t-15 -28.5t-20 -23.5l-21 -19.5h349z" />
    <glyph glyph-name="bn_ii" unicode="&#x988;" horiz-adv-x="1172" 
d="M574 651q55 69 99 116t82 78.5t71.5 50t68.5 32.5l130 -135q-59 -121 -84.5 -231.5t-25.5 -226.5q0 -78 10 -160t27 -175l-73 50q-28 110 -45 219.5t-17 215.5q0 65 7.5 128t24.5 122q-16 -7 -38 -30.5t-49.5 -57l-60.5 -74l-69.5 -81.5t-76.5 -79.5t-82 -68.5t-86.5 -48
t-89.5 -18q-49 0 -87.5 23t-65.5 58.5t-43 77t-20 78.5l66 39q9 -23 20 -45.5t25.5 -40t33.5 -28.5t43 -11q57 0 100 29.5t72 74t43.5 97.5t14.5 100q0 38 -7.5 72t-25.5 59.5t-48 40t-74 14.5q-6 0 -17.5 -1t-19.5 -3q29 -20 48.5 -52.5t19.5 -66.5q0 -67 -39.5 -102
t-99.5 -35q-29 0 -56 11t-47 31t-32 49t-12 64q0 33 11 59.5t29.5 46.5t44 34.5t55.5 22.5q-2 15 -7.5 34.5t-14 39t-20 37t-25.5 29.5h-162v116h724q30 16 43.5 35.5t13.5 33.5q0 30 -23 46.5t-60.5 25t-85.5 13t-97.5 10t-97.5 16t-85.5 31.5t-60.5 55.5t-23 89.5
q0 25 13.5 55t44.5 57l36 -28q-25 -21 -30.5 -37.5t-5.5 -30.5q0 -27 25.5 -42.5t67 -24.5t94 -13.5t107.5 -10.5t108 -16t94.5 -29.5t66.5 -50.5t25 -80q0 -18 -6 -33.5t-15 -28.5t-20 -23.5l-21 -19.5h360v-116h-897q20 -29 30.5 -66t12.5 -60q55 0 100 -16t77.5 -46
t50 -73.5t17.5 -97.5q0 -68 -9 -104z" />
    <glyph glyph-name="bn_u" unicode="&#x989;" horiz-adv-x="1254" 
d="M1274 1230v-116h-653v-402q0 -26 21 -26q15 0 46.5 16t69 47.5t74.5 77t63 105.5q52 -39 89.5 -84.5t62 -95t36 -100.5t11.5 -100q0 -95 -37.5 -169.5t-97 -125.5t-133 -78t-146.5 -27q-122 0 -225.5 51.5t-182 156.5t-128 263.5t-62.5 371.5l64 -38q5 -71 22.5 -146.5
t48 -147.5t74 -136.5t100 -113t126 -77t152.5 -28.5q61 0 123.5 23t112 62.5t81 93t31.5 114.5q0 18 -2.5 39.5t-8.5 43.5t-17 44t-29 41q-32 -61 -72.5 -108t-82.5 -79t-83.5 -48.5t-75.5 -16.5q-83 0 -116 54t-33 158v385h-497v116h749q30 16 43.5 35.5t13.5 33.5
q0 30 -23 46.5t-60.5 25t-85.5 13t-97.5 10t-97.5 16t-85.5 31.5t-60.5 55.5t-23 89.5q0 25 13.5 55t44.5 57l36 -28q-25 -21 -30.5 -37.5t-5.5 -30.5q0 -27 25.5 -42.5t67 -24.5t94 -13.5t107.5 -10.5t108 -16t94.5 -29.5t66.5 -50.5t25 -80q0 -18 -6 -33.5t-15 -28.5
t-20 -23.5l-21 -19.5h417z" />
    <glyph glyph-name="bn_uu" unicode="&#x98a;" horiz-adv-x="1399" 
d="M528 308q-64 52 -117 119.5t-91.5 152.5t-60.5 188t-25 227l64 -38q3 -75 19.5 -152.5t47 -149.5t75 -135.5t101.5 -110.5t127 -74t153 -27q61 0 123.5 23t112 62.5t81 93t31.5 114.5q0 18 -2.5 39.5t-8.5 43.5t-17 44t-29 41q-32 -61 -72.5 -108t-82.5 -79t-83.5 -48.5
t-75.5 -16.5q-83 0 -116 54t-33 158v385h-649v116h901q30 16 43.5 35.5t13.5 33.5q0 30 -23 46.5t-60.5 25t-85.5 13t-97.5 10t-97.5 16t-85.5 31.5t-60.5 55.5t-23 89.5q0 25 13.5 55t44.5 57l36 -28q-25 -21 -30.5 -37.5t-5.5 -30.5q0 -27 25.5 -42.5t67 -24.5t94 -13.5
t107.5 -10.5t108 -16t94.5 -29.5t66.5 -50.5t25 -80q0 -18 -6 -33.5t-15 -28.5t-20 -23.5l-21 -19.5h410v-116h-646v-402q0 -26 21 -26q15 0 46.5 16t69 47.5t74.5 77t63 105.5q52 -39 89.5 -84.5t62 -95t36 -100.5t11.5 -100q0 -95 -40 -169.5t-106.5 -125.5t-151.5 -78
t-175 -27q-81 0 -161 15t-154 49t-138.5 89.5t-114 137t-81.5 191t-40 251.5l64 -38q6 -104 38 -195.5t83.5 -163t118 -118.5t140.5 -62z" />
    <glyph glyph-name="bn_ri" unicode="&#x98b;" horiz-adv-x="1375" 
d="M717 826q-57 -15 -115.5 -41.5t-111 -57.5t-95.5 -63t-70 -57q46 -18 100.5 -44.5t108.5 -66.5t102 -96.5t81 -133.5v560zM1205 1335v-105h190v-116h-190v-1014l-60 40q-20 51 -54 98t-75.5 90t-87 81.5t-87.5 70.5v-480l-60 40q-34 88 -88.5 165.5t-124 139t-151 104.5
t-169.5 62l-154 118q83 68 155 120.5t141 93.5t139.5 72.5t150.5 57.5q-3 32 -13.5 56.5t-22.5 41.5t-23 27.5t-17 15.5q-24 -59 -64 -93.5t-83 -52.5t-82.5 -23t-62.5 -5q-54 0 -99.5 13.5t-78.5 37t-52 55.5t-19 68q0 24 7 45t21 36.5t35.5 25t51.5 9.5q19 0 38.5 -8.5
t35.5 -22.5t25.5 -33t9.5 -40q0 -5 -2 -19.5t-7 -31.5t-15 -33.5t-26 -24.5h7q37 0 72.5 12t67 37.5t56.5 66t42 97.5q81 -23 142 -65.5t93 -88.5v370l124 -111v-713q30 -22 57 -45.5t55.5 -55t59 -74t68.5 -101.5v1100z" />
    <glyph glyph-name="bn_li" unicode="&#x98c;" horiz-adv-x="1100" 
d="M940 394q0 -83 -34.5 -148t-94 -113t-140 -81t-172.5 -52l-44 42q35 17 61 60.5t26 104.5q0 40 -10.5 78t-34.5 67.5t-63 47t-95 17.5q-39 0 -73 -20t-59 -52t-39.5 -71.5t-14.5 -78.5q0 -30 10 -54q15 33 31.5 53t32.5 30.5t30.5 14t25.5 3.5q18 0 36.5 -9t33.5 -25
t25 -36.5t10 -42.5q0 -63 -29 -95.5t-79 -32.5q-51 0 -89 20.5t-62.5 55.5t-36.5 81t-12 98q0 60 18.5 117.5t54 102t86 72t115.5 27.5q76 0 136.5 -29.5t102.5 -78t64.5 -111t22.5 -129.5q0 -27 -3 -54.5t-11 -54.5q24 5 52.5 21t54 41.5t42.5 61t17 79.5q0 43 -32.5 87.5
t-85 89.5t-120.5 91l-138.5 94l-138 98t-120 102t-85 106.5t-32.5 112.5q0 26 8.5 49t24 40.5t38 28t49.5 10.5q46 0 76 -28.5t30 -71.5q0 -27 -15 -47t-36.5 -33t-44.5 -19.5t-39 -6.5q18 -17 61 -39.5l100.5 -50.5l125 -61.5t135 -72.5t130 -83.5t111 -95t77.5 -107.5
t29 -120z" />
    <glyph glyph-name="bn_e" unicode="&#x98f;" horiz-adv-x="1182" 
d="M1012 0l-64 40q-33 40 -68 63.5t-73.5 36t-80.5 16t-90 3.5q-60 0 -120 -5t-114 -5q-75 0 -134.5 21t-101 58.5t-63.5 89t-22 112.5q0 41 10 84t31 89l41 -41q-9 -24 -13 -45t-4 -40q0 -51 27 -83t69 -50t93.5 -24t101.5 -6q29 0 58.5 0.5t58.5 0.5q51 0 100.5 -7.5
t93.5 -26t80 -50t60 -80.5v849q0 45 -31 66.5t-85 21.5q-31 0 -78.5 -11t-102.5 -42t-112 -87t-106 -146q41 42 76 57t70 15t61 -12.5t43.5 -32t26.5 -44.5t9 -49q0 -34 -13 -60t-34.5 -43t-50.5 -26t-61 -9q-41 0 -73.5 14.5t-55 38.5t-34.5 55.5t-12 66.5q0 64 22 123
t59 110t86.5 92.5t103.5 70.5t110 45t107 16q43 0 79.5 -7t63 -28.5t41.5 -61.5t15 -106v-1027z" />
    <glyph glyph-name="bn_ai" unicode="&#x990;" horiz-adv-x="1369" 
d="M1012 970q31 0 56.5 12t43 31.5t27 43.5t9.5 47q0 64 -28 104.5t-74 67t-104.5 43.5t-120 33t-120 36t-104.5 52.5t-74 81.5t-28 124q0 51 31.5 104t100.5 95l32 -62q-38 -17 -64.5 -43.5t-26.5 -64.5q0 -41 28.5 -67.5t75 -46t105.5 -35.5t121 -36t121 -47t105.5 -68.5
t75 -100.5t28.5 -144q0 -42 -14.5 -84.5t-42.5 -78.5t-68 -61t-91 -31v-875l-64 40q-33 40 -68 63.5t-73.5 36t-80.5 16t-90 3.5q-60 0 -120 -5t-114 -5q-75 0 -134.5 21t-101 58.5t-63.5 89t-22 112.5q0 41 10 84t31 89l41 -41q-9 -24 -13 -45t-4 -40q0 -51 27 -83t69 -50
t93.5 -24t101.5 -6q29 0 58.5 0.5t58.5 0.5q51 0 100.5 -7.5t93.5 -26t80 -50t60 -80.5v849q0 45 -31 66.5t-85 21.5q-31 0 -78.5 -11t-102.5 -42t-112 -87t-106 -146q41 42 76 57t70 15t61 -12.5t43.5 -32t26.5 -44.5t9 -49q0 -34 -13 -60t-34.5 -43t-50.5 -26t-61 -9
q-41 0 -73.5 14.5t-55 38.5t-34.5 55.5t-12 66.5q0 64 22 123t59 110t86.5 92.5t103.5 70.5t110 45t107 16q43 0 79.5 -7t63 -28.5t41.5 -61.5t15 -106v-57z" />
    <glyph glyph-name="bn_o" unicode="&#x993;" horiz-adv-x="1441" 
d="M1178 650q23 -26 41 -55.5t30 -60.5t18 -61.5t6 -57.5q0 -87 -36 -153.5t-92 -111.5t-125 -67.5t-136 -22.5q-75 0 -149.5 18.5t-146.5 61t-141 113.5t-133 175.5t-122.5 246.5t-109.5 328l89 -62q33 -95 69 -185t79.5 -170.5t96.5 -148t119 -116t147.5 -76t181.5 -27.5
q55 0 108.5 17t96 49.5t68.5 78.5t26 103q0 35 -5 69t-20 66q-27 -36 -62 -57t-76 -21q-25 0 -49 9t-43.5 27t-31.5 44.5t-12 61.5q0 32 12.5 57.5t32 43t44.5 27t49 9.5q41 0 79 -24t59 -56q18 35 24.5 69t6.5 63q0 53 -22 94.5t-58.5 70.5t-84.5 44.5t-99 15.5
q-32 0 -71.5 -4t-82 -15t-86.5 -30.5t-83.5 -50.5t-72 -76t-54.5 -106q38 19 71.5 31t59.5 12q38 0 64 -14.5t41.5 -34.5t22.5 -42.5t7 -37.5q0 -24 -7.5 -48.5t-23.5 -44.5t-41 -32.5t-60 -12.5q-89 0 -133.5 57t-44.5 152q0 73 23.5 135t62.5 111.5t90 87.5t105.5 63
t109 38t101.5 13q79 0 143.5 -24t110.5 -70t71.5 -113.5t25.5 -153.5q0 -100 -78 -219z" />
    <glyph glyph-name="bn_au" unicode="&#x994;" horiz-adv-x="1638" 
d="M1178 650q23 -26 41 -55.5t30 -60.5t18 -61.5t6 -57.5q0 -87 -36 -153.5t-92 -111.5t-125 -67.5t-136 -22.5q-75 0 -149.5 18.5t-146.5 61t-141 113.5t-133 175.5t-122.5 246.5t-109.5 328l89 -62q33 -95 69 -185t79.5 -170.5t96.5 -148t119 -116t147.5 -76t181.5 -27.5
q55 0 108.5 17t96 49.5t68.5 78.5t26 103q0 35 -5 69t-20 66q-27 -36 -62 -57t-76 -21q-25 0 -49 9t-43.5 27t-31.5 44.5t-12 61.5q0 32 12.5 57.5t32 43t44.5 27t49 9.5q41 0 79 -24t59 -56q18 35 24.5 69t6.5 63q0 53 -22 94.5t-58.5 70.5t-84.5 44.5t-99 15.5
q-32 0 -71.5 -4t-82 -15t-86.5 -30.5t-83.5 -50.5t-72 -76t-54.5 -106q38 19 71.5 31t59.5 12q38 0 64 -14.5t41.5 -34.5t22.5 -42.5t7 -37.5q0 -24 -7.5 -48.5t-23.5 -44.5t-41 -32.5t-60 -12.5q-89 0 -133.5 57t-44.5 152q0 73 23.5 135t62.5 111.5t90 87.5t105.5 63
t109 38t101.5 13q79 0 143.5 -24t110.5 -70t71.5 -113.5t25.5 -153.5q0 -54 -22 -111q32 10 67 31.5t64 51.5t47.5 68t18.5 82q0 64 -28 109.5t-74 80t-104.5 61.5l-119.5 53.5t-119.5 56.5t-104.5 70.5t-74 94.5t-28 129q0 51 31.5 104t100.5 95l32 -62
q-38 -17 -64.5 -43.5t-26.5 -64.5q0 -41 28.5 -70.5t75 -53.5t105.5 -46.5l121 -48.5t121 -59t105.5 -79.5t75 -108.5t28.5 -147q0 -73 -15 -130.5t-41 -101.5t-59.5 -75.5t-71 -53t-75.5 -34t-72 -17.5z" />
    <glyph glyph-name="bn_ka" unicode="&#x995;" horiz-adv-x="1330" 
d="M777 0l-60 40q-34 88 -81 165.5t-107 139t-133.5 104.5t-161.5 62l-154 188q63 72 138.5 128t152 95t150 60.5t132.5 24.5v107h-653v116h1380v-116h-603v-107q74 0 148 -30t133 -85.5t95.5 -134.5t36.5 -177q0 -54 -14.5 -96.5t-39.5 -72t-58.5 -45.5t-71.5 -16
q-29 0 -54 10.5t-43.5 29t-29.5 42.5t-11 51q0 57 38 92t98 35q13 0 30 -4t33.5 -14.5t29.5 -28.5t18 -47q9 9 14 27.5t5 33.5q0 77 -34.5 130.5t-87.5 86.5t-116 48t-119 15v-857zM653 857q-54 -5 -101.5 -18t-93.5 -36t-93 -58.5t-100 -85.5q123 -43 222.5 -140.5
t165.5 -252.5v591z" />
    <glyph glyph-name="bn_kha" unicode="&#x996;" horiz-adv-x="1202" 
d="M768 899q0 -64 -25 -112t-64 -83t-86 -58t-91 -38q36 -15 86.5 -43t105.5 -70t111 -99t103 -131v1181l124 -111v-105h190v-116h-190v-1114l-60 40q-29 82 -91 159t-143 140t-174 108t-183 63l-150 189q33 0 79 8.5t95.5 24.5t98 38.5t87 50t62.5 60.5t24 70q0 58 -22 99
t-51 64q-27 -66 -66.5 -105.5t-84 -59.5t-89.5 -26t-83 -6q-45 0 -81.5 11.5t-63 31t-41 45t-14.5 54.5q0 57 31.5 87.5t91.5 30.5q18 0 37 -7t35 -21t26 -34.5t10 -47.5q0 -5 -3 -19t-9.5 -30.5t-17.5 -32t-27 -23.5h7q37 0 69.5 20.5t60.5 56.5t50.5 85t39.5 106
q57 -16 109 -46t91 -72t62.5 -96t23.5 -117z" />
    <glyph glyph-name="bn_ga" unicode="&#x997;" horiz-adv-x="1054" 
d="M760 1446l124 -111v-105h190v-116h-190v-1114l-124 80v734q-52 68 -96 118t-86 83t-86 49t-97 16q-36 0 -67 -10t-54 -28t-36 -43.5t-13 -56.5q0 -4 0.5 -11.5t2.5 -11.5q7 4 20 9.5t30 10t36.5 7.5t37.5 3q46 0 81.5 -14.5t60 -39.5t37 -58t12.5 -70q0 -34 -14 -68.5
t-36 -67.5t-49 -63.5t-51.5 -54.5t-44 -41l-27.5 -24l-109 105q116 92 178 160t62 110q0 31 -22 46.5t-57 15.5q-24 0 -54.5 -11t-61 -27t-58 -33.5t-45.5 -30.5q-38 32 -56 78t-18 84q0 58 22.5 110t63 91t97.5 61.5t125 22.5q54 0 104.5 -23.5t98 -62.5t90 -90t79.5 -107
v499z" />
    <glyph glyph-name="bn_gha" unicode="&#x998;" horiz-adv-x="1025" 
d="M0 1230h1045v-116h-190v-1114l-60 40q-34 88 -86.5 155t-120 116t-147 81.5t-167.5 51.5l-145 149l77.5 56.5t82.5 66l80 69.5t71 68q-15 -8 -33 -14t-36.5 -11t-36 -7.5t-32.5 -2.5q-45 0 -85 13t-70.5 37t-48.5 58.5t-18 77.5q0 30 13 59.5t38 50.5h-131v116zM587 838
q-35 -40 -62.5 -68.5l-54.5 -54l-57.5 -53l-73.5 -66.5q46 -14 100 -42t107 -69.5t101.5 -96t83.5 -122.5v848h-435q-33 -23 -48 -49.5t-15 -60.5q0 -23 10.5 -43t28.5 -35t43 -23.5t54 -8.5q44 0 75.5 10t49.5 26z" />
    <glyph glyph-name="bn_nga" unicode="&#x999;" horiz-adv-x="1199" 
d="M614 614q41 0 77.5 14t65.5 35t49 44.5t29 43.5q75 -46 122.5 -80t74.5 -67t36.5 -69.5t9.5 -86.5q0 -54 -19 -99.5t-50.5 -82.5t-73 -65t-86 -47t-89.5 -28.5t-84 -9.5q-108 0 -190.5 32t-143.5 87.5t-104 130t-71 160.5t-44.5 178.5t-25.5 183.5l61 -47q10 -66 27 -134
t43.5 -132t64 -120.5t89.5 -98.5t120.5 -66.5t156.5 -24.5q57 0 116.5 18.5t108.5 51.5t80.5 77.5t31.5 97.5q0 19 -6 33.5t-15.5 24.5t-20.5 16.5t-20 8.5q-30 -52 -72 -81t-83 -43.5t-74.5 -17.5t-46.5 -3q-44 0 -85 20.5t-72.5 60.5t-51 97.5t-19.5 132.5q0 23 1.5 47
t3.5 47q-53 25 -99.5 58.5t-86 69.5t-71 71l-54.5 62l103 116q56 -85 115.5 -144.5t121.5 -96.5q16 50 40 94t56 76.5t72 51.5t88 19q45 0 84 -12t68 -37.5t45.5 -64.5t16.5 -92q0 -54 -24.5 -94.5t-66.5 -67.5t-97.5 -40.5t-117.5 -13.5q-23 0 -49.5 4.5t-48.5 9.5
q-9 -23 -10.5 -35.5t-1.5 -28.5q0 -29 7.5 -55t21 -45.5t30.5 -31.5t37 -12zM701 919q34 0 64.5 6.5t53 19.5t35.5 33t13 48q0 17 -8 29t-19.5 20t-24.5 11.5t-23 3.5q-73 0 -125.5 -43.5t-85.5 -110.5q30 -9 60.5 -13t59.5 -4z" />
    <glyph glyph-name="bn_ca" unicode="&#x99a;" horiz-adv-x="987" 
d="M305 334q0 -22 3 -35.5t8.5 -21t13.5 -10.5t17 -3q21 0 53.5 18.5t69 48t73.5 66.5t67 75t48.5 72.5t18.5 58.5q0 14 -21 36t-54 49l-74.5 59.5l-83 67.5t-78.5 73t-61 76v-630zM305 1071q45 -54 103 -99.5t118 -84.5l118 -74t103 -69t72.5 -68.5t27.5 -72.5
q0 -33 -27.5 -83.5t-71.5 -106.5t-100 -112.5t-112.5 -101.5t-108.5 -73.5t-89 -28.5q-35 0 -64 11.5t-50 30t-32.5 43.5t-11.5 52v880h-180v116h1037v-116h-732v-43z" />
    <glyph glyph-name="bn_cha" unicode="&#x99b;" horiz-adv-x="1111" 
d="M581 949q23 0 50.5 3.5l55.5 7l54.5 7t47.5 3.5q36 0 73.5 -10.5t67.5 -35t49.5 -66t19.5 -103.5q0 -93 -35 -174.5t-97.5 -146t-147 -109.5t-183.5 -66q51 -12 112.5 -33t126.5 -55.5t129 -84t120 -117.5v-70q-80 72 -175.5 120.5t-192.5 80t-188.5 49.5t-163.5 30
l-112 207q32 -11 64 -15.5t65 -4.5q118 0 220 39t177.5 101.5t118.5 140.5t43 156q0 22 -9.5 36t-23 21t-29 9.5t-27.5 2.5q-29 0 -58.5 -9t-52.5 -15q-6 -83 -39.5 -144t-81 -101t-103 -59t-105.5 -19q-37 0 -68.5 12t-54 37.5t-35.5 66t-13 96.5v377h-180v116h1161v-116
h-857q21 -35 53.5 -65t70 -52t77.5 -35t76 -13zM304 737q6 -40 19 -57.5t45 -17.5q28 0 60.5 8.5t61.5 29.5t50.5 55.5t26.5 86.5q-21 0 -57 9t-74.5 28.5t-74 50t-57.5 73.5v-266z" />
    <glyph glyph-name="bn_ja" unicode="&#x99c;" horiz-adv-x="1355" 
d="M1375 1114h-630q5 -33 26.5 -62t53.5 -51t72.5 -34.5t83.5 -12.5q35 0 70.5 9.5t68.5 29.5l154 -166q-33 -29 -61.5 -75.5t-49 -106.5t-32.5 -131.5t-12 -150.5q0 -86 16 -177.5t51 -185.5q-1 0 -18 6l-37.5 13.5l-37.5 13.5l-17 6l-32 121.5t-25.5 111t-16.5 104
t-6 100.5q0 82 18 167.5t59 186.5q-45 -12 -94 -12q-57 0 -114.5 16t-108.5 45t-92.5 70t-66.5 91q-15 -10 -37 -29t-46.5 -43.5t-49 -52.5t-44 -55t-31.5 -51.5t-12 -42.5q0 -43 24 -60.5t60 -17.5q33 0 72 11.5t75 28t65 35t43 32.5q42 -24 72.5 -56t51 -68.5t30 -77
t9.5 -80.5q0 -60 -20.5 -117t-59.5 -101.5t-95 -71.5t-128 -27q-97 0 -171 35.5t-129 94t-92.5 134t-60 156.5t-32.5 161.5t-10 148.5v29l61 -44q1 -117 30.5 -219t84 -177t131.5 -118.5t172 -43.5q35 0 79 13.5t83 38t65.5 58t26.5 74.5q0 23 -10.5 48t-33.5 51l-48 -24.5
t-55.5 -25.5t-58.5 -20t-57 -8q-72 0 -120 15.5t-77 45t-41 71t-12 93.5q0 66 15.5 121t36.5 97t43.5 71t36.5 42h-433v116h1375v-116z" />
    <glyph glyph-name="bn_jha" unicode="&#x99d;" horiz-adv-x="1361" 
d="M703 883q-58 -13 -120 -40.5t-119 -62t-104.5 -73t-76.5 -74.5q61 -21 125 -57.5t121 -84t103 -105t71 -120.5v617zM827 622q30 -22 57 -45.5t55.5 -55t59 -74t68.5 -101.5v1100l124 -111v-105h190v-116h-190v-1014l-60 40q-20 51 -54 98t-75.5 90t-87 81.5t-87.5 70.5
v-480l-60 40q-34 88 -88.5 165.5t-124 139t-151 104.5t-169.5 62l-154 188q87 79 162.5 137t148.5 100t148.5 70t163.5 48v60h-703v116h827v-608z" />
    <glyph glyph-name="bn_nya" unicode="&#x99e;" horiz-adv-x="1595" 
d="M1007 744q18 -51 45.5 -96t62 -78t75.5 -52.5t87 -19.5q24 0 47 6t41 19t29 34.5t11 52.5q0 16 -6.5 41t-29.5 49q-26 -34 -53 -43.5t-53 -9.5q-11 0 -27 4.5t-30.5 15.5t-25 29.5t-10.5 47.5t10.5 47.5t25 29.5t30.5 15.5t27 4.5q26 0 53 -9.5t53 -43.5q23 24 29.5 49
t6.5 41q0 31 -11 52.5t-29 34.5t-41 19t-47 6q-46 0 -87 -19.5t-75.5 -52.5t-62 -78t-45.5 -96zM1012 951q29 55 61.5 93t67 62t70.5 34.5t71 10.5q39 0 77 -15t68.5 -43t49.5 -67.5t19 -88.5q0 -37 -8.5 -68t-22 -55t-29.5 -41.5t-31 -28.5q15 -11 31 -28.5t29.5 -41.5
t22 -55t8.5 -68q0 -49 -19 -88.5t-49.5 -67.5t-68.5 -43t-77 -15q-35 0 -71 10.5t-70.5 34.5t-67 62t-61.5 93v-537l-64 40q-33 40 -68 63.5t-73.5 36t-80.5 16t-90 3.5q-60 0 -120 -5t-114 -5q-75 0 -134.5 21t-101 58.5t-63.5 89t-22 112.5q0 41 10 84t31 89l41 -41
q-9 -24 -13 -45t-4 -40q0 -51 27 -83t69 -50t93.5 -24t101.5 -6q29 0 58.5 0.5t58.5 0.5q51 0 100.5 -7.5t93.5 -26t80 -50t60 -80.5v849q0 45 -31 66.5t-85 21.5q-31 0 -78.5 -11t-102.5 -42t-112 -87t-106 -146q41 42 76 57t70 15t61 -12.5t43.5 -32t26.5 -44.5t9 -49
q0 -34 -13 -60t-34.5 -43t-50.5 -26t-61 -9q-41 0 -73.5 14.5t-55 38.5t-34.5 55.5t-12 66.5q0 64 22 123t59 110t86.5 92.5t103.5 70.5t110 45t107 16q43 0 79.5 -7t63 -28.5t41.5 -61.5t15 -106v-76z" />
    <glyph glyph-name="bn_tta" unicode="&#x99f;" horiz-adv-x="967" 
d="M1017 1230v-116h-713v-727q0 -23 6.5 -43.5t19.5 -36t31 -25t42 -9.5q35 0 75 13t80 36t77 54t65.5 67t45.5 75t17 78q0 5 -2 13q-34 -35 -66.5 -50.5t-62.5 -15.5q-32 0 -59 12t-46.5 32t-31 47t-11.5 56q0 33 11.5 62t32 51t47.5 35t59 13q58 0 95.5 -26t59.5 -65.5
t30 -87.5t8 -92q0 -117 -41 -207t-105 -151.5t-141.5 -93t-150.5 -31.5q-11 0 -31 2.5t-43 11t-47 24.5t-43.5 42.5t-32 66t-12.5 95.5v775h-180v116h581q30 16 43.5 35.5t13.5 33.5q0 30 -23 46.5t-60.5 25t-85.5 13t-97.5 10t-97.5 16t-85.5 31.5t-60.5 55.5t-23 89.5
q0 25 13.5 55t44.5 57l36 -28q-25 -21 -30.5 -37.5t-5.5 -30.5q0 -27 25.5 -42.5t67 -24.5t94 -13.5t107.5 -10.5t108 -16t94.5 -29.5t66.5 -50.5t25 -80q0 -18 -6 -33.5t-15 -28.5t-20 -23.5l-21 -19.5h328z" />
    <glyph glyph-name="bn_ttha" unicode="&#x9a0;" horiz-adv-x="982" 
d="M1032 1230v-116h-461q49 -67 97.5 -140.5t87 -149t62.5 -151t24 -147.5q0 -84 -23.5 -162t-71 -137t-119 -94.5t-167.5 -35.5q-83 0 -152.5 27t-119.5 74.5t-78.5 112t-28.5 138.5q0 59 16 106q67 21 124.5 61.5t98.5 96.5t64.5 124.5t23.5 144.5q0 69 -24 132h-385v116
h381q-34 46 -63.5 93t-51.5 93.5t-34.5 93.5t-12.5 95q0 64 26 128.5t87 131.5l130 -96q-56 -54 -80 -108.5t-24 -111.5q0 -77 37.5 -157t93.5 -162h543zM535 898q0 -77 -22 -147.5t-63.5 -130t-102 -105t-137.5 -72.5q0 -98 62 -155.5t179 -57.5q65 0 117.5 22.5t89 63.5
t56 97t19.5 124q0 61 -19 128.5t-50 133t-69 125.5t-76 108q6 -27 9 -45.5t4.5 -32.5t2 -27t0.5 -29z" />
    <glyph glyph-name="bn_dda" unicode="&#x9a1;" horiz-adv-x="1236" 
d="M1286 1114h-664v-457q0 -26 21 -26q15 0 46.5 16t69 47.5t74.5 77t63 105.5q52 -39 89.5 -84.5t62 -95t36 -100.5t11.5 -100q0 -95 -31.5 -169.5t-86 -125.5t-127.5 -78t-157 -27q-123 0 -229 60.5t-186.5 175.5t-131 282t-63.5 380l64 -38q5 -71 23 -150.5t50 -158
t77 -150t104 -126t132 -87t160 -32.5q73 0 133 23t103 62.5t66 93t23 114.5q0 18 -2.5 39.5t-8.5 43.5t-17 44t-29 41q-32 -61 -72.5 -108t-82.5 -79t-83.5 -48.5t-75.5 -16.5q-83 0 -116 54t-33 158v440h-498v116h1286v-116z" />
    <glyph glyph-name="bn_ddha" unicode="&#x9a2;" horiz-adv-x="967" 
d="M1017 1114h-713v-727q0 -23 6.5 -43.5t19.5 -36t31 -25t42 -9.5q35 0 75 13t80 36t77 54t65.5 67t45.5 75t17 78q0 5 -2 13q-34 -35 -66.5 -50.5t-62.5 -15.5q-32 0 -59 12t-46.5 32t-31 47t-11.5 56q0 33 11.5 62t32 51t47.5 35t59 13q58 0 95.5 -26t59.5 -65.5
t30 -87.5t8 -92q0 -117 -41 -207t-105 -151.5t-141.5 -93t-150.5 -31.5q-11 0 -31 2.5t-43 11t-47 24.5t-43.5 42.5t-32 66t-12.5 95.5v775h-180v116h1017v-116z" />
    <glyph glyph-name="bn_nna" unicode="&#x9a3;" horiz-adv-x="1016" 
d="M348 1090q-37 0 -75 -12.5t-68.5 -36t-50 -58.5t-19.5 -80q0 -18 4 -35.5t12 -25.5q6 27 19 44.5t29.5 27t34 13t32.5 3.5q57 -3 93 -38.5t36 -95.5q0 -26 -11.5 -49t-31 -40t-45.5 -27t-56 -10q-36 0 -67.5 17t-54.5 48.5t-36 75t-13 96.5q0 67 18 125.5t51.5 102.5
t81.5 69.5t108 25.5q49 0 101.5 -23.5t102.5 -62.5t96 -90t83 -107v499l124 -111v-105h190v-116h-190v-1114l-124 80v756q-86 118 -177.5 186t-196.5 68z" />
    <glyph glyph-name="bn_ta" unicode="&#x9a4;" horiz-adv-x="1294" 
d="M1121 1114h-1121v116h1344v-116h-223zM765 97q-110 0 -198 45t-157 118.5t-121 167.5t-89 192.5t-61 193.5t-38 171l58 -27q20 -74 47.5 -155t64 -160t83.5 -151t106 -126.5t132 -86.5t161 -32q79 0 132 27.5t85.5 70.5t46 96.5t13.5 106.5q0 56 -8.5 110t-32 101.5
t-64.5 85t-106 60.5q14 -18 29 -45.5t15 -57.5q0 -27 -13.5 -49.5t-35.5 -38.5t-48.5 -25t-51.5 -9q-24 0 -52 9.5t-52 28t-40 46.5t-16 65q0 34 15 62.5t41 49.5t60 32.5t73 11.5q96 0 172 -37.5t129 -99.5t81.5 -141.5t28.5 -162.5q0 -105 -31.5 -187.5t-85 -140.5
t-124 -88.5t-148.5 -30.5z" />
    <glyph glyph-name="bn_tha" unicode="&#x9a5;" horiz-adv-x="1077" 
d="M391 561q40 -18 90.5 -45t103.5 -63.5t104.5 -83t93.5 -104.5v1181l124 -111v-105h190v-116h-190v-1114l-60 40q-38 86 -103.5 160t-148 133t-177.5 101.5t-191 65.5l-148 162q54 1 111.5 10t113 25.5t105.5 40.5t87.5 54.5t59.5 67t22 79.5q0 42 -21 75t-53.5 55
t-72 33.5t-77.5 11.5q-58 0 -107 -21.5t-91 -78.5q10 4 23 10t26 11t24.5 9t19.5 4q42 0 66.5 -15t38 -35.5t17.5 -40.5t4 -30q0 -25 -11.5 -46t-29.5 -36.5t-41 -24.5t-46 -9q-33 0 -58.5 14.5t-43 37.5t-27 52.5t-9.5 59.5q0 62 23.5 109.5t61 80t85 49t94.5 16.5
q64 0 114.5 -25.5t85 -67.5t52.5 -95.5t18 -108.5q0 -65 -15.5 -118.5t-47 -98.5t-79 -83.5t-110.5 -71.5z" />
    <glyph glyph-name="bn_da" unicode="&#x9a6;" horiz-adv-x="1043" 
d="M1063 1114h-759v-491q42 58 99.5 111t121 97t128 76.5t120.5 47.5l166 -122q-62 -124 -86 -238.5t-24 -229.5q0 -47 3 -90t8 -87t13 -90t18 -98l-73 50q-32 128 -53.5 242t-21.5 228q0 62 7 124.5t24 128.5q-50 -15 -112 -52t-124 -90.5t-118.5 -122t-95.5 -146.5
l-124 159v593h-180v116h1063v-116z" />
    <glyph glyph-name="bn_dha" unicode="&#x9a7;" horiz-adv-x="995" 
d="M826 1114v-1114l-60 40q-34 88 -88.5 165.5t-124 139t-151 104.5t-169.5 62l-154 188l83 73.5l78 64.5q-32 12 -58.5 34t-46.5 50.5t-31 63t-11 71.5q0 34 12 65.5t33 55.5t50 38.5t62 14.5q28 0 52.5 -10.5t42.5 -28.5t28.5 -41.5t10.5 -49.5q0 -27 -12 -51t-30.5 -41
t-42 -27t-47.5 -10q-21 0 -43.5 9t-42.5 35q7 -26 22 -48t34.5 -38.5t42.5 -27t47 -12.5q94 64 187.5 103t202.5 62v176h313v-116h-189zM702 903q-69 -8 -134 -34.5t-121 -62.5t-100.5 -76t-72.5 -74q42 -18 99.5 -52t117.5 -83.5t116 -113t95 -141.5v637z" />
    <glyph glyph-name="bn_na" unicode="&#x9a8;" horiz-adv-x="1071" 
d="M355 710q32 -20 52 -56t20 -84q0 -26 -12 -53t-33.5 -49t-51.5 -35.5t-65 -13.5q-31 0 -63.5 10.5t-59.5 34t-44.5 59.5t-17.5 87q0 55 22.5 98t58.5 72t82 44t93 15q58 0 109.5 -16t95.5 -43t81.5 -62t67 -73.5t51.5 -78t36 -74.5v622h-777v116h1091v-116h-190v-1114
l-124 80v257q-35 79 -85 147t-107 118t-116.5 79t-113.5 29z" />
    <glyph glyph-name="bn_pa" unicode="&#x9aa;" horiz-adv-x="1256" 
d="M962 1446l124 -111v-105h190v-116h-190v-1114l-124 80v608l-14 23l-75 116t-75 104l-333 -344l-125 60l34 35l34 36q26 49 26 93q0 52 -33 82.5t-82 30.5q-23 0 -49 -7.5t-52 -24.5q1 0 -20 8.5l-46.5 19l-46.5 19.5t-21 10q33 59 76.5 110t93.5 89t107 60t117 22
q90 0 156 -30t121 -85t104 -132t103 -171v634zM518 1114q-43 0 -80 -14.5t-66.5 -34.5t-49 -41t-27.5 -34q25 6 49 6q34 0 62 -11.5t48.5 -31t32 -45.5t11.5 -56q0 -16 -5 -38l215 215q-45 40 -91.5 62.5t-98.5 22.5z" />
    <glyph glyph-name="bn_pha" unicode="&#x9ab;" horiz-adv-x="1453" 
d="M870 0l-60 40q-57 105 -125.5 173t-140.5 111t-144.5 66t-137.5 38l-144 171q31 37 71 78t88.5 80.5t105.5 76t123 65.5q-63 58 -136 98.5t-143 66.5t-130 38t-97 12l-59 116h1532v-116h-1094q36 -21 76.5 -59t78.5 -83t69.5 -93t49.5 -88q-50 -19 -99 -46t-94 -58
t-85 -64.5t-70 -65.5q61 -21 114.5 -44t106 -55.5t106 -78.5t114.5 -113v683h124q88 0 168.5 -31t141.5 -86.5t97 -132.5t36 -169q0 -54 -14.5 -96.5t-39.5 -72t-58.5 -45.5t-71.5 -16q-29 0 -54 10.5t-43.5 29t-29.5 42.5t-11 51q0 57 38 92t98 35q13 0 30 -4t33.5 -14.5
t29.5 -28.5t18 -47q9 9 14 27.5t5 33.5q0 72 -37.5 123.5t-95 84.5t-125.5 48.5t-129 15.5v-799z" />
    <glyph glyph-name="bn_ba" unicode="&#x9ac;" horiz-adv-x="998" 
d="M704 889q-43 -2 -88 -16.5t-88 -36.5t-83 -48.5t-73 -53t-57 -51t-36 -40.5q44 -17 101.5 -49t116.5 -79t113.5 -109t93.5 -140v623zM0 1114v116h1018v-116h-190v-1114l-60 40q-34 88 -88.5 165.5t-124 139t-151 104.5t-169.5 62l-154 188q76 79 148.5 138.5t147 102.5
t154.5 71t173 43v60h-704z" />
    <glyph glyph-name="bn_bha" unicode="&#x9ad;" horiz-adv-x="1355" 
d="M1405 1114h-1405v116h1405v-116zM782 60q-46 0 -101.5 18.5t-116 61t-124.5 113.5t-126.5 175.5t-121.5 246.5t-110 328l89 -62q33 -95 69.5 -185t79 -170.5t91 -148t105.5 -116t123 -76t143 -27.5q68 0 119.5 21t89.5 54.5t63.5 77t41 88t22 86.5t6.5 74q0 12 -1.5 28
t-4.5 33.5t-8 34t-12 28.5q-57 -46 -108.5 -73.5t-97 -42t-85.5 -19t-73 -4.5q-48 0 -90 15t-73.5 42t-50 65t-18.5 84q0 35 12 65t33.5 51.5t50 34t61.5 12.5q31 0 58.5 -11t48.5 -30.5t33 -46t12 -57.5q0 -58 -30.5 -96t-79.5 -57q62 8 111 29t86 48.5t64 59t45 61t28 55
t14 41.5q53 -32 85.5 -74t50.5 -87t24 -88.5t6 -78.5q0 -72 -10.5 -143t-32 -135.5t-56 -120t-82.5 -96t-111 -63.5t-141 -23z" />
    <glyph glyph-name="bn_ma" unicode="&#x9ae;" horiz-adv-x="1159" 
d="M932 40q-18 63 -49 126t-76.5 120.5t-106 106.5t-138.5 84q-26 -52 -59.5 -71t-85.5 -19q-21 0 -47.5 8.5t-49.5 27t-39 48.5t-16 72q0 25 8.5 51.5t27 48.5t47 35.5t68.5 13.5q29 0 55.5 -12t42.5 -25q0 61 -21.5 117t-59 104t-87.5 88t-107.5 70.5t-118.5 50.5t-120 29
l-55 116h1234v-116h-190v-1114zM614 692q0 -28 -3 -49t-7 -41q48 -34 117 -92.5t144 -156.5v761h-529q56 -24 106.5 -70.5t88.5 -105t60.5 -122.5t22.5 -124z" />
    <glyph glyph-name="bn_ya" unicode="&#x9af;" horiz-adv-x="1036" 
d="M742 1114h-367q36 -21 76.5 -59t78.5 -83t69.5 -93t49.5 -88q-50 -19 -99 -46t-94 -58t-85 -64.5t-70 -65.5q61 -21 114.5 -44t106 -55.5t106 -78.5t114.5 -113v848zM502 899q-63 58 -134 97t-139.5 64t-128.5 37.5t-100 16.5l-59 116h1115v-116h-190v-1114l-60 40
q-57 105 -125.5 173t-140.5 111t-144.5 66t-137.5 38l-144 171q31 37 71 78t88.5 80.5t105.5 76t123 65.5z" />
    <glyph glyph-name="bn_ra" unicode="&#x9b0;" horiz-adv-x="998" 
d="M704 889q-43 -2 -88 -16.5t-88 -36.5t-83 -48.5t-73 -53t-57 -51t-36 -40.5q44 -17 101.5 -49t116.5 -79t113.5 -109t93.5 -140v623zM0 1114v116h1018v-116h-190v-1114l-60 40q-34 88 -88.5 165.5t-124 139t-151 104.5t-169.5 62l-154 188q76 79 148.5 138.5t147 102.5
t154.5 71t173 43v60h-704zM260 103q0 21 8 40t22 33.5t33 22.5t40 8t40 -8t33.5 -22.5t22.5 -33.5t8 -40t-8 -40t-22.5 -33t-33.5 -22t-40 -8t-40 8t-33 22t-22 33t-8 40z" />
    <glyph glyph-name="bn_la" unicode="&#x9b2;" horiz-adv-x="1179" 
d="M1009 1114v-1114l-124 80v503q-9 23 -23.5 50t-33.5 50.5t-41 39.5t-46 16q-26 0 -47 -14.5t-36.5 -36t-25.5 -47.5t-14 -49h-50q-26 41 -51 69t-52.5 45.5t-59 25t-69.5 7.5q-28 0 -60.5 -12.5t-60 -36.5t-46 -59t-18.5 -79q0 -34 9 -59t21.5 -43t26 -29t21.5 -17
q-16 36 -16 68q0 28 11 50.5t28.5 38t39 23.5t42.5 8q29 0 54.5 -10t44 -27.5t29 -41t10.5 -51.5q0 -29 -11.5 -53.5t-32.5 -42t-49.5 -27.5t-62.5 -10q-46 0 -88.5 20t-75.5 56.5t-52.5 87.5t-19.5 114q0 65 20.5 117.5t56 89t83.5 56t104 19.5q43 0 81.5 -14.5t70 -39.5
t56 -60t38.5 -75q4 37 18 71t33.5 60.5t44 42t51.5 15.5t50.5 -15t42.5 -39t33 -54.5t22 -61.5v395h-885v116h1199v-116h-190z" />
    <glyph glyph-name="bn_sha" unicode="&#x9b6;" horiz-adv-x="1182" 
d="M888 1446l124 -111v-105h190v-116h-190v-1114l-124 80v727q-17 44 -44.5 94t-62.5 92.5t-75 70.5t-80 28q-16 0 -32 -7t-29.5 -19.5t-23.5 -28.5t-14 -34q23 -18 49.5 -42.5t48.5 -53.5t36.5 -61.5t14.5 -67.5q0 -66 -37 -101.5t-92 -35.5q-45 0 -82 30t-69 84
q-10 -24 -27.5 -45t-39 -36.5t-47 -24t-51.5 -8.5q-29 0 -51.5 11t-38.5 29.5t-24.5 42.5t-8.5 50q0 34 15 67.5t39.5 63.5t56 55t64.5 43q-15 42 -36 64.5t-44 33t-46.5 12t-43.5 1.5h-113v116h111q41 0 83.5 -15t79 -42.5t65 -66t40.5 -84.5q23 95 81 151.5t148 56.5
q28 0 58 -15.5t58.5 -40.5t55 -56t48.5 -62.5t37.5 -60t22.5 -48.5v499z" />
    <glyph glyph-name="bn_ssa" unicode="&#x9b7;" horiz-adv-x="1037" 
d="M0 1114l-59 116h1116v-116h-190v-1114l-60 40q-61 105 -129.5 173t-140 110.5t-142.5 66t-136 38.5l-144 171q28 34 66.5 72.5t85 77t100 74.5t111.5 66q-44 38 -101 77t-120 71.5t-129.5 53.5t-127.5 23zM302 557q61 -21 117.5 -47.5t110.5 -61t107 -79t106 -103.5v339
l-76.5 88.5l-67.5 75.5q-43 -20 -85 -45t-80.5 -53t-72 -57t-59.5 -57zM743 1114h-391q59 -31 116.5 -82.5t108.5 -110.5t94 -120t72 -110v423z" />
    <glyph glyph-name="bn_sa" unicode="&#x9b8;" horiz-adv-x="1201" 
d="M-55 1230h1276v-116h-190v-1114l-124 80v558q-13 21 -30.5 41t-37 35.5t-40 25t-38.5 9.5q-41 0 -73 -26t-60 -65.5t-54 -85.5t-54.5 -85.5t-62.5 -65.5t-77 -26q-54 0 -93 22.5t-68.5 58t-51.5 78t-40 81.5l54 46q8 -20 20.5 -42t28.5 -40t35 -30t40 -12q30 0 57 19
t52.5 49.5t50 68l49.5 74.5q-24 65 -62.5 116t-85 88.5t-97 63.5t-100 43t-93.5 25t-76 10zM704 921q28 0 57 -20t56.5 -48t50.5 -59l39 -53v373h-532q23 -16 48 -39t50 -57t47.5 -79.5t41.5 -105.5q32 38 66 63t76 25z" />
    <glyph glyph-name="bn_ha" unicode="&#x9b9;" horiz-adv-x="1015" 
d="M1065 1230v-116h-714q9 -7 24.5 -21.5t29.5 -37.5q73 0 141 -22t121 -63t85 -99.5t32 -132.5q0 -68 -31 -121t-79.5 -90.5t-107.5 -58.5t-114 -24l93.5 -44t99.5 -55t109.5 -82.5t123.5 -126.5l52 -135q-90 99 -183.5 169t-188.5 116.5t-190.5 72.5t-191.5 37l-85 236
q17 -2 43.5 -11.5l60 -21t72 -20.5t79.5 -9q40 0 90 14t94 40t74 63.5t30 85.5t-15.5 82t-42 57.5t-62 36.5t-75.5 18q17 -22 23.5 -48t6.5 -46q0 -35 -13.5 -62.5t-36 -47t-51 -30t-59.5 -10.5q-29 0 -57 11t-50 31t-35 49t-13 64q0 34 12.5 61t33.5 47.5t49 34.5t60 22
q-5 15 -20.5 35t-43.5 36h-245v116h1065z" />
    <glyph glyph-name="bn_nukta" unicode="&#x9bc;" horiz-adv-x="480" 
d="M160 103q0 21 8 40t22 33.5t33 22.5t40 8t40 -8t33.5 -22.5t22.5 -33.5t8 -40t-8 -40t-22.5 -33t-33.5 -22t-40 -8t-40 8t-33 22t-22 33t-8 40z" />
    <glyph glyph-name="bn_avagraha" unicode="&#x9bd;" horiz-adv-x="1015" 
d="M351 1230v-116q9 -7 24.5 -21.5t29.5 -37.5q73 0 141 -22t121 -63t85 -99.5t32 -132.5q0 -68 -31 -121t-79.5 -90.5t-107.5 -58.5t-114 -24l93.5 -44t99.5 -55t109.5 -82.5t123.5 -126.5l52 -135q-90 99 -183.5 169t-188.5 116.5t-190.5 72.5t-191.5 37l-85 236
q17 -2 43.5 -11.5l60 -21t72 -20.5t79.5 -9q40 0 90 14t94 40t74 63.5t30 85.5t-15.5 82t-42 57.5t-62 36.5t-75.5 18q17 -22 23.5 -48t6.5 -46q0 -35 -13.5 -62.5t-36 -47t-51 -30t-59.5 -10.5q-29 0 -57 11t-50 31t-35 49t-13 64q0 34 12.5 61t33.5 47.5t49 34.5t60 22
q-5 15 -20.5 35t-43.5 36h-245v116h351z" />
    <glyph glyph-name="bn_aakaar" unicode="&#x9be;" horiz-adv-x="474" 
d="M0 1114v116h180v216l124 -111v-105h190v-116h-190v-1114l-124 80v1034h-180z" />
    <glyph glyph-name="bn_ikaar" unicode="&#x9bf;" horiz-adv-x="474" 
d="M180 1114h-180v116h163q-11 20 -18 42t-11 43t-5.5 38t-1.5 26q0 73 29 133.5t79.5 104t117.5 67.5t144 24q62 0 123 -18t119.5 -48t112.5 -69.5t102 -81t88.5 -83t70.5 -76.5l11 -67l-186.5 134t-159.5 99.5t-145.5 62t-143.5 21.5q-41 0 -83 -13.5t-76.5 -41.5t-56 -71
t-21.5 -103q0 -6 0.5 -17.5t4.5 -27t12.5 -35.5t24.5 -43h200v-116h-190v-1114l-124 80v1034z" />
    <glyph glyph-name="bn_iikaar" unicode="&#x9c0;" horiz-adv-x="475" 
d="M180 1230q-16 75 -64 146.5t-126 127t-185.5 89t-241.5 33.5q-146 0 -219.5 -27t-73.5 -93q0 -23 11 -41.5t30.5 -31.5t45.5 -19.5t56 -6.5q31 0 68.5 8t76.5 18t77 18t71 8q26 0 49 -5.5t39.5 -20t26 -40t9.5 -65.5v-166h-124v133q0 25 -1 40t-5.5 23t-14 10t-27.5 2
q-14 0 -42.5 -7l-63 -15t-70.5 -15t-64 -7q-53 0 -95 14t-71.5 38t-45.5 57t-16 71q0 59 30 104t81 75t119 45.5t143 15.5q112 0 207.5 -23.5t174.5 -63.5t141 -92.5t107 -109.5t73 -116t39 -111h190v-116h-190v-1114l-125 80v1034h-180v116h180z" />
    <glyph glyph-name="bn_ukaar" unicode="&#x9c1;" horiz-adv-x="0" 
d="M47 -292l-47 83.5t-49 71.5t-55.5 55.5t-65.5 36.5v-44q0 -32 -9 -68t-29.5 -66t-53 -49.5t-80.5 -19.5q-35 0 -65.5 10.5t-53 31t-35.5 50t-13 67.5q0 35 17.5 66.5t46.5 55.5t68 40.5t83 21.5v179h124v-191q55 -17 99.5 -51.5t79.5 -76t60 -85t42 -78.5zM-437 -138
q0 -16 6 -29.5t16 -23.5t22.5 -15.5t25.5 -5.5q12 0 24.5 4.5t23.5 17.5t18 35.5t7 58.5v62q-25 -4 -50.5 -13.5t-46 -23.5t-33.5 -31t-13 -36z" />
    <glyph glyph-name="bn_uukaar" unicode="&#x9c2;" horiz-adv-x="0" 
d="M67 -293q-50 27 -86.5 65.5t-64.5 79.5q-22 -37 -42.5 -64t-44.5 -45t-53.5 -27t-69.5 -9q-31 0 -62 10.5t-56.5 31t-41.5 51t-16 71.5q0 33 13.5 61.5t37 52t55.5 41.5t70 30v124h124v-180q-35 0 -67 -7.5t-57.5 -22t-40.5 -36t-15 -50.5q0 -22 8 -39t20.5 -28t29 -17
t34.5 -6q35 0 57.5 19.5t35.5 45t18 50.5l7 35h78q23 -36 43.5 -63.5t41 -48.5t42.5 -36.5t49 -27.5z" />
    <glyph glyph-name="bn_rikaar" unicode="&#x9c3;" horiz-adv-x="0" 
d="M-89 -403q-74 56 -137.5 86t-117.5 45t-99 20.5t-84 11.5l-39 111q34 11 67.5 25.5t67 35.5t68 49.5t69.5 67.5v131h124v-180q-14 -21 -39.5 -46.5t-57 -51t-67.5 -48t-72 -35.5q58 -11 108.5 -24.5t95 -32.5t85.5 -45t80 -60z" />
    <glyph glyph-name="bn_rrikaar" unicode="&#x9c4;" horiz-adv-x="0" 
d="M-149 -653q-74 56 -137.5 86t-117.5 45t-99 20.5t-84 11.5l-39 111q54 17 107.5 45t108.5 77q-32 6 -61.5 9.5t-55.5 7.5l-39 111q34 11 67.5 25.5t67 35.5t68 49.5t69.5 67.5v131h124v-180q-14 -21 -39.5 -46.5t-57 -51t-67.5 -48t-72 -35.5q58 -11 108.5 -24.5
t95 -32.5t85.5 -45t80 -60l-52 -60q-51 38 -95.5 63.5t-85.5 42.5q-18 -19 -41 -38.5t-48.5 -37.5t-52.5 -33t-54 -25q58 -11 108.5 -24.5t95 -32.5t85.5 -45t80 -60z" />
    <glyph glyph-name="bn_ekaar" unicode="&#x9c7;" horiz-adv-x="825" 
d="M845 1230v-116h-180q-72 -42 -133.5 -106.5t-105.5 -144t-69 -169t-25 -181.5q0 -80 17 -160t49 -144t78 -103.5t104 -39.5q15 0 30 4t23 9q-29 5 -48 17.5t-30 28t-15.5 32t-4.5 29.5q0 60 35 98t92 38q27 0 51 -11t42.5 -29.5t29 -44t10.5 -53.5q0 -38 -16 -71.5
t-45.5 -58.5t-72 -39.5t-96.5 -14.5q-91 0 -162.5 42.5t-121 115t-75.5 169.5t-26 207q0 89 21 176t54.5 163.5t76.5 138.5t87 102h-419v116h845z" />
    <glyph glyph-name="bn_aikaar" unicode="&#x9c8;" horiz-adv-x="825" 
d="M571 1230q15 8 26 20t17.5 25t10 25t3.5 19q0 30 -23 46.5t-60.5 25t-85.5 13t-97.5 10t-97.5 16t-85.5 31.5t-60.5 55.5t-23 89.5q0 25 13.5 55t44.5 57l36 -28q-25 -21 -30.5 -37.5t-5.5 -30.5q0 -27 25.5 -42.5t67 -24.5t94 -13.5t107.5 -10.5t108 -16t94.5 -29.5
t66.5 -50.5t25 -80q0 -18 -6 -37t-15 -35.5t-20 -30t-21 -22.5h166v-116h-180q-72 -42 -133.5 -106.5t-105.5 -144t-69 -169t-25 -181.5q0 -80 17 -160t49 -144t78 -103.5t104 -39.5q15 0 30 4t23 9q-29 5 -48 17.5t-30 28t-15.5 32t-4.5 29.5q0 60 35 98t92 38q27 0 51 -11
t42.5 -29.5t29 -44t10.5 -53.5q0 -38 -16 -71.5t-45.5 -58.5t-72 -39.5t-96.5 -14.5q-91 0 -162.5 42.5t-121 115t-75.5 169.5t-26 207q0 89 21 176t54.5 163.5t76.5 138.5t87 102h-419v116h571z" />
    <glyph glyph-name="bn_okaar" unicode="&#x9cb;" horiz-adv-x="2098" 
d="M853 979q0 29 20 51t53 22q30 0 49.5 -22t19.5 -51q0 -34 -19.5 -52.5t-49.5 -18.5q-33 0 -53 18.5t-20 52.5zM705 770q0 34 19 52.5t52 18.5q27 0 48 -18.5t21 -52.5q0 -33 -21 -52t-48 -19q-33 0 -52 19t-19 52zM676 530q0 34 20 52.5t51 18.5t52 -18.5t21 -52.5
q0 -29 -21 -49t-52 -20t-51 20t-20 49zM776 311q0 33 20 52t49 19t50 -19t21 -52q0 -31 -21 -51t-50 -20t-49 20t-20 51zM964 169q0 32 21 50.5t54 18.5q27 0 47 -18.5t20 -50.5q0 -33 -20 -52t-47 -19q-33 0 -54 19t-21 52zM1208 140q0 29 19 50t50 21q33 0 52 -21t19 -50
q0 -33 -19 -53t-52 -20q-31 0 -50 20t-19 53zM1435 238q0 33 19 53t50 20q34 0 52.5 -20t18.5 -53q0 -29 -18.5 -49t-52.5 -20q-31 0 -50 20t-19 49zM1571 424q0 33 21 52t50 19q31 0 51 -19t20 -52q0 -29 -20 -50t-51 -21q-29 0 -50 21t-21 50zM1592 678q0 34 20 52.5
t49 18.5q33 0 53 -18.5t20 -52.5q0 -33 -20 -52t-53 -19q-29 0 -49 19t-20 52zM1498 906q0 25 20 48t51 23q27 0 49 -23t22 -48q0 -34 -22 -54.5t-49 -20.5q-31 0 -51 20.5t-20 54.5zM1317 1031q0 29 20.5 50t54.5 21q29 0 47.5 -21t18.5 -50q0 -31 -18.5 -51t-47.5 -20
q-34 0 -54.5 20t-20.5 51zM1081 1058q0 31 18.5 51t52.5 20q31 0 50 -20t19 -51t-19 -52t-50 -21q-34 0 -52.5 21t-18.5 52zM739 1230v-116h-174q-72 -42 -133.5 -106.5t-105.5 -144t-69 -169t-25 -181.5q0 -80 17 -160t49 -144t78 -103.5t104 -39.5q15 0 30 4t23 9
q-29 5 -48 17.5t-30 28t-15.5 32t-4.5 29.5q0 60 35 98t92 38q27 0 51 -11t42.5 -29.5t29 -44t10.5 -53.5q0 -38 -16 -71.5t-45.5 -58.5t-72 -39.5t-96.5 -14.5q-91 0 -162.5 42.5t-121 115t-75.5 169.5t-26 207q0 108 29 215.5t81.5 201t125.5 167t162 112.5h261z
M1624 1114v116h180v216l124 -111v-105h190v-116h-190v-1114l-124 80v1034h-180z" />
    <glyph glyph-name="bn_aukaar" unicode="&#x9cc;" horiz-adv-x="2098" 
d="M853 979q0 29 20 51t53 22q30 0 49.5 -22t19.5 -51q0 -34 -19.5 -52.5t-49.5 -18.5q-33 0 -53 18.5t-20 52.5zM705 770q0 34 19 52.5t52 18.5q27 0 48 -18.5t21 -52.5q0 -33 -21 -52t-48 -19q-33 0 -52 19t-19 52zM676 530q0 34 20 52.5t51 18.5t52 -18.5t21 -52.5
q0 -29 -21 -49t-52 -20t-51 20t-20 49zM776 311q0 33 20 52t49 19t50 -19t21 -52q0 -31 -21 -51t-50 -20t-49 20t-20 51zM964 169q0 32 21 50.5t54 18.5q27 0 47 -18.5t20 -50.5q0 -33 -20 -52t-47 -19q-33 0 -54 19t-21 52zM1208 140q0 29 19 50t50 21q33 0 52 -21t19 -50
q0 -33 -19 -53t-52 -20q-31 0 -50 20t-19 53zM1435 238q0 33 19 53t50 20q34 0 52.5 -20t18.5 -53q0 -29 -18.5 -49t-52.5 -20q-31 0 -50 20t-19 49zM1571 424q0 33 21 52t50 19q31 0 51 -19t20 -52q0 -29 -20 -50t-51 -21q-29 0 -50 21t-21 50zM1592 678q0 34 20 52.5
t49 18.5q33 0 53 -18.5t20 -52.5q0 -33 -20 -52t-53 -19q-29 0 -49 19t-20 52zM1498 906q0 25 20 48t51 23q27 0 49 -23t22 -48q0 -34 -22 -54.5t-49 -20.5q-31 0 -51 20.5t-20 54.5zM1317 1031q0 29 20.5 50t54.5 21q29 0 47.5 -21t18.5 -50q0 -31 -18.5 -51t-47.5 -20
q-34 0 -54.5 20t-20.5 51zM1081 1058q0 31 18.5 51t52.5 20q31 0 50 -20t19 -51t-19 -52t-50 -21q-34 0 -52.5 21t-18.5 52zM739 1230v-116h-174q-72 -42 -133.5 -106.5t-105.5 -144t-69 -169t-25 -181.5q0 -80 17 -160t49 -144t78 -103.5t104 -39.5q15 0 30 4t23 9
q-29 5 -48 17.5t-30 28t-15.5 32t-4.5 29.5q0 60 35 98t92 38q27 0 51 -11t42.5 -29.5t29 -44t10.5 -53.5q0 -38 -16 -71.5t-45.5 -58.5t-72 -39.5t-96.5 -14.5q-91 0 -162.5 42.5t-121 115t-75.5 169.5t-26 207q0 108 29 215.5t81.5 201t125.5 167t162 112.5h261z
M2118 1230v-116h-190v-1114l-124 80v1034h-180v116h191q15 8 26 20t17.5 25t10 25t3.5 19q0 30 -23 46.5t-60.5 25t-85.5 13t-97.5 10t-97.5 16t-85.5 31.5t-60.5 55.5t-23 89.5q0 25 13.5 55t44.5 57l36 -28q-25 -21 -30.5 -37.5t-5.5 -30.5q0 -27 25.5 -42.5t67 -24.5
t94 -13.5t107.5 -10.5t108 -16t94.5 -29.5t66.5 -50.5t25 -80q0 -18 -6 -37t-15 -35.5t-20 -30t-21 -22.5h195z" />
    <glyph glyph-name="bn_halanth" unicode="&#x9cd;" horiz-adv-x="0" 
d="M-309 -136l77 92l335 -342h-95z" />
    <glyph glyph-name="bn_khanda_ta" unicode="&#x9ce;" horiz-adv-x="874" 
d="M176 897q0 -56 23.5 -94t62 -66t88 -51t100.5 -49.5t100.5 -60.5t88 -84.5t62 -121.5t23.5 -171q0 -43 -5 -91t-19 -103l-66 124q11 35 11 61q0 69 -24 115t-62.5 79t-88.5 57.5l-101.5 50t-101.5 55.5t-88.5 75t-62.5 109.5t-24 156.5q0 75 28 137.5t74.5 108t108 71
t128.5 25.5q56 0 105 -17.5t85.5 -49.5t57.5 -77.5t21 -101.5q0 -44 -15 -79.5t-41.5 -60.5t-63 -38.5t-80.5 -13.5t-84.5 19t-72.5 55t-53.5 86.5t-26.5 113.5q-40 -27 -63.5 -69.5t-23.5 -99.5zM509 907q21 0 40.5 5t33.5 15.5t22.5 27.5t8.5 40q0 50 -44.5 84.5
t-135.5 34.5q-56 0 -105 -17q6 -28 22.5 -61.5t40.5 -62t54 -47.5t63 -19z" />
    <glyph glyph-name="bn_aumark" unicode="&#x9d7;" horiz-adv-x="474" 
d="M494 1230v-116h-190v-1114l-124 80v1034h-180v116h191q15 8 26 20t17.5 25t10 25t3.5 19q0 30 -23 46.5t-60.5 25t-85.5 13t-97.5 10t-97.5 16t-85.5 31.5t-60.5 55.5t-23 89.5q0 25 13.5 55t44.5 57l36 -28q-25 -21 -30.5 -37.5t-5.5 -30.5q0 -27 25.5 -42.5t67 -24.5
t94 -13.5t107.5 -10.5t108 -16t94.5 -29.5t66.5 -50.5t25 -80q0 -18 -6 -37t-15 -35.5t-20 -30t-21 -22.5h195z" />
    <glyph glyph-name="bn_rri" unicode="&#x9e0;" horiz-adv-x="1375" 
d="M717 826q-57 -15 -115.5 -41.5t-111 -57.5t-95.5 -63t-70 -57q46 -18 100.5 -44.5t108.5 -66.5t102 -96.5t81 -133.5v560zM1205 1335v-105h190v-116h-190v-1014l-60 40q-20 51 -54 98t-75.5 90t-87 81.5t-87.5 70.5v-480l-60 40q-34 88 -88.5 165.5t-124 139t-151 104.5
t-169.5 62l-154 118q83 68 155 120.5t141 93.5t139.5 72.5t150.5 57.5q-3 32 -13.5 56.5t-22.5 41.5t-23 27.5t-17 15.5q-24 -59 -64 -93.5t-83 -52.5t-82.5 -23t-62.5 -5q-54 0 -99.5 13.5t-78.5 37t-52 55.5t-19 68q0 24 7 45t21 36.5t35.5 25t51.5 9.5q19 0 38.5 -8.5
t35.5 -22.5t25.5 -33t9.5 -40q0 -5 -2 -19.5t-7 -31.5t-15 -33.5t-26 -24.5h7q37 0 72.5 12t67 37.5t56.5 66t42 97.5q81 -23 142 -65.5t93 -88.5v370l124 -111v-713q30 -22 57 -45.5t55.5 -55t59 -74t68.5 -101.5v1100zM922 -403q-74 56 -137.5 86t-117.5 45t-99 20.5
t-84 11.5l-39 111q34 11 67.5 25.5t67 35.5t68 49.5t69.5 67.5v131h124v-180q-14 -21 -39.5 -46.5t-57 -51t-67.5 -48t-72 -35.5q58 -11 108.5 -24.5t95 -32.5t85.5 -45t80 -60z" />
    <glyph glyph-name="bn_lli" unicode="&#x9e1;" horiz-adv-x="1312" 
d="M1245 79q0 -42 -17.5 -75t-47.5 -57.5t-71 -41t-87 -26.5l-23 21q18 8 31 30.5t13 53.5q0 21 -5.5 40t-17.5 34t-32 24t-48 9q-20 0 -37 -10.5t-30 -26.5t-20 -36.5t-7 -39.5q0 -14 5 -27q15 33 32.5 42t28.5 9q18 0 35.5 -17.5t17.5 -40.5q0 -32 -14.5 -48t-40.5 -16
t-45 10.5t-31.5 28t-18.5 41t-6 49.5q0 30 9.5 59.5t27.5 52t43.5 36.5t58.5 14q39 0 69.5 -15t51.5 -40t32.5 -56.5t11.5 -65.5q0 -14 -1.5 -27.5t-5.5 -27.5q12 3 27 11t27.5 21t21.5 30.5t9 40.5q0 28 -26.5 57t-66.5 58.5t-87.5 60.5t-89.5 64q-21 -57 -61 -102.5
t-95.5 -80t-123 -59t-142.5 -40.5l-44 42q35 17 61 60.5t26 104.5q0 40 -10.5 78t-34.5 67.5t-63 47t-95 17.5q-39 0 -73 -20t-59 -52t-39.5 -71.5t-14.5 -78.5q0 -30 10 -54q15 33 31.5 53t32.5 30.5t30.5 14t25.5 3.5q18 0 36.5 -9t33.5 -25t25 -36.5t10 -42.5
q0 -63 -29 -95.5t-79 -32.5q-51 0 -89 20.5t-62.5 55.5t-36.5 81t-12 98q0 60 18.5 117.5t54 102t86 72t115.5 27.5q76 0 136.5 -29.5t102.5 -78t64.5 -111t22.5 -129.5q0 -27 -3 -54.5t-11 -54.5q24 5 52.5 21t54 41.5t42.5 61t17 79.5q0 43 -32.5 87.5t-85 89.5t-120.5 91
l-138.5 94l-138 98t-120 102t-85 106.5t-32.5 112.5q0 26 8.5 49t24 40.5t38 28t49.5 10.5q46 0 76 -28.5t30 -71.5q0 -27 -15 -47t-36.5 -33t-44.5 -19.5t-39 -6.5q18 -17 61 -39.5l100.5 -50.5l125 -61.5t135 -72.5t130 -83.5t111 -95t77.5 -107.5t29 -120q0 -23 -3 -42
l97.5 -48.5t100.5 -61.5t78.5 -74.5t31.5 -88.5z" />
    <glyph glyph-name="bn_likaar" unicode="&#x9e2;" horiz-adv-x="0" 
d="M18 -269q0 -42 -17.5 -75t-47.5 -57.5t-71 -41t-87 -26.5l-23 21q18 8 31 30.5t13 53.5q0 21 -5.5 40t-17.5 34t-32 24t-48 9q-20 0 -37 -10.5t-30 -26.5t-20 -36.5t-7 -39.5q0 -14 5 -27q15 33 32.5 42t28.5 9q18 0 35.5 -17.5t17.5 -40.5q0 -32 -14.5 -48t-40.5 -16
t-45 10.5t-31.5 28t-18.5 41t-6 49.5q0 30 9.5 59.5t27.5 52t43.5 36.5t58.5 14q39 0 69.5 -15t51.5 -40t32.5 -56.5t11.5 -65.5q0 -14 -1.5 -27.5t-5.5 -27.5q12 3 27 11t27.5 21t21.5 30.5t9 40.5q0 29 -28.5 59t-70.5 61t-92 63.5t-92 66.5t-70.5 70.5t-28.5 75.5
q0 26 16.5 45.5t44.5 19.5q23 0 38.5 -14.5t15.5 -36.5q0 -14 -7.5 -24t-18.5 -16.5t-23 -10t-20 -3.5q12 -12 46 -28l77.5 -37.5t90.5 -47.5t86 -58t64.5 -69t25.5 -79z" />
    <glyph glyph-name="bn_llikaar" unicode="&#x9e3;" horiz-adv-x="0" 
d="M-251 -669q0 -42 -17.5 -75t-47.5 -57.5t-71 -41t-87 -26.5l-23 21q18 8 31 30.5t13 53.5q0 21 -5.5 40t-17.5 34t-32 24t-48 9q-20 0 -37 -10.5t-30 -26.5t-20 -36.5t-7 -39.5q0 -14 5 -27q15 33 32.5 42t28.5 9q18 0 35.5 -17.5t17.5 -40.5q0 -32 -14.5 -48t-40.5 -16
t-45 10.5t-31.5 28t-18.5 41t-6 49.5q0 30 9.5 59.5t27.5 52t43.5 36.5t58.5 14q39 0 69.5 -15t51.5 -40t32.5 -56.5t11.5 -65.5q0 -14 -1.5 -27.5t-5.5 -27.5q12 3 27 11t27.5 21t21.5 30.5t9 40.5q0 29 -28.5 59t-70.5 61t-92 63.5t-92 66.5t-70.5 70.5t-28.5 75.5
q0 26 16.5 45.5t44.5 19.5q23 0 38.5 -14.5t15.5 -36.5q0 -14 -7.5 -24t-18.5 -16.5t-23 -10t-20 -3.5q12 -12 46 -28l77.5 -37.5t90.5 -47.5t86 -58t64.5 -69t25.5 -79zM19 -299q0 -42 -17.5 -75t-47.5 -57.5t-71 -41t-87 -26.5l-23 21q18 8 31 30.5t13 53.5q0 21 -5.5 40
t-17.5 34t-32 24t-48 9q-20 0 -37 -10.5t-30 -26.5t-20 -36.5t-7 -39.5q0 -14 5 -27q15 33 32.5 42t28.5 9q18 0 35.5 -17.5t17.5 -40.5q0 -32 -14.5 -48t-40.5 -16t-45 10.5t-31.5 28t-18.5 41t-6 49.5q0 30 9.5 59.5t27.5 52t43.5 36.5t58.5 14q39 0 69.5 -15t51.5 -40
t32.5 -56.5t11.5 -65.5q0 -14 -1.5 -27.5t-5.5 -27.5q12 3 27 11t27.5 21t21.5 30.5t9 40.5q0 29 -28.5 59t-70.5 61t-92 63.5t-92 66.5t-70.5 70.5t-28.5 75.5q0 26 16.5 45.5t44.5 19.5q23 0 38.5 -14.5t15.5 -36.5q0 -14 -7.5 -24t-18.5 -16.5t-23 -10t-20 -3.5
q12 -12 46 -28l77.5 -37.5t90.5 -47.5t86 -58t64.5 -69t25.5 -79z" />
    <glyph glyph-name="bn_zero" unicode="&#x9e6;" horiz-adv-x="1110" 
d="M139 566q0 93 30.5 170.5t86 133t133 86.5t170.5 31t170.5 -31t133 -86.5t86.5 -133t31 -170.5t-31 -170.5t-86.5 -133t-133 -86t-170.5 -30.5t-170.5 30.5t-133 86t-86 133t-30.5 170.5zM630 891q-84 0 -154 -32t-120 -86.5t-77.5 -126t-27.5 -149.5q0 -59 21 -106
t55 -80t77 -51t86 -18q85 0 154.5 33.5t119 88.5t76.5 126t27 147q0 58 -21 105t-55 80t-76.5 51t-84.5 18z" />
    <glyph glyph-name="bn_one" unicode="&#x9e7;" horiz-adv-x="1110" 
d="M492 40q-50 0 -89.5 16t-67.5 42t-43 57.5t-15 63.5q0 40 12.5 72t35.5 54t54.5 33.5t69.5 11.5q31 0 59.5 -12t51 -33.5t36 -51t13.5 -64.5q0 -17 -3.5 -35t-11.5 -38q52 46 74.5 93.5t22.5 95.5q0 62 -31 126t-77 127t-100 125.5t-100 122.5t-77 117.5t-31 110.5
q0 26 8.5 51t24 44t37.5 30.5t48 11.5q22 0 39.5 -8.5t29.5 -22t18.5 -30.5t6.5 -35q0 -16 -7 -31.5t-19.5 -28t-31 -20t-42.5 -7.5q-14 0 -30 3q42 -41 94.5 -85l106.5 -91.5t105.5 -100.5t92 -112.5t65 -126.5t24.5 -143q0 -77 -28.5 -138.5t-76.5 -104.5t-112 -66
t-136 -23z" />
    <glyph glyph-name="bn_two" unicode="&#x9e8;" horiz-adv-x="1110" 
d="M162 589l35.5 -14.5t38.5 -16.5q35 -8 70.5 -20t71.5 -22.5t73.5 -18t76.5 -7.5q28 0 59.5 12.5t58.5 32t44.5 43.5t17.5 48q0 48 -30.5 88t-77 74.5t-100 65t-100 60.5t-77 61.5t-30.5 67.5q0 51 26.5 79t77.5 28q16 0 32 -6.5t29.5 -17.5t22 -26t8.5 -32
q0 -22 -16.5 -46.5t-58.5 -48.5q44 -23 95.5 -42.5l102.5 -39.5t98 -43.5t83.5 -53.5t58 -68.5t21.5 -89.5q0 -65 -26 -106.5t-67.5 -65t-94 -32.5t-105.5 -9q-23 0 -45.5 1.5t-43.5 3.5q70 -40 138 -83t129.5 -86t113.5 -85t89 -79l27 -95q-105 86 -216.5 153t-214.5 116
t-189 81.5t-140 50.5z" />
    <glyph glyph-name="bn_three" unicode="&#x9e9;" horiz-adv-x="1110" 
d="M625 146q-99 0 -175 45t-133 118t-97.5 165.5t-68 187t-44.5 183t-27 153.5l58 -27q10 -50 26.5 -119t42 -143.5t62 -147.5t86.5 -131t115.5 -94t150.5 -36q77 0 132.5 33.5t91 85.5t52.5 115t17 123q0 56 -8 106t-29 93.5t-57 81t-92 68.5q14 -18 29 -45.5t15 -57.5
q0 -27 -13.5 -49.5t-35.5 -38.5t-48.5 -25t-51.5 -9q-24 0 -52 9.5t-52 28t-40 46.5t-16 65q0 34 15 62.5t41 49.5t60 32.5t73 11.5q96 0 168 -41.5t120 -106.5t72.5 -145t24.5 -158q0 -122 -35 -213.5t-92.5 -152.5t-132 -92t-152.5 -31z" />
    <glyph glyph-name="bn_four" unicode="&#x9ea;" horiz-adv-x="1110" 
d="M936 356q0 -75 -38.5 -130t-99.5 -90.5t-135 -52.5t-146 -17q-68 0 -128.5 20t-106 57.5t-72 90.5t-26.5 118q0 46 19.5 82.5t52.5 67t76 56t91 49.5q-42 20 -79.5 43.5t-65 54t-44 69t-16.5 88.5q0 76 37.5 135t97.5 99t134 60.5t147 20.5q51 0 99 -19t85 -53.5
t59.5 -82t22.5 -104.5q0 -47 -19.5 -83.5t-52 -67t-74.5 -56.5t-88 -50q51 -22 100 -47t86.5 -60.5t60.5 -83t23 -114.5zM351 335q0 -39 19 -74t49.5 -61.5t68 -41.5t74.5 -15q52 0 94.5 15t72.5 41.5t46.5 63t16.5 78.5q0 43 -22 75.5t-58 58t-82.5 46t-96.5 40.5l-27 11
q-33 -22 -61.5 -46.5t-49 -53t-32.5 -62.5t-12 -75zM769 905q0 43 -14 81t-39.5 66.5t-61.5 45t-79 16.5q-38 0 -76.5 -14.5t-69 -39.5t-49.5 -58t-19 -70q0 -50 19 -86.5t51 -64.5t74 -49.5t88 -40.5q37 20 69 42.5t56 48.5t37.5 56.5t13.5 66.5z" />
    <glyph glyph-name="bn_five" unicode="&#x9eb;" horiz-adv-x="1110" 
d="M892 103q-83 -39 -194 -39q-94 0 -172 19t-140 53t-108 80.5t-77 101.5t-46 116t-15 124q0 98 38.5 193t106.5 177.5t162.5 147.5t205.5 102l151 -118q-35 -9 -69.5 -21.5t-67.5 -27.5q3 -20 10.5 -42t22.5 -44t38 -42t55 -35q73 50 158 86q1 -1 15.5 -19l31.5 -40
l46 -58q-99 -53 -170.5 -106t-118 -110t-68.5 -120t-22 -135q0 -43 12.5 -80.5t39.5 -68.5t70 -55t105 -39zM720 791q-33 9 -58 26.5t-43 40t-29 49t-16 53.5q-58 -37 -107 -84t-84.5 -101.5t-55.5 -116.5t-20 -130q0 -71 30.5 -139.5t80.5 -123t115.5 -88t136.5 -33.5
q-38 33 -62 69t-37.5 73.5t-18.5 75.5t-5 74q0 106 46.5 195t126.5 160z" />
    <glyph glyph-name="bn_six" unicode="&#x9ec;" horiz-adv-x="1110" 
d="M111 880l64 -38q5 -71 17 -143t33.5 -139t55 -126t81 -102.5t111 -68.5t146.5 -25q61 0 120 23t105.5 62.5t74.5 93t28 114.5q0 18 -2.5 39.5t-8.5 43.5t-17 44t-29 41q-32 -61 -69.5 -108t-76 -79t-76.5 -48.5t-72 -16.5q-48 0 -82.5 15.5t-56.5 43t-32 64.5t-10 79
q0 39 10.5 85.5t27 92.5t36 87t38.5 70l-3 -2q-12 -9 -27 -17.5t-35 -8.5q-19 0 -39.5 5.5t-37 18.5t-27 33.5t-10.5 50.5q0 22 8.5 42t23 35t34 23.5t42.5 8.5q72 0 105.5 -47.5t33.5 -146.5q-8 -97 -13 -165.5t-5 -101.5q0 -50 10.5 -72.5t33.5 -22.5q15 0 39 16t52 47
t57.5 76.5t55.5 105.5q52 -39 89.5 -84.5t62 -95t36 -100.5t11.5 -100q0 -95 -34.5 -169.5t-90 -125.5t-126 -78t-143.5 -27q-122 0 -213.5 44.5t-155 141t-100.5 248t-50 364.5z" />
    <glyph glyph-name="bn_seven" unicode="&#x9ed;" horiz-adv-x="1110" 
d="M416 573q-55 0 -96.5 22.5t-69 58t-41.5 78t-14 83.5q0 74 23 138.5t63 112t93.5 75t113.5 27.5q61 0 112.5 -19.5t93 -53t73.5 -78t53 -94.5t32 -103t11 -102q0 -23 -2 -60.5t-8 -96t-16.5 -142t-26.5 -198.5q17 13 40 19.5t40 6.5q21 0 39 -8t31 -21.5t20.5 -31
t7.5 -36.5q0 -48 -26 -74t-77 -26q-41 0 -73 33.5t-53.5 92t-32.5 139t-11 173.5v85q-37 7 -66.5 9.5t-55.5 2.5t-47.5 -2l-42.5 -4l-42 -4t-45 -2zM717 717q0 168 -39 256.5t-109 88.5q-46 0 -97 -25.5t-94 -65t-71 -86.5t-28 -89q0 -26 9.5 -41.5t24.5 -23.5t33.5 -11
t36.5 -3q26 0 50 1.5l48 3l48.5 3t53.5 1.5t61.5 -2t72.5 -7z" />
    <glyph glyph-name="bn_eight" unicode="&#x9ee;" horiz-adv-x="1110" 
d="M794 468q0 -45 -17.5 -92t-47.5 -90.5t-69.5 -82.5t-84 -67.5t-90.5 -45.5t-89 -17q-60 0 -100.5 32.5t-65.5 87t-35.5 125.5t-10.5 148q0 78 9 157t23 148t31.5 123.5t34.5 83.5q-22 -11 -43.5 -16.5t-41.5 -5.5q-44 0 -73 24.5t-29 71.5q0 27 10.5 46t27 31.5t36 18.5
t37.5 6q48 0 74.5 -24t39 -63t15.5 -87.5t3 -97.5q0 -58 -4.5 -109t-6.5 -81q15 25 39.5 47.5t53 38.5t58.5 25.5t58 9.5q42 0 82.5 -31.5t74.5 -78.5q21 32 54 44t64 12q15 0 31 -1t32 -1q18 0 36.5 2.5t35 9.5t31 20.5t25.5 36.5q12 -15 18 -35t6 -42q0 -50 -13 -77
t-35 -39.5t-49.5 -15.5t-57 -4.5t-58 -7t-51.5 -23.5q15 -34 23.5 -64t8.5 -50zM653 589q-1 38 -31 55.5t-75 17.5q-27 0 -57 -6t-59.5 -16.5t-57 -25.5t-49.5 -34q-3 -30 -5 -64.5t-2 -70.5q0 -52 2.5 -97.5t8.5 -79t16.5 -52.5t27.5 -19q28 0 60 16t63 44t59.5 65.5
t50.5 80.5t35 89t13 92v5z" />
    <glyph glyph-name="bn_nine" unicode="&#x9ef;" horiz-adv-x="1110" 
d="M1020 394q0 -83 -34.5 -148t-94 -113t-140 -81t-172.5 -52l-44 42q35 17 61 60.5t26 104.5q0 40 -10.5 78t-34.5 67.5t-63 47t-95 17.5q-39 0 -73 -20t-59 -52t-39.5 -71.5t-14.5 -78.5q0 -30 10 -54q15 33 31.5 53t32.5 30.5t30.5 14t25.5 3.5q18 0 36.5 -9t33.5 -25
t25 -36.5t10 -42.5q0 -63 -29 -95.5t-79 -32.5q-51 0 -89 20.5t-62.5 55.5t-36.5 81t-12 98q0 60 18.5 117.5t54 102t86 72t115.5 27.5q76 0 136.5 -29.5t102.5 -78t64.5 -111t22.5 -129.5q0 -27 -3 -54.5t-11 -54.5q24 5 52.5 21t54 41.5t42.5 61t17 79.5q0 43 -32.5 87.5
t-85 89.5t-120.5 91l-138.5 94l-138 98t-120 102t-85 106.5t-32.5 112.5q0 26 8.5 49t24 40.5t38 28t49.5 10.5q46 0 76 -28.5t30 -71.5q0 -27 -15 -47t-36.5 -33t-44.5 -19.5t-39 -6.5q18 -17 61 -39.5l100.5 -50.5l125 -61.5t135 -72.5t130 -83.5t111 -95t77.5 -107.5
t29 -120z" />
    <glyph glyph-name="asa_ra" unicode="&#x9f0;" horiz-adv-x="998" 
d="M0 1114v116h1017v-116h-189v-1114l-60 40q-34 88 -88.5 165.5t-124 139t-151 104.5t-169.5 62l-154 188q76 79 148.5 138.5t147 102.5t154.5 71t173 43v60h-704zM704 477q-56 91 -132.5 162.5t-167.5 119.5q-45 -33 -78 -64.5t-47 -51.5q44 -17 101.5 -49t116.5 -79
t113.5 -109t93.5 -140v211zM704 889q-51 -3 -102.5 -21.5t-101.5 -46.5q59 -47 112.5 -107.5t91.5 -137.5v313z" />
    <glyph glyph-name="asa_ba" unicode="&#x9f1;" horiz-adv-x="998" 
d="M704 889q-43 -2 -88 -16.5t-88 -36.5t-83 -48.5t-73 -53t-57 -51t-36 -40.5q44 -17 101.5 -49t116.5 -79t113.5 -109t93.5 -140v623zM0 1114v116h1017v-116h-189v-1114l-60 40q-34 88 -88.5 165.5t-124 139t-151 104.5t-169.5 62l-154 188q76 79 148.5 138.5t147 102.5
t154.5 71t173 43v60h-704zM576 118q-37 35 -68.5 58.5t-72.5 41.5t-98 33t-145 34l44 132q41 -12 88 -30t95 -47t95 -70.5t89 -99.5z" />
    <glyph glyph-name="bn_rupeemark" unicode="&#x9f2;" horiz-adv-x="958" 
d="M101 979q132 -10 234 -49.5t177.5 -102t127.5 -145.5t84 -179t46.5 -202.5t14.5 -216.5h-104q-1 93 -11.5 184t-36 174.5t-68 156.5t-106.5 130t-152.5 94.5t-205.5 50.5v105z" />
    <glyph glyph-name="bn_rupeesign" unicode="&#x9f3;" horiz-adv-x="1117" 
d="M83 806v124h234v5q0 54 -23 92t-66 38q-17 0 -37.5 -4t-43.5 -12l-77 162q33 11 63 15.5t58 4.5q121 0 185.5 -73.5t64.5 -227.5h492v-124h-492v-516q0 -23 6.5 -43.5t19.5 -36t31 -25t42 -9.5q35 0 75 13t80 36t77 54t65.5 67t45.5 75t17 78q0 5 -2 13
q-34 -35 -66.5 -50.5t-62.5 -15.5q-32 0 -59 12t-46.5 32t-31 47t-11.5 56q0 33 11.5 62t32 51t47.5 35t59 13q58 0 95.5 -26t59.5 -65.5t30 -87.5t8 -92q0 -117 -41 -207t-105 -151.5t-141.5 -93t-150.5 -31.5q-11 0 -31 2.5t-43 11t-47 24.5t-43.5 42.5t-32 66.5t-12.5 95
v564h-234z" />
    <glyph glyph-name="bn_currency1" unicode="&#x9f4;" horiz-adv-x="958" 
d="M101 190q117 13 205.5 50.5t152.5 94.5t106.5 130t68 156.5t36 175t11.5 184.5h104q-1 -110 -15 -216.5t-46 -202.5t-84 -179t-127.5 -145.5t-177.5 -102t-234 -49.5v104z" />
    <glyph glyph-name="bn_currency2" unicode="&#x9f5;" horiz-adv-x="1114" 
d="M943 981q-6 -100 -13.5 -187.5t-24.5 -166.5t-48 -150.5t-84.5 -137.5t-133 -129.5t-194.5 -125.5l-57 111q34 26 61 59.5t27 75.5q0 27 -10 54t-28 48t-42.5 34t-54.5 13q-20 0 -66 -12q32 -17 58 -48.5t26 -78.5q0 -51 -35.5 -83t-91.5 -32q-27 0 -51 11t-42.5 31.5
t-29 49.5t-10.5 64q0 48 19.5 85.5t51.5 63t73 39t85 13.5q50 0 95 -16t79.5 -44t55 -66t20.5 -83q0 -22 -5 -45.5t-19 -46.5l14 -11q87 62 139 142t80.5 171.5t39 192t15.5 205.5h101z" />
    <glyph glyph-name="bn_currency3" unicode="&#x9f6;" horiz-adv-x="1234" 
d="M418 84q-33 0 -55.5 10t-36.5 26t-20 36.5t-6 42.5q0 17 8 35t20.5 36.5t29 37t34.5 36.5l10 10q28 34 49 64.5t21 58.5q0 16 -3.5 39t-16 44.5t-38 36.5t-69.5 15q-14 0 -22.5 -1.5t-16.5 -4.5q-2 0 -4 -1t-4 -1l-5 -18q25 -13 44.5 -41t19.5 -76q0 -51 -34.5 -83
t-90.5 -32q-27 0 -51 11t-42.5 31.5t-29 49.5t-10.5 64q0 48 19.5 86t51.5 64t73 39.5t85 13.5q64 0 111 -22t77.5 -56.5t45 -76.5t14.5 -83q0 -43 -22.5 -80.5t-48.5 -69.5q-22 -26 -38 -50.5t-16 -49.5q0 -21 13.5 -29t31.5 -8q58 0 108.5 23.5t94 64t80 95t65.5 117
t51.5 129t37.5 131.5t23 125t9 108h101q-4 -95 -21.5 -198t-51 -203t-84 -190t-121.5 -158t-162.5 -108t-207.5 -40z" />
    <glyph glyph-name="bn_currency4" unicode="&#x9f7;" horiz-adv-x="399" 
d="M207 1075v-991h-104v991h104z" />
    <glyph glyph-name="bn_currencyless" unicode="&#x9f8;" horiz-adv-x="925" 
d="M279 565l21 -4q17 36 47.5 71.5t75.5 66t105 54t136 35.5q17 -26 35 -49t37 -51q-45 -54 -70.5 -123t-25.5 -147q0 -72 24.5 -149.5t81.5 -151.5q-25 -13 -44.5 -25t-41.5 -24q-57 74 -89 162.5t-32 185.5q0 62 15 126t49 130q-78 -25 -129 -59t-83.5 -73t-51 -81.5
t-31.5 -83.5q-35 15 -66.5 25t-66.5 24v461q0 38 -20 62.5t-48 45.5l68 78q21 -13 39.5 -28t33 -32.5t23 -38.5t8.5 -46v-361z" />
    <glyph glyph-name="bn_currency16" unicode="&#x9f9;" horiz-adv-x="962" 
d="M449 940q74 0 136.5 -28.5t107.5 -75t70.5 -104.5t25.5 -116q0 -65 -28 -123.5t-74.5 -102.5t-108.5 -70.5t-129 -26.5t-129.5 25t-111 68.5t-78 102.5t-29.5 127q0 69 28 128t75.5 102.5t110.5 68.5t134 25zM435 848q-43 0 -83.5 -18.5t-72 -50t-50.5 -72.5t-19 -86
q0 -56 21.5 -99t56 -71.5t78.5 -43t89 -14.5q51 0 92.5 20t70.5 53.5t46.5 77t20.5 89.5q-3 43 -23.5 82t-52 68.5t-71.5 47t-83 17.5h-20z" />
    <glyph glyph-name="bn_isshar" unicode="&#x9fa;" horiz-adv-x="1275" 
d="M210 727q-2 -20 -5.5 -36.5t-3.5 -33.5q0 -82 29 -146t75.5 -108t106 -67t121.5 -23q73 0 135 30t113.5 81t93.5 118.5t74 142.5t55.5 153.5t38.5 150.5q23 -11 41 -17t41 -16q-8 -57 -29.5 -134.5t-56 -160.5t-82 -164t-108.5 -145t-135 -103.5t-162 -39.5
q-86 0 -167 27.5t-145 82.5t-102.5 136t-38.5 188q0 26 2 58t10 61zM562 915q27 0 47 -10.5t33.5 -27.5t20.5 -38.5t7 -43.5q-2 -22 -11 -41t-24 -33.5t-34.5 -22.5t-42.5 -8t-42.5 10t-34.5 26t-23.5 36t-8.5 41q0 23 8.5 43.5t24 35.5t36 24t44.5 9z" />
    <glyph glyph-name="uni09FB.ganda" unicode="&#x9fb;" horiz-adv-x="997" 
d="M515 1174l16 -102q-98 -7 -159.5 -33t-96 -59t-47 -68t-12.5 -60q0 -100 58.5 -204.5t157.5 -205.5t228.5 -194.5t272.5 -171.5l-62 -108q-180 100 -325 209.5t-247.5 223t-157.5 227.5t-55 224q0 64 35 122.5t94.5 103t137 70.5t162.5 26z" />
    <glyph glyph-name="bn_danda" unicode="&#x964;" horiz-adv-x="788" 
d="M334 1286l124 -111v-1175l-124 80v1206z" />
    <glyph glyph-name="bn_doubledanda" unicode="&#x965;" horiz-adv-x="1160" 
d="M335 1286l124 -111v-1175l-124 80v1206zM699 1286l124 -111v-1175l-124 80v1206z" />
    <glyph glyph-name="bn_k_ssa" horiz-adv-x="1617" 
d="M710 437q-17 -46 -52 -76.5t-90 -30.5q-32 0 -59 12t-47.5 32t-32 46.5t-11.5 55.5q0 28 10 54t30 46.5t48.5 33t66.5 12.5q32 0 62 -12.5t59 -31.5q-10 52 -37.5 101t-67.5 87.5t-90 63.5t-104 31q4 -15 4 -32q0 -27 -11.5 -49.5t-30.5 -38t-44.5 -24.5t-52.5 -9
t-52.5 10t-44.5 28.5t-30.5 44t-11.5 56.5q0 37 13.5 64t36 45t50.5 27.5t58 12.5q-27 33 -62 56t-72.5 36.5t-75 19.5t-69.5 6l-55 116h1692v-116h-568v-197l68.5 27.5t68.5 12.5q58 0 105.5 -25.5t82 -65t53.5 -87t19 -92.5q0 -33 -10.5 -73t-31.5 -75.5t-54 -59
t-78 -23.5q-28 0 -52.5 9t-43 26.5t-29.5 42t-11 55.5q0 21 9 42t25 38.5t38.5 28t49.5 10.5q18 0 38 -4.5t37.5 -16.5t31 -32t19.5 -51q6 14 9 29t3 28q0 45 -12 76t-34.5 50.5t-54 28t-71.5 8.5q-38 0 -82.5 -14.5t-92.5 -28.5v-781l-57 40q-25 56 -57 112.5t-70 108
t-82 97t-93 79.5zM291 1114l29.5 -61.5t21.5 -52.5q86 -12 160 -50t128 -94t84.5 -125t30.5 -141v-19t-2 -19l55.5 -51.5t47.5 -51.5t46.5 -65.5t52.5 -93.5v474q-65 2 -117.5 26t-89.5 63t-57 90t-20 108q0 15 1.5 30.5t6.5 32.5h-378zM764 982q0 -29 8.5 -50.5t22 -35
t31 -20t36.5 -6.5q23 0 43.5 2t39.5 5v237h-149q-17 -41 -24.5 -73.5t-7.5 -58.5z" />
    <glyph glyph-name="bn_j_nya" horiz-adv-x="1585" 
d="M1223 945q32 0 66 -12t61.5 -36t45.5 -60.5t18 -85.5q0 -37 -8.5 -66t-22 -51.5t-29.5 -38.5t-31 -27q15 -11 31 -27t29.5 -38.5t22 -51.5t8.5 -66q0 -49 -18 -85.5t-45.5 -60.5t-61.5 -36t-66 -12q-68 0 -133 41.5t-122 143.5q-23 -47 -58.5 -89t-83.5 -73.5t-107 -49.5
t-127 -18q-102 0 -179.5 39t-134 103t-94.5 146.5t-61 169t-32.5 170.5t-9.5 152v29l61 -44q1 -117 31.5 -227t87.5 -195.5t139.5 -137t187.5 -51.5q54 0 111 18.5t104.5 50.5t77.5 75.5t30 94.5q0 48 -31 97q-21 -11 -62.5 -23.5t-87.5 -23.5t-90.5 -18.5t-71.5 -7.5
q-126 0 -196.5 57.5t-70.5 162.5q0 66 15.5 121t36.5 97t43.5 71t36.5 42h-433v116h1605v-116h-884q-3 -14 -4 -28t-1 -29q0 -59 17 -109t45.5 -92.5t66.5 -79t80 -69.5q16 50 42.5 93.5t63.5 75.5t84.5 50.5t107.5 18.5zM1213 352q19 0 39 4.5t35.5 16.5t25.5 32t10 51
q0 16 -4 37.5t-28 39.5q-32 -39 -53.5 -50.5t-46.5 -11.5q-11 0 -27 4.5t-30.5 15.5t-25 29.5t-10.5 47.5t10.5 47.5t25 29.5t30.5 15.5t27 4.5q13 0 23.5 -1.5t21.5 -7.5t24 -17.5t30 -31.5q24 18 28.5 37.5t4.5 35.5q0 31 -10 51t-25.5 32t-35.5 16.5t-39 4.5
q-33 0 -68.5 -5t-69 -20.5t-62.5 -44t-49 -74.5q8 -19 16.5 -52.5t8.5 -70.5q0 -5 -0.5 -9t-0.5 -9q22 -36 49 -63t56.5 -46t60 -28.5t59.5 -9.5zM597 1040q-15 -10 -37 -29t-46.5 -43.5t-49 -52.5t-44 -55t-31.5 -51.5t-12 -42.5q0 -43 24 -60.5t60 -17.5q23 0 59 6
t76 15.5t80.5 21.5t73.5 25q-39 30 -66 64t-44.5 70.5t-27.5 74t-15 75.5z" />
    <glyph glyph-name="bn_ekaar.init" horiz-adv-x="719" 
d="M739 1230v-116h-174q-72 -42 -133.5 -106.5t-105.5 -144t-69 -169t-25 -181.5q0 -80 17 -160t49 -144t78 -103.5t104 -39.5q15 0 30 4t23 9q-29 5 -48 17.5t-30 28t-15.5 32t-4.5 29.5q0 60 35 98t92 38q27 0 51 -11t42.5 -29.5t29 -44t10.5 -53.5q0 -38 -16 -71.5
t-45.5 -58.5t-72 -39.5t-96.5 -14.5q-91 0 -162.5 42.5t-121 115t-75.5 169.5t-26 207q0 108 29 215.5t81.5 201t125.5 167t162 112.5h261z" />
    <glyph glyph-name="bn_aikaar.init" horiz-adv-x="731" 
d="M565 1114q-72 -42 -133.5 -106.5t-105.5 -144t-69 -169t-25 -181.5q0 -80 17 -160t49 -144t78 -103.5t104 -39.5q15 0 30 4t23 9q-29 5 -48 17.5t-30 28t-15.5 32t-4.5 29.5q0 60 35 98t92 38q27 0 51 -11t42.5 -29.5t29 -44t10.5 -53.5q0 -38 -16 -71.5t-45.5 -58.5
t-72 -39.5t-96.5 -14.5q-91 0 -162.5 42.5t-121 115t-75.5 169.5t-26 207q0 108 29 215.5t81.5 201t125.5 167t162 112.5h6q30 16 40.5 35.5t10.5 33.5q0 30 -23 46.5t-60.5 25t-85.5 13t-97.5 10t-97.5 16t-85.5 31.5t-60.5 55.5t-23 89.5q0 25 13.5 55t44.5 57l36 -28
q-25 -21 -30.5 -37.5t-5.5 -30.5q0 -27 25.5 -42.5t67 -24.5t94 -13.5t107.5 -10.5t108 -16t94.5 -29.5t66.5 -50.5t25 -80q0 -18 -6 -33.5t-15 -28.5t-20 -23.5l-21 -19.5h165v-116h-186z" />
    <glyph glyph-name="bn_reph" horiz-adv-x="0" 
d="M98 1733l-330 -353l-43 169l329 254z" />
    <glyph glyph-name="bn_ra_phala" horiz-adv-x="0" 
d="M-601 93q50 0 96 -3t86 -15t71.5 -36.5t53.5 -68.5v415l124 147v-713l-64 40q-47 50 -103.5 67t-116.5 17q-57 0 -114.5 -7.5t-111.5 -7.5q-75 0 -134.5 21t-101 58.5t-63.5 89t-22 112.5q0 41 10 84t31 89l41 -41q-9 -24 -13 -45t-4 -40q0 -51 27 -83t69 -50t93.5 -24
t101.5 -6h44z" />
    <glyph glyph-name="bn_ya_phala" horiz-adv-x="644" 
d="M664 1114h-190q-39 -5 -68.5 -26t-50 -52t-31 -69.5t-10.5 -77.5q0 -63 10 -111.5t22 -95.5t22 -99t10 -122q0 -45 -5 -97t-17.5 -103t-34 -98.5t-53.5 -83.5t-76 -57.5t-102 -21.5l-10 72q50 10 83.5 33t53.5 54.5t28.5 70.5t8.5 82q0 55 -10.5 115.5t-22.5 121
t-22.5 119t-10.5 111.5q0 34 5 76.5t20.5 86.5t43.5 88.5t74 83.5h-331v116h664v-116z" />
    <glyph glyph-name="bn_ba_phala" horiz-adv-x="0" 
d="M-170 -219l-58 34q-35 39 -76 77t-92 73.5t-112.5 67t-137.5 57.5l-4 11.5t-8 25t-8 25t-4 12.5q39 38 96 83.5t124 84.5t139 65.5t141 26.5v-643zM-488 130q39 -22 68.5 -44t53 -44t41 -43t31.5 -40v296q-54 -11 -102 -44t-92 -81z" />
    <glyph glyph-name="bn_ka_halanth" horiz-adv-x="1330" 
d="M777 0l-60 40q-34 88 -81 165.5t-107 139t-133.5 104.5t-161.5 62l-154 188q63 72 138.5 128t152 95t150 60.5t132.5 24.5v107h-653v116h1380v-116h-603v-107q74 0 148 -30t133 -85.5t95.5 -134.5t36.5 -177q0 -54 -14.5 -96.5t-39.5 -72t-58.5 -45.5t-71.5 -16
q-29 0 -54 10.5t-43.5 29t-29.5 42.5t-11 51q0 57 38 92t98 35q13 0 30 -4t33.5 -14.5t29.5 -28.5t18 -47q9 9 14 27.5t5 33.5q0 77 -34.5 130.5t-87.5 86.5t-116 48t-119 15v-857zM653 857q-54 -5 -101.5 -18t-93.5 -36t-93 -58.5t-100 -85.5q123 -43 222.5 -140.5
t165.5 -252.5v591zM666 -136l77 92l335 -342h-95z" />
    <glyph glyph-name="bn_kha_halanth" horiz-adv-x="1202" 
d="M768 899q0 -64 -25 -112t-64 -83t-86 -58t-91 -38q36 -15 86.5 -43t105.5 -70t111 -99t103 -131v1181l124 -111v-105h190v-116h-190v-1114l-60 40q-29 82 -91 159t-143 140t-174 108t-183 63l-150 189q33 0 79 8.5t95.5 24.5t98 38.5t87 50t62.5 60.5t24 70q0 58 -22 99
t-51 64q-27 -66 -66.5 -105.5t-84 -59.5t-89.5 -26t-83 -6q-45 0 -81.5 11.5t-63 31t-41 45t-14.5 54.5q0 57 31.5 87.5t91.5 30.5q18 0 37 -7t35 -21t26 -34.5t10 -47.5q0 -5 -3 -19t-9.5 -30.5t-17.5 -32t-27 -23.5h7q37 0 69.5 20.5t60.5 56.5t50.5 85t39.5 106
q57 -16 109 -46t91 -72t62.5 -96t23.5 -117zM880 -136l77 92l335 -342h-95z" />
    <glyph glyph-name="bn_ga_halanth" horiz-adv-x="1054" 
d="M760 1446l124 -111v-105h190v-116h-190v-1114l-124 80v734q-52 68 -96 118t-86 83t-86 49t-97 16q-36 0 -67 -10t-54 -28t-36 -43.5t-13 -56.5q0 -4 0.5 -11.5t2.5 -11.5q7 4 20 9.5t30 10t36.5 7.5t37.5 3q46 0 81.5 -14.5t60 -39.5t37 -58t12.5 -70q0 -34 -14 -68.5
t-36 -67.5t-49 -63.5t-51.5 -54.5t-44 -41l-27.5 -24l-109 105q116 92 178 160t62 110q0 31 -22 46.5t-57 15.5q-24 0 -54.5 -11t-61 -27t-58 -33.5t-45.5 -30.5q-38 32 -56 78t-18 84q0 58 22.5 110t63 91t97.5 61.5t125 22.5q54 0 104.5 -23.5t98 -62.5t90 -90t79.5 -107
v499zM740 -136l77 92l335 -342h-95z" />
    <glyph glyph-name="bn_gha_halanth" horiz-adv-x="1025" 
d="M0 1230h1045v-116h-190v-1114l-60 40q-34 88 -86.5 155t-120 116t-147 81.5t-167.5 51.5l-145 149l77.5 56.5t82.5 66l80 69.5t71 68q-15 -8 -33 -14t-36.5 -11t-36 -7.5t-32.5 -2.5q-45 0 -85 13t-70.5 37t-48.5 58.5t-18 77.5q0 30 13 59.5t38 50.5h-131v116zM587 838
q-35 -40 -62.5 -68.5l-54.5 -54l-57.5 -53l-73.5 -66.5q46 -14 100 -42t107 -69.5t101.5 -96t83.5 -122.5v848h-435q-33 -23 -48 -49.5t-15 -60.5q0 -23 10.5 -43t28.5 -35t43 -23.5t54 -8.5q44 0 75.5 10t49.5 26zM711 -136l77 92l335 -342h-95z" />
    <glyph glyph-name="bn_nga_halanth" horiz-adv-x="1199" 
d="M614 614q41 0 77.5 14t65.5 35t49 44.5t29 43.5q75 -46 122.5 -80t74.5 -67t36.5 -69.5t9.5 -86.5q0 -54 -19 -99.5t-50.5 -82.5t-73 -65t-86 -47t-89.5 -28.5t-84 -9.5q-108 0 -190.5 32t-143.5 87.5t-104 130t-71 160.5t-44.5 178.5t-25.5 183.5l61 -47q10 -66 27 -134
t43.5 -132t64 -120.5t89.5 -98.5t120.5 -66.5t156.5 -24.5q57 0 116.5 18.5t108.5 51.5t80.5 77.5t31.5 97.5q0 19 -6 33.5t-15.5 24.5t-20.5 16.5t-20 8.5q-30 -52 -72 -81t-83 -43.5t-74.5 -17.5t-46.5 -3q-44 0 -85 20.5t-72.5 60.5t-51 97.5t-19.5 132.5q0 23 1.5 47
t3.5 47q-53 25 -99.5 58.5t-86 69.5t-71 71l-54.5 62l103 116q56 -85 115.5 -144.5t121.5 -96.5q16 50 40 94t56 76.5t72 51.5t88 19q45 0 84 -12t68 -37.5t45.5 -64.5t16.5 -92q0 -54 -24.5 -94.5t-66.5 -67.5t-97.5 -40.5t-117.5 -13.5q-23 0 -49.5 4.5t-48.5 9.5
q-9 -23 -10.5 -35.5t-1.5 -28.5q0 -29 7.5 -55t21 -45.5t30.5 -31.5t37 -12zM701 919q34 0 64.5 6.5t53 19.5t35.5 33t13 48q0 17 -8 29t-19.5 20t-24.5 11.5t-23 3.5q-73 0 -125.5 -43.5t-85.5 -110.5q30 -9 60.5 -13t59.5 -4zM585 -136l77 92l335 -342h-95z" />
    <glyph glyph-name="bn_ca_halanth" horiz-adv-x="987" 
d="M305 334q0 -22 3 -35.5t8.5 -21t13.5 -10.5t17 -3q21 0 53.5 18.5t69 48t73.5 66.5t67 75t48.5 72.5t18.5 58.5q0 14 -21 36t-54 49l-74.5 59.5l-83 67.5t-78.5 73t-61 76v-630zM305 1071q45 -54 103 -99.5t118 -84.5l118 -74t103 -69t72.5 -68.5t27.5 -72.5
q0 -33 -27.5 -83.5t-71.5 -106.5t-100 -112.5t-112.5 -101.5t-108.5 -73.5t-89 -28.5q-35 0 -64 11.5t-50 30t-32.5 43.5t-11.5 52v880h-180v116h1037v-116h-732v-43zM203 -136l77 92l335 -342h-95z" />
    <glyph glyph-name="bn_cha_halanth" horiz-adv-x="1141" 
d="M581 949q23 0 50.5 3.5l55.5 7l54.5 7t47.5 3.5q36 0 73.5 -10.5t67.5 -35t49.5 -66t19.5 -103.5q0 -93 -35 -174.5t-97.5 -146t-147 -109.5t-183.5 -66q51 -12 112.5 -33t126.5 -55.5t129 -84t120 -117.5v-70q-80 72 -175.5 120.5t-192.5 80t-188.5 49.5t-163.5 30
l-112 207q32 -11 64 -15.5t65 -4.5q118 0 220 39t177.5 101.5t118.5 140.5t43 156q0 22 -9.5 36t-23 21t-29 9.5t-27.5 2.5q-29 0 -58.5 -9t-52.5 -15q-6 -83 -39.5 -144t-81 -101t-103 -59t-105.5 -19q-37 0 -68.5 12t-54 37.5t-35.5 66t-13 96.5v377h-180v116h1161v-116
h-857q21 -35 53.5 -65t70 -52t77.5 -35t76 -13zM304 737q6 -40 19 -57.5t45 -17.5q28 0 60.5 8.5t61.5 29.5t50.5 55.5t26.5 86.5q-21 0 -57 9t-74.5 28.5t-74 50t-57.5 73.5v-266zM527 -136l77 92l335 -342h-95z" />
    <glyph glyph-name="bn_ja_halanth" horiz-adv-x="1355" 
d="M1375 1114h-630q5 -33 26.5 -62t53.5 -51t72.5 -34.5t83.5 -12.5q35 0 70.5 9.5t68.5 29.5l154 -166q-33 -29 -61.5 -75.5t-49 -106.5t-32.5 -131.5t-12 -150.5q0 -86 16 -177.5t51 -185.5q-1 0 -18 6l-37.5 13.5l-37.5 13.5l-17 6l-32 121.5t-25.5 111t-16.5 104
t-6 100.5q0 82 18 167.5t59 186.5q-45 -12 -94 -12q-57 0 -114.5 16t-108.5 45t-92.5 70t-66.5 91q-15 -10 -37 -29t-46.5 -43.5t-49 -52.5t-44 -55t-31.5 -51.5t-12 -42.5q0 -43 24 -60.5t60 -17.5q33 0 72 11.5t75 28t65 35t43 32.5q42 -24 72.5 -56t51 -68.5t30 -77
t9.5 -80.5q0 -60 -20.5 -117t-59.5 -101.5t-95 -71.5t-128 -27q-97 0 -171 35.5t-129 94t-92.5 134t-60 156.5t-32.5 161.5t-10 148.5v29l61 -44q1 -117 30.5 -219t84 -177t131.5 -118.5t172 -43.5q35 0 79 13.5t83 38t65.5 58t26.5 74.5q0 23 -10.5 48t-33.5 51l-48 -24.5
t-55.5 -25.5t-58.5 -20t-57 -8q-72 0 -120 15.5t-77 45t-41 71t-12 93.5q0 66 15.5 121t36.5 97t43.5 71t36.5 42h-433v116h1375v-116zM1041 -136l77 92l335 -342h-95z" />
    <glyph glyph-name="bn_jha_halanth" horiz-adv-x="1361" 
d="M703 883q-58 -13 -120 -40.5t-119 -62t-104.5 -73t-76.5 -74.5q61 -21 125 -57.5t121 -84t103 -105t71 -120.5v617zM827 622q30 -22 57 -45.5t55.5 -55t59 -74t68.5 -101.5v1100l124 -111v-105h190v-116h-190v-1014l-60 40q-20 51 -54 98t-75.5 90t-87 81.5t-87.5 70.5
v-480l-60 40q-34 88 -88.5 165.5t-124 139t-151 104.5t-169.5 62l-154 188q87 79 162.5 137t148.5 100t148.5 70t163.5 48v60h-703v116h827v-608zM697 -136l77 92l335 -342h-95z" />
    <glyph glyph-name="bn_nya_halanth" horiz-adv-x="1595" 
d="M1007 744q18 -51 45.5 -96t62 -78t75.5 -52.5t87 -19.5q24 0 47 6t41 19t29 34.5t11 52.5q0 16 -6.5 41t-29.5 49q-26 -34 -53 -43.5t-53 -9.5q-11 0 -27 4.5t-30.5 15.5t-25 29.5t-10.5 47.5t10.5 47.5t25 29.5t30.5 15.5t27 4.5q26 0 53 -9.5t53 -43.5q23 24 29.5 49
t6.5 41q0 31 -11 52.5t-29 34.5t-41 19t-47 6q-46 0 -87 -19.5t-75.5 -52.5t-62 -78t-45.5 -96zM1012 951q29 55 61.5 93t67 62t70.5 34.5t71 10.5q39 0 77 -15t68.5 -43t49.5 -67.5t19 -88.5q0 -37 -8.5 -68t-22 -55t-29.5 -41.5t-31 -28.5q15 -11 31 -28.5t29.5 -41.5
t22 -55t8.5 -68q0 -49 -19 -88.5t-49.5 -67.5t-68.5 -43t-77 -15q-35 0 -71 10.5t-70.5 34.5t-67 62t-61.5 93v-537l-64 40q-33 40 -68 63.5t-73.5 36t-80.5 16t-90 3.5q-60 0 -120 -5t-114 -5q-75 0 -134.5 21t-101 58.5t-63.5 89t-22 112.5q0 41 10 84t31 89l41 -41
q-9 -24 -13 -45t-4 -40q0 -51 27 -83t69 -50t93.5 -24t101.5 -6q29 0 58.5 0.5t58.5 0.5q51 0 100.5 -7.5t93.5 -26t80 -50t60 -80.5v849q0 45 -31 66.5t-85 21.5q-31 0 -78.5 -11t-102.5 -42t-112 -87t-106 -146q41 42 76 57t70 15t61 -12.5t43.5 -32t26.5 -44.5t9 -49
q0 -34 -13 -60t-34.5 -43t-50.5 -26t-61 -9q-41 0 -73.5 14.5t-55 38.5t-34.5 55.5t-12 66.5q0 64 22 123t59 110t86.5 92.5t103.5 70.5t110 45t107 16q43 0 79.5 -7t63 -28.5t41.5 -61.5t15 -106v-76zM881 -136l77 92l335 -342h-95z" />
    <glyph glyph-name="bn_tta_halanth" horiz-adv-x="967" 
d="M1017 1230v-116h-713v-727q0 -23 6.5 -43.5t19.5 -36t31 -25t42 -9.5q35 0 75 13t80 36t77 54t65.5 67t45.5 75t17 78q0 5 -2 13q-34 -35 -66.5 -50.5t-62.5 -15.5q-32 0 -59 12t-46.5 32t-31 47t-11.5 56q0 33 11.5 62t32 51t47.5 35t59 13q58 0 95.5 -26t59.5 -65.5
t30 -87.5t8 -92q0 -117 -41 -207t-105 -151.5t-141.5 -93t-150.5 -31.5q-11 0 -31 2.5t-43 11t-47 24.5t-43.5 42.5t-32 66t-12.5 95.5v775h-180v116h581q30 16 43.5 35.5t13.5 33.5q0 30 -23 46.5t-60.5 25t-85.5 13t-97.5 10t-97.5 16t-85.5 31.5t-60.5 55.5t-23 89.5
q0 25 13.5 55t44.5 57l36 -28q-25 -21 -30.5 -37.5t-5.5 -30.5q0 -27 25.5 -42.5t67 -24.5t94 -13.5t107.5 -10.5t108 -16t94.5 -29.5t66.5 -50.5t25 -80q0 -18 -6 -33.5t-15 -28.5t-20 -23.5l-21 -19.5h328zM283 -136l77 92l335 -342h-95z" />
    <glyph glyph-name="bn_ttha_halanth" horiz-adv-x="982" 
d="M1032 1230v-116h-461q49 -67 97.5 -140.5t87 -149t62.5 -151t24 -147.5q0 -84 -23.5 -162t-71 -137t-119 -94.5t-167.5 -35.5q-83 0 -152.5 27t-119.5 74.5t-78.5 112t-28.5 138.5q0 59 16 106q67 21 124.5 61.5t98.5 96.5t64.5 124.5t23.5 144.5q0 69 -24 132h-385v116
h381q-34 46 -63.5 93t-51.5 93.5t-34.5 93.5t-12.5 95q0 64 26 128.5t87 131.5l130 -96q-56 -54 -80 -108.5t-24 -111.5q0 -77 37.5 -157t93.5 -162h543zM535 898q0 -77 -22 -147.5t-63.5 -130t-102 -105t-137.5 -72.5q0 -98 62 -155.5t179 -57.5q65 0 117.5 22.5t89 63.5
t56 97t19.5 124q0 61 -19 128.5t-50 133t-69 125.5t-76 108q6 -27 9 -45.5t4.5 -32.5t2 -27t0.5 -29zM398 -136l77 92l335 -342h-95z" />
    <glyph glyph-name="bn_dda_halanth" horiz-adv-x="1236" 
d="M1286 1114h-664v-457q0 -26 21 -26q15 0 46.5 16t69 47.5t74.5 77t63 105.5q52 -39 89.5 -84.5t62 -95t36 -100.5t11.5 -100q0 -95 -31.5 -169.5t-86 -125.5t-127.5 -78t-157 -27q-123 0 -229 60.5t-186.5 175.5t-131 282t-63.5 380l64 -38q5 -71 23 -150.5t50 -158
t77 -150t104 -126t132 -87t160 -32.5q73 0 133 23t103 62.5t66 93t23 114.5q0 18 -2.5 39.5t-8.5 43.5t-17 44t-29 41q-32 -61 -72.5 -108t-82.5 -79t-83.5 -48.5t-75.5 -16.5q-83 0 -116 54t-33 158v440h-498v116h1286v-116zM592 -136l77 92l335 -342h-95z" />
    <glyph glyph-name="bn_ddha_halanth" horiz-adv-x="967" 
d="M1017 1114h-713v-727q0 -23 6.5 -43.5t19.5 -36t31 -25t42 -9.5q35 0 75 13t80 36t77 54t65.5 67t45.5 75t17 78q0 5 -2 13q-34 -35 -66.5 -50.5t-62.5 -15.5q-32 0 -59 12t-46.5 32t-31 47t-11.5 56q0 33 11.5 62t32 51t47.5 35t59 13q58 0 95.5 -26t59.5 -65.5
t30 -87.5t8 -92q0 -117 -41 -207t-105 -151.5t-141.5 -93t-150.5 -31.5q-11 0 -31 2.5t-43 11t-47 24.5t-43.5 42.5t-32 66t-12.5 95.5v775h-180v116h1017v-116zM253 -136l77 92l335 -342h-95z" />
    <glyph glyph-name="bn_nna_halanth" horiz-adv-x="1016" 
d="M348 1090q-37 0 -75 -12.5t-68.5 -36t-50 -58.5t-19.5 -80q0 -18 4 -35.5t12 -25.5q6 27 19 44.5t29.5 27t34 13t32.5 3.5q57 -3 93 -38.5t36 -95.5q0 -26 -11.5 -49t-31 -40t-45.5 -27t-56 -10q-36 0 -67.5 17t-54.5 48.5t-36 75t-13 96.5q0 67 18 125.5t51.5 102.5
t81.5 69.5t108 25.5q49 0 101.5 -23.5t102.5 -62.5t96 -90t83 -107v499l124 -111v-105h190v-116h-190v-1114l-124 80v756q-86 118 -177.5 186t-196.5 68zM702 -136l77 92l335 -342h-95z" />
    <glyph glyph-name="bn_ta_halanth" horiz-adv-x="1294" 
d="M1121 1114h-1121v116h1344v-116h-223zM765 97q-110 0 -198 45t-157 118.5t-121 167.5t-89 192.5t-61 193.5t-38 171l58 -27q20 -74 47.5 -155t64 -160t83.5 -151t106 -126.5t132 -86.5t161 -32q79 0 132 27.5t85.5 70.5t46 96.5t13.5 106.5q0 56 -8.5 110t-32 101.5
t-64.5 85t-106 60.5q14 -18 29 -45.5t15 -57.5q0 -27 -13.5 -49.5t-35.5 -38.5t-48.5 -25t-51.5 -9q-24 0 -52 9.5t-52 28t-40 46.5t-16 65q0 34 15 62.5t41 49.5t60 32.5t73 11.5q96 0 172 -37.5t129 -99.5t81.5 -141.5t28.5 -162.5q0 -105 -31.5 -187.5t-85 -140.5
t-124 -88.5t-148.5 -30.5zM690 -136l77 92l335 -342h-95z" />
    <glyph glyph-name="bn_tha_halanth" horiz-adv-x="1077" 
d="M391 561q40 -18 90.5 -45t103.5 -63.5t104.5 -83t93.5 -104.5v1181l124 -111v-105h190v-116h-190v-1114l-60 40q-38 86 -103.5 160t-148 133t-177.5 101.5t-191 65.5l-148 162q54 1 111.5 10t113 25.5t105.5 40.5t87.5 54.5t59.5 67t22 79.5q0 42 -21 75t-53.5 55
t-72 33.5t-77.5 11.5q-58 0 -107 -21.5t-91 -78.5q10 4 23 10t26 11t24.5 9t19.5 4q42 0 66.5 -15t38 -35.5t17.5 -40.5t4 -30q0 -25 -11.5 -46t-29.5 -36.5t-41 -24.5t-46 -9q-33 0 -58.5 14.5t-43 37.5t-27 52.5t-9.5 59.5q0 62 23.5 109.5t61 80t85 49t94.5 16.5
q64 0 114.5 -25.5t85 -67.5t52.5 -95.5t18 -108.5q0 -65 -15.5 -118.5t-47 -98.5t-79 -83.5t-110.5 -71.5zM764 -136l77 92l335 -342h-95z" />
    <glyph glyph-name="bn_da_halanth" horiz-adv-x="1043" 
d="M1063 1114h-759v-491q42 58 99.5 111t121 97t128 76.5t120.5 47.5l166 -122q-62 -124 -86 -238.5t-24 -229.5q0 -47 3 -90t8 -87t13 -90t18 -98l-73 50q-32 128 -53.5 242t-21.5 228q0 62 7 124.5t24 128.5q-50 -15 -112 -52t-124 -90.5t-118.5 -122t-95.5 -146.5
l-124 159v593h-180v116h1063v-116zM729 -136l77 92l335 -342h-95z" />
    <glyph glyph-name="bn_dha_halanth" horiz-adv-x="995" 
d="M826 1114v-1114l-60 40q-34 88 -88.5 165.5t-124 139t-151 104.5t-169.5 62l-154 188l83 73.5l78 64.5q-32 12 -58.5 34t-46.5 50.5t-31 63t-11 71.5q0 34 12 65.5t33 55.5t50 38.5t62 14.5q28 0 52.5 -10.5t42.5 -28.5t28.5 -41.5t10.5 -49.5q0 -27 -12 -51t-30.5 -41
t-42 -27t-47.5 -10q-21 0 -43.5 9t-42.5 35q7 -26 22 -48t34.5 -38.5t42.5 -27t47 -12.5q94 64 187.5 103t202.5 62v176h313v-116h-189zM702 903q-69 -8 -134 -34.5t-121 -62.5t-100.5 -76t-72.5 -74q42 -18 99.5 -52t117.5 -83.5t116 -113t95 -141.5v637zM681 -136l77 92
l335 -342h-95z" />
    <glyph glyph-name="bn_na_halanth" horiz-adv-x="1071" 
d="M355 710q32 -20 52 -56t20 -84q0 -26 -12 -53t-33.5 -49t-51.5 -35.5t-65 -13.5q-31 0 -63.5 10.5t-59.5 34t-44.5 59.5t-17.5 87q0 55 22.5 98t58.5 72t82 44t93 15q58 0 109.5 -16t95.5 -43t81.5 -62t67 -73.5t51.5 -78t36 -74.5v622h-777v116h1091v-116h-190v-1114
l-124 80v257q-35 79 -85 147t-107 118t-116.5 79t-113.5 29zM757 -136l77 92l335 -342h-95z" />
    <glyph glyph-name="bn_pa_halanth" horiz-adv-x="1256" 
d="M962 1446l124 -111v-105h190v-116h-190v-1114l-124 80v608l-14 23l-75 116t-75 104l-333 -344l-125 60l34 35l34 36q26 49 26 93q0 52 -33 82.5t-82 30.5q-23 0 -49 -7.5t-52 -24.5q1 0 -20 8.5l-46.5 19l-46.5 19.5t-21 10q33 59 76.5 110t93.5 89t107 60t117 22
q90 0 156 -30t121 -85t104 -132t103 -171v634zM518 1114q-43 0 -80 -14.5t-66.5 -34.5t-49 -41t-27.5 -34q25 6 49 6q34 0 62 -11.5t48.5 -31t32 -45.5t11.5 -56q0 -16 -5 -38l215 215q-45 40 -91.5 62.5t-98.5 22.5zM942 -136l77 92l335 -342h-95z" />
    <glyph glyph-name="bn_pha_halanth" horiz-adv-x="1423" 
d="M870 0l-60 40q-57 105 -125.5 173t-140.5 111t-144.5 66t-137.5 38l-144 171q31 37 71 78t88.5 80.5t105.5 76t123 65.5q-63 58 -136 98.5t-143 66.5t-130 38t-97 12l-59 116h1532v-116h-1094q36 -21 76.5 -59t78.5 -83t69.5 -93t49.5 -88q-50 -19 -99 -46t-94 -58
t-85 -64.5t-70 -65.5q61 -21 114.5 -44t106 -55.5t106 -78.5t114.5 -113v683h124q88 0 168.5 -31t141.5 -86.5t97 -132.5t36 -169q0 -54 -14.5 -96.5t-39.5 -72t-58.5 -45.5t-71.5 -16q-29 0 -54 10.5t-43.5 29t-29.5 42.5t-11 51q0 57 38 92t98 35q13 0 30 -4t33.5 -14.5
t29.5 -28.5t18 -47q9 9 14 27.5t5 33.5q0 72 -37.5 123.5t-95 84.5t-125.5 48.5t-129 15.5v-799zM739 -136l77 92l335 -342h-95z" />
    <glyph glyph-name="bn_ba_halanth" horiz-adv-x="998" 
d="M704 889q-43 -2 -88 -16.5t-88 -36.5t-83 -48.5t-73 -53t-57 -51t-36 -40.5q44 -17 101.5 -49t116.5 -79t113.5 -109t93.5 -140v623zM0 1114v116h1018v-116h-190v-1114l-60 40q-34 88 -88.5 165.5t-124 139t-151 104.5t-169.5 62l-154 188q76 79 148.5 138.5t147 102.5
t154.5 71t173 43v60h-704zM684 -136l77 92l335 -342h-95z" />
    <glyph glyph-name="bn_bha_halanth" horiz-adv-x="1355" 
d="M1405 1114h-1405v116h1405v-116zM782 60q-46 0 -101.5 18.5t-116 61t-124.5 113.5t-126.5 175.5t-121.5 246.5t-110 328l89 -62q33 -95 69.5 -185t79 -170.5t91 -148t105.5 -116t123 -76t143 -27.5q68 0 119.5 21t89.5 54.5t63.5 77t41 88t22 86.5t6.5 74q0 12 -1.5 28
t-4.5 33.5t-8 34t-12 28.5q-57 -46 -108.5 -73.5t-97 -42t-85.5 -19t-73 -4.5q-48 0 -90 15t-73.5 42t-50 65t-18.5 84q0 35 12 65t33.5 51.5t50 34t61.5 12.5q31 0 58.5 -11t48.5 -30.5t33 -46t12 -57.5q0 -58 -30.5 -96t-79.5 -57q62 8 111 29t86 48.5t64 59t45 61t28 55
t14 41.5q53 -32 85.5 -74t50.5 -87t24 -88.5t6 -78.5q0 -72 -10.5 -143t-32 -135.5t-56 -120t-82.5 -96t-111 -63.5t-141 -23zM718 -136l77 92l335 -342h-95z" />
    <glyph glyph-name="bn_ma_halanth" horiz-adv-x="1159" 
d="M932 40q-18 63 -49 126t-76.5 120.5t-106 106.5t-138.5 84q-26 -52 -59.5 -71t-85.5 -19q-21 0 -47.5 8.5t-49.5 27t-39 48.5t-16 72q0 25 8.5 51.5t27 48.5t47 35.5t68.5 13.5q29 0 55.5 -12t42.5 -25q0 61 -21.5 117t-59 104t-87.5 88t-107.5 70.5t-118.5 50.5t-120 29
l-55 116h1234v-116h-190v-1114zM614 692q0 -28 -3 -49t-7 -41q48 -34 117 -92.5t144 -156.5v761h-529q56 -24 106.5 -70.5t88.5 -105t60.5 -122.5t22.5 -124zM845 -136l77 92l335 -342h-95z" />
    <glyph glyph-name="bn_ya_halanth" horiz-adv-x="1036" 
d="M742 1114h-367q36 -21 76.5 -59t78.5 -83t69.5 -93t49.5 -88q-50 -19 -99 -46t-94 -58t-85 -64.5t-70 -65.5q61 -21 114.5 -44t106 -55.5t106 -78.5t114.5 -113v848zM502 899q-63 58 -134 97t-139.5 64t-128.5 37.5t-100 16.5l-59 116h1115v-116h-190v-1114l-60 40
q-57 105 -125.5 173t-140.5 111t-144.5 66t-137.5 38l-144 171q31 37 71 78t88.5 80.5t105.5 76t123 65.5zM722 -136l77 92l335 -342h-95z" />
    <glyph glyph-name="bn_la_halanth" horiz-adv-x="1179" 
d="M1009 1114v-1114l-124 80v503q-9 23 -23.5 50t-33.5 50.5t-41 39.5t-46 16q-26 0 -47 -14.5t-36.5 -36t-25.5 -47.5t-14 -49h-50q-26 41 -51 69t-52.5 45.5t-59 25t-69.5 7.5q-28 0 -60.5 -12.5t-60 -36.5t-46 -59t-18.5 -79q0 -34 9 -59t21.5 -43t26 -29t21.5 -17
q-16 36 -16 68q0 28 11 50.5t28.5 38t39 23.5t42.5 8q29 0 54.5 -10t44 -27.5t29 -41t10.5 -51.5q0 -29 -11.5 -53.5t-32.5 -42t-49.5 -27.5t-62.5 -10q-46 0 -88.5 20t-75.5 56.5t-52.5 87.5t-19.5 114q0 65 20.5 117.5t56 89t83.5 56t104 19.5q43 0 81.5 -14.5t70 -39.5
t56 -60t38.5 -75q4 37 18 71t33.5 60.5t44 42t51.5 15.5t50.5 -15t42.5 -39t33 -54.5t22 -61.5v395h-885v116h1199v-116h-190zM865 -136l77 92l335 -342h-95z" />
    <glyph glyph-name="bn_sha_halanth" horiz-adv-x="1182" 
d="M888 1446l124 -111v-105h190v-116h-190v-1114l-124 80v727q-17 44 -44.5 94t-62.5 92.5t-75 70.5t-80 28q-16 0 -32 -7t-29.5 -19.5t-23.5 -28.5t-14 -34q23 -18 49.5 -42.5t48.5 -53.5t36.5 -61.5t14.5 -67.5q0 -66 -37 -101.5t-92 -35.5q-45 0 -82 30t-69 84
q-10 -24 -27.5 -45t-39 -36.5t-47 -24t-51.5 -8.5q-29 0 -51.5 11t-38.5 29.5t-24.5 42.5t-8.5 50q0 34 15 67.5t39.5 63.5t56 55t64.5 43q-15 42 -36 64.5t-44 33t-46.5 12t-43.5 1.5h-113v116h111q41 0 83.5 -15t79 -42.5t65 -66t40.5 -84.5q23 95 81 151.5t148 56.5
q28 0 58 -15.5t58.5 -40.5t55 -56t48.5 -62.5t37.5 -60t22.5 -48.5v499zM868 -136l77 92l335 -342h-95z" />
    <glyph glyph-name="bn_ssa_halanth" horiz-adv-x="1037" 
d="M0 1114l-59 116h1116v-116h-190v-1114l-60 40q-61 105 -129.5 173t-140 110.5t-142.5 66t-136 38.5l-144 171q28 34 66.5 72.5t85 77t100 74.5t111.5 66q-44 38 -101 77t-120 71.5t-129.5 53.5t-127.5 23zM302 557q61 -21 117.5 -47.5t110.5 -61t107 -79t106 -103.5v339
l-76.5 88.5l-67.5 75.5q-43 -20 -85 -45t-80.5 -53t-72 -57t-59.5 -57zM743 1114h-391q59 -31 116.5 -82.5t108.5 -110.5t94 -120t72 -110v423zM723 -136l77 92l335 -342h-95z" />
    <glyph glyph-name="bn_sa_halanth" horiz-adv-x="1201" 
d="M-55 1230h1276v-116h-190v-1114l-124 80v558q-13 21 -30.5 41t-37 35.5t-40 25t-38.5 9.5q-41 0 -73 -26t-60 -65.5t-54 -85.5t-54.5 -85.5t-62.5 -65.5t-77 -26q-54 0 -93 22.5t-68.5 58t-51.5 78t-40 81.5l54 46q8 -20 20.5 -42t28.5 -40t35 -30t40 -12q30 0 57 19
t52.5 49.5t50 68l49.5 74.5q-24 65 -62.5 116t-85 88.5t-97 63.5t-100 43t-93.5 25t-76 10zM704 921q28 0 57 -20t56.5 -48t50.5 -59l39 -53v373h-532q23 -16 48 -39t50 -57t47.5 -79.5t41.5 -105.5q32 38 66 63t76 25zM887 -136l77 92l335 -342h-95z" />
    <glyph glyph-name="bn_ha_halanth" horiz-adv-x="1015" 
d="M1065 1230v-116h-714q9 -7 24.5 -21.5t29.5 -37.5q73 0 141 -22t121 -63t85 -99.5t32 -132.5q0 -68 -31 -121t-79.5 -90.5t-107.5 -58.5t-114 -24l93.5 -44t99.5 -55t109.5 -82.5t123.5 -126.5l52 -135q-90 99 -183.5 169t-188.5 116.5t-190.5 72.5t-191.5 37l-85 236
q17 -2 43.5 -11.5l60 -21t72 -20.5t79.5 -9q40 0 90 14t94 40t74 63.5t30 85.5t-15.5 82t-42 57.5t-62 36.5t-75.5 18q17 -22 23.5 -48t6.5 -46q0 -35 -13.5 -62.5t-36 -47t-51 -30t-59.5 -10.5q-29 0 -57 11t-50 31t-35 49t-13 64q0 34 12.5 61t33.5 47.5t49 34.5t60 22
q-5 15 -20.5 35t-43.5 36h-245v116h1065zM431 -136l77 92l335 -342h-95z" />
    <glyph glyph-name="bn_rra_halanth" horiz-adv-x="1236" 
d="M852 -136l77 92l335 -342h-95zM1286 1114h-664v-457q0 -26 21 -26q15 0 46.5 16t69 47.5t74.5 77t63 105.5q52 -39 89.5 -84.5t62 -95t36 -100.5t11.5 -100q0 -95 -31.5 -169.5t-86 -125.5t-127.5 -78t-157 -27q-123 0 -229 60.5t-186.5 175.5t-131 282t-63.5 380l64 -38
q5 -71 23 -150.5t50 -158t77 -150t104 -126t132 -87t160 -32.5q73 0 133 23t103 62.5t66 93t23 114.5q0 18 -2.5 39.5t-8.5 43.5t-17 44t-29 41q-32 -61 -72.5 -108t-82.5 -79t-83.5 -48.5t-75.5 -16.5q-83 0 -116 54t-33 158v440h-498v116h1286v-116zM520 -104q0 21 8 40
t22 33.5t33 22.5t40 8t40 -8t33.5 -22.5t22.5 -33.5t8 -40t-8 -40t-22.5 -33t-33.5 -22t-40 -8t-40 8t-33 22t-22 33t-8 40z" />
    <glyph glyph-name="bn_rha_halanth" horiz-adv-x="967" 
d="M683 -136l77 92l335 -342h-95zM1017 1114h-713v-727q0 -23 6.5 -43.5t19.5 -36t31 -25t42 -9.5q35 0 75 13t80 36t77 54t65.5 67t45.5 75t17 78q0 5 -2 13q-34 -35 -66.5 -50.5t-62.5 -15.5q-32 0 -59 12t-46.5 32t-31 47t-11.5 56q0 33 11.5 62t32 51t47.5 35t59 13
q58 0 95.5 -26t59.5 -65.5t30 -87.5t8 -92q0 -117 -41 -207t-105 -151.5t-141.5 -93t-150.5 -31.5q-11 0 -31 2.5t-43 11t-47 24.5t-43.5 42.5t-32 66t-12.5 95.5v775h-180v116h1017v-116zM380 -97q0 21 8 40t22 33.5t33 22.5t40 8t40 -8t33.5 -22.5t22.5 -33.5t8 -40
t-8 -40t-22.5 -33t-33.5 -22t-40 -8t-40 8t-33 22t-22 33t-8 40z" />
    <glyph glyph-name="bn_yya_halanth" horiz-adv-x="1036" 
d="M722 -136l77 92l335 -342h-95zM742 1114h-367q36 -21 76.5 -59t78.5 -83t69.5 -93t49.5 -88q-50 -19 -99 -46t-94 -58t-85 -64.5t-70 -65.5q61 -21 114.5 -44t106 -55.5t106 -78.5t114.5 -113v848zM502 899q-63 58 -134 97t-139.5 64t-128.5 37.5t-100 16.5l-59 116h1115
v-116h-190v-1114l-60 40q-57 105 -125.5 173t-140.5 111t-144.5 66t-137.5 38l-144 171q31 37 71 78t88.5 80.5t105.5 76t123 65.5zM260 103q0 21 8 40t22 33.5t33 22.5t40 8t40 -8t33.5 -22.5t22.5 -33.5t8 -40t-8 -40t-22.5 -33t-33.5 -22t-40 -8t-40 8t-33 22t-22 33
t-8 40z" />
    <glyph glyph-name="asa_ra_halanth" horiz-adv-x="998" 
d="M0 1114v116h1017v-116h-189v-1114l-60 40q-34 88 -88.5 165.5t-124 139t-151 104.5t-169.5 62l-154 188q76 79 148.5 138.5t147 102.5t154.5 71t173 43v60h-704zM704 477q-56 91 -132.5 162.5t-167.5 119.5q-45 -33 -78 -64.5t-47 -51.5q44 -17 101.5 -49t116.5 -79
t113.5 -109t93.5 -140v211zM704 889q-51 -3 -102.5 -21.5t-101.5 -46.5q59 -47 112.5 -107.5t91.5 -137.5v313zM684 -136l77 92l335 -342h-95z" />
    <glyph glyph-name="asa_ba_halanth" horiz-adv-x="998" 
d="M704 889q-43 -2 -88 -16.5t-88 -36.5t-83 -48.5t-73 -53t-57 -51t-36 -40.5q44 -17 101.5 -49t116.5 -79t113.5 -109t93.5 -140v623zM0 1114v116h1017v-116h-189v-1114l-60 40q-34 88 -88.5 165.5t-124 139t-151 104.5t-169.5 62l-154 188q76 79 148.5 138.5t147 102.5
t154.5 71t173 43v60h-704zM576 118q-37 35 -68.5 58.5t-72.5 41.5t-98 33t-145 34l44 132q41 -12 88 -30t95 -47t95 -70.5t89 -99.5zM684 -136l77 92l335 -342h-95z" />
    <glyph glyph-name="bn_k_ssa_halanth" horiz-adv-x="1587" 
d="M710 437q-17 -46 -52 -76.5t-90 -30.5q-32 0 -59 12t-47.5 32t-32 46.5t-11.5 55.5q0 28 10 54t30 46.5t48.5 33t66.5 12.5q32 0 62 -12.5t59 -31.5q-10 52 -37.5 101t-67.5 87.5t-90 63.5t-104 31q4 -15 4 -32q0 -27 -11.5 -49.5t-30.5 -38t-44.5 -24.5t-52.5 -9
t-52.5 10t-44.5 28.5t-30.5 44t-11.5 56.5q0 37 13.5 64t36 45t50.5 27.5t58 12.5q-27 33 -62 56t-72.5 36.5t-75 19.5t-69.5 6l-55 116h1692v-116h-568v-197l68.5 27.5t68.5 12.5q58 0 105.5 -25.5t82 -65t53.5 -87t19 -92.5q0 -33 -10.5 -73t-31.5 -75.5t-54 -59
t-78 -23.5q-28 0 -52.5 9t-43 26.5t-29.5 42t-11 55.5q0 21 9 42t25 38.5t38.5 28t49.5 10.5q18 0 38 -4.5t37.5 -16.5t31 -32t19.5 -51q6 14 9 29t3 28q0 45 -12 76t-34.5 50.5t-54 28t-71.5 8.5q-38 0 -82.5 -14.5t-92.5 -28.5v-781l-57 40q-25 56 -57 112.5t-70 108
t-82 97t-93 79.5zM291 1114l29.5 -61.5t21.5 -52.5q86 -12 160 -50t128 -94t84.5 -125t30.5 -141v-19t-2 -19l55.5 -51.5t47.5 -51.5t46.5 -65.5t52.5 -93.5v474q-65 2 -117.5 26t-89.5 63t-57 90t-20 108q0 15 1.5 30.5t6.5 32.5h-378zM764 982q0 -29 8.5 -50.5t22 -35
t31 -20t36.5 -6.5q23 0 43.5 2t39.5 5v237h-149q-17 -41 -24.5 -73.5t-7.5 -58.5zM953 -136l77 92l335 -342h-95z" />
    <glyph glyph-name="bn_j_nya_halanth" horiz-adv-x="1585" 
d="M1223 945q32 0 66 -12t61.5 -36t45.5 -60.5t18 -85.5q0 -37 -8.5 -66t-22 -51.5t-29.5 -38.5t-31 -27q15 -11 31 -27t29.5 -38.5t22 -51.5t8.5 -66q0 -49 -18 -85.5t-45.5 -60.5t-61.5 -36t-66 -12q-68 0 -133 41.5t-122 143.5q-23 -47 -58.5 -89t-83.5 -73.5t-107 -49.5
t-127 -18q-102 0 -179.5 39t-134 103t-94.5 146.5t-61 169t-32.5 170.5t-9.5 152v29l61 -44q1 -117 31.5 -227t87.5 -195.5t139.5 -137t187.5 -51.5q54 0 111 18.5t104.5 50.5t77.5 75.5t30 94.5q0 48 -31 97q-21 -11 -62.5 -23.5t-87.5 -23.5t-90.5 -18.5t-71.5 -7.5
q-126 0 -196.5 57.5t-70.5 162.5q0 66 15.5 121t36.5 97t43.5 71t36.5 42h-433v116h1605v-116h-884q-3 -14 -4 -28t-1 -29q0 -59 17 -109t45.5 -92.5t66.5 -79t80 -69.5q16 50 42.5 93.5t63.5 75.5t84.5 50.5t107.5 18.5zM1213 352q19 0 39 4.5t35.5 16.5t25.5 32t10 51
q0 16 -4 37.5t-28 39.5q-32 -39 -53.5 -50.5t-46.5 -11.5q-11 0 -27 4.5t-30.5 15.5t-25 29.5t-10.5 47.5t10.5 47.5t25 29.5t30.5 15.5t27 4.5q13 0 23.5 -1.5t21.5 -7.5t24 -17.5t30 -31.5q24 18 28.5 37.5t4.5 35.5q0 31 -10 51t-25.5 32t-35.5 16.5t-39 4.5
q-33 0 -68.5 -5t-69 -20.5t-62.5 -44t-49 -74.5q8 -19 16.5 -52.5t8.5 -70.5q0 -5 -0.5 -9t-0.5 -9q22 -36 49 -63t56.5 -46t60 -28.5t59.5 -9.5zM597 1040q-15 -10 -37 -29t-46.5 -43.5t-49 -52.5t-44 -55t-31.5 -51.5t-12 -42.5q0 -43 24 -60.5t60 -17.5q23 0 59 6
t76 15.5t80.5 21.5t73.5 25q-39 30 -66 64t-44.5 70.5t-27.5 74t-15 75.5zM471 -136l77 92l335 -342h-95z" />
    <glyph glyph-name="bn_ka_half" horiz-adv-x="1330" 
d="M80 823q63 72 138.5 121.5t152 80.5t150 46t132.5 18v25h-653v116h1380v-116h-603v-25q49 0 101.5 -7t101.5 -22.5t92.5 -40t76.5 -60.5t52 -84t19 -110q0 -54 -13 -90.5t-35 -59.5t-50 -33t-59 -10q-19 0 -37.5 7.5t-33.5 20.5t-24 31t-9 40q0 15 5 32.5t16.5 33
t30 25.5t45.5 10q13 0 26 -3t25.5 -11t22.5 -21.5t17 -35.5q9 9 13 25.5t4 37.5q0 39 -18 67t-49 47.5t-70.5 31.5t-82.5 18.5t-86.5 8.5t-80.5 2v-623l-60 40q-50 76 -99 122t-105 74.5t-123.5 46t-155.5 36.5zM265 783q61 -21 113 -43.5t98.5 -49.5t89.5 -62t87 -82v393
q-54 -5 -101.5 -11.5t-93.5 -21.5t-93 -44t-100 -79z" />
    <glyph glyph-name="bn_kha_half" horiz-adv-x="1202" 
d="M768 899q0 -64 -25 -112t-64 -83t-86 -58t-91 -38q36 -15 86.5 -43t105.5 -70t111 -99t103 -131v1181l124 -111v-105h190v-116h-190v-1114l-60 40q-29 82 -91 159t-143 140t-174 108t-183 63l-150 189q33 0 79 8.5t95.5 24.5t98 38.5t87 50t62.5 60.5t24 70q0 58 -22 99
t-51 64q-27 -66 -66.5 -105.5t-84 -59.5t-89.5 -26t-83 -6q-45 0 -81.5 11.5t-63 31t-41 45t-14.5 54.5q0 57 31.5 87.5t91.5 30.5q18 0 37 -7t35 -21t26 -34.5t10 -47.5q0 -5 -3 -19t-9.5 -30.5t-17.5 -32t-27 -23.5h7q37 0 69.5 20.5t60.5 56.5t50.5 85t39.5 106
q57 -16 109 -46t91 -72t62.5 -96t23.5 -117zM880 -136l77 92l335 -342h-95z" />
    <glyph glyph-name="bn_ga_half" horiz-adv-x="750" 
d="M770 804q-52 68 -97.5 119.5t-89.5 86.5t-89.5 52.5t-98.5 17.5q-36 0 -67 -10t-54 -28t-36 -43.5t-13 -56.5q0 -4 0.5 -11.5t2.5 -11.5q7 4 20 9.5t30 10t36.5 7.5t37.5 3q46 0 81.5 -14.5t60 -39.5t37 -58t12.5 -70q0 -34 -14 -68.5t-36 -67.5t-49 -63.5t-51.5 -54.5
t-44 -41l-27.5 -24l-109 105q116 92 178 160t62 110q0 31 -22 46.5t-57 15.5q-24 0 -54.5 -11t-61 -27t-58 -33.5t-45.5 -30.5q-38 32 -56 78t-18 84q0 58 22.5 110t63 91t97.5 61.5t125 22.5q54 0 111 -30.5t114 -80.5t112 -116t105 -136z" />
    <glyph glyph-name="bn_gha_half" horiz-adv-x="1025" 
d="M0 1230h1045v-116h-190v-1114l-60 40q-34 88 -86.5 155t-120 116t-147 81.5t-167.5 51.5l-145 149l77.5 56.5t82.5 66l80 69.5t71 68q-15 -8 -33 -14t-36.5 -11t-36 -7.5t-32.5 -2.5q-45 0 -85 13t-70.5 37t-48.5 58.5t-18 77.5q0 30 13 59.5t38 50.5h-131v116zM587 838
q-35 -40 -62.5 -68.5l-54.5 -54l-57.5 -53l-73.5 -66.5q46 -14 100 -42t107 -69.5t101.5 -96t83.5 -122.5v848h-435q-33 -23 -48 -49.5t-15 -60.5q0 -23 10.5 -43t28.5 -35t43 -23.5t54 -8.5q44 0 75.5 10t49.5 26zM711 -136l77 92l335 -342h-95z" />
    <glyph glyph-name="bn_nga_half" horiz-adv-x="973" 
d="M917 1023q0 -54 -24.5 -94.5t-66.5 -67.5t-97.5 -40.5t-117.5 -13.5q-23 0 -49.5 4.5t-48.5 9.5q-6 -17 -9 -39.5t-3 -38.5q0 -29 10 -47t25 -28.5t33 -14.5t34 -4q29 0 49 9.5t34 24.5t23.5 34t18.5 39q76 -35 124 -66.5t74 -62.5t35.5 -63t9.5 -67q0 -48 -17 -86
t-44.5 -67.5t-63.5 -51t-74 -35.5t-75.5 -20.5t-68.5 -6.5q-124 0 -221 59t-165.5 158t-109 228.5t-52.5 270.5l54 -42q20 -112 58 -208t98.5 -166t144.5 -110t197 -40q48 0 94.5 12t82.5 32.5t58 49t22 61.5q0 24 -19 45t-41 29q-26 -45 -52.5 -70.5t-51 -37.5t-45 -15
t-35.5 -3q-47 0 -89 22t-73.5 63.5t-50.5 101.5t-19 136q0 39 9 86t27 94t45.5 91t63.5 78t81.5 54.5t99.5 20.5q45 0 78.5 -17t55.5 -45.5t33 -66t11 -78.5zM684 918q34 0 64.5 6.5t53 19.5t35.5 32.5t13 44.5q0 36 -27.5 64.5t-83.5 28.5q-30 0 -57.5 -13.5t-52 -37.5
t-45 -56.5t-35.5 -69.5q30 -9 68 -14t67 -5z" />
    <glyph glyph-name="bn_ca_half" horiz-adv-x="904" 
d="M305 539q0 -22 3 -35.5t8.5 -21t13.5 -10.5t17 -3q13 0 42.5 12.5t66 33t76 46.5t71.5 53.5t53 54.5t21 48t-20.5 41t-54 39.5t-74.5 39l-82.5 40t-78.5 41.5t-62 44v-423zM924 1114h-619v-43q38 -33 92 -61t112.5 -55l116 -54.5t103 -57.5t74 -65t28.5 -78
q0 -33 -27.5 -74.5t-71 -84.5t-98.5 -84.5t-109.5 -73.5t-104 -51.5t-82.5 -19.5q-35 0 -64 11.5t-50 30t-32.5 43.5t-11.5 52v665h-180v116h924v-116z" />
    <glyph glyph-name="bn_cha_half" horiz-adv-x="1141" 
d="M581 949q23 0 50.5 3.5l55.5 7l54.5 7t47.5 3.5q36 0 73.5 -10.5t67.5 -35t49.5 -66t19.5 -103.5q0 -93 -35 -174.5t-97.5 -146t-147 -109.5t-183.5 -66q51 -12 112.5 -33t126.5 -55.5t129 -84t120 -117.5v-70q-80 72 -175.5 120.5t-192.5 80t-188.5 49.5t-163.5 30
l-112 207q32 -11 64 -15.5t65 -4.5q118 0 220 39t177.5 101.5t118.5 140.5t43 156q0 22 -9.5 36t-23 21t-29 9.5t-27.5 2.5q-29 0 -58.5 -9t-52.5 -15q-6 -83 -39.5 -144t-81 -101t-103 -59t-105.5 -19q-37 0 -68.5 12t-54 37.5t-35.5 66t-13 96.5v377h-180v116h1161v-116
h-857q21 -35 53.5 -65t70 -52t77.5 -35t76 -13zM304 737q6 -40 19 -57.5t45 -17.5q28 0 60.5 8.5t61.5 29.5t50.5 55.5t26.5 86.5q-21 0 -57 9t-74.5 28.5t-74 50t-57.5 73.5v-266zM527 -136l77 92l335 -342h-95z" />
    <glyph glyph-name="bn_ja_half" horiz-adv-x="1355" 
d="M1375 1114h-630q5 -33 26.5 -62t53.5 -51t72.5 -34.5t83.5 -12.5q35 0 70.5 9.5t68.5 29.5l154 -166q-33 -29 -61.5 -75.5t-49 -106.5t-32.5 -131.5t-12 -150.5q0 -86 16 -177.5t51 -185.5q-1 0 -18 6l-37.5 13.5l-37.5 13.5l-17 6l-32 121.5t-25.5 111t-16.5 104
t-6 100.5q0 82 18 167.5t59 186.5q-45 -12 -94 -12q-57 0 -114.5 16t-108.5 45t-92.5 70t-66.5 91q-15 -10 -37 -29t-46.5 -43.5t-49 -52.5t-44 -55t-31.5 -51.5t-12 -42.5q0 -43 24 -60.5t60 -17.5q33 0 72 11.5t75 28t65 35t43 32.5q42 -24 72.5 -56t51 -68.5t30 -77
t9.5 -80.5q0 -60 -20.5 -117t-59.5 -101.5t-95 -71.5t-128 -27q-97 0 -171 35.5t-129 94t-92.5 134t-60 156.5t-32.5 161.5t-10 148.5v29l61 -44q1 -117 30.5 -219t84 -177t131.5 -118.5t172 -43.5q35 0 79 13.5t83 38t65.5 58t26.5 74.5q0 23 -10.5 48t-33.5 51l-48 -24.5
t-55.5 -25.5t-58.5 -20t-57 -8q-72 0 -120 15.5t-77 45t-41 71t-12 93.5q0 66 15.5 121t36.5 97t43.5 71t36.5 42h-433v116h1375v-116zM1041 -136l77 92l335 -342h-95z" />
    <glyph glyph-name="bn_jha_half" horiz-adv-x="1361" 
d="M703 883q-58 -13 -120 -40.5t-119 -62t-104.5 -73t-76.5 -74.5q61 -21 125 -57.5t121 -84t103 -105t71 -120.5v617zM827 622q30 -22 57 -45.5t55.5 -55t59 -74t68.5 -101.5v1100l124 -111v-105h190v-116h-190v-1014l-60 40q-20 51 -54 98t-75.5 90t-87 81.5t-87.5 70.5
v-480l-60 40q-34 88 -88.5 165.5t-124 139t-151 104.5t-169.5 62l-154 188q87 79 162.5 137t148.5 100t148.5 70t163.5 48v60h-703v116h827v-608zM697 -136l77 92l335 -342h-95z" />
    <glyph glyph-name="bn_nya_half" horiz-adv-x="1595" 
d="M1007 744q18 -51 45.5 -96t62 -78t75.5 -52.5t87 -19.5q24 0 47 6t41 19t29 34.5t11 52.5q0 16 -6.5 41t-29.5 49q-26 -34 -53 -43.5t-53 -9.5q-11 0 -27 4.5t-30.5 15.5t-25 29.5t-10.5 47.5t10.5 47.5t25 29.5t30.5 15.5t27 4.5q26 0 53 -9.5t53 -43.5q23 24 29.5 49
t6.5 41q0 31 -11 52.5t-29 34.5t-41 19t-47 6q-46 0 -87 -19.5t-75.5 -52.5t-62 -78t-45.5 -96zM1012 951q29 55 61.5 93t67 62t70.5 34.5t71 10.5q39 0 77 -15t68.5 -43t49.5 -67.5t19 -88.5q0 -37 -8.5 -68t-22 -55t-29.5 -41.5t-31 -28.5q15 -11 31 -28.5t29.5 -41.5
t22 -55t8.5 -68q0 -49 -19 -88.5t-49.5 -67.5t-68.5 -43t-77 -15q-35 0 -71 10.5t-70.5 34.5t-67 62t-61.5 93v-537l-64 40q-33 40 -68 63.5t-73.5 36t-80.5 16t-90 3.5q-60 0 -120 -5t-114 -5q-75 0 -134.5 21t-101 58.5t-63.5 89t-22 112.5q0 41 10 84t31 89l41 -41
q-9 -24 -13 -45t-4 -40q0 -51 27 -83t69 -50t93.5 -24t101.5 -6q29 0 58.5 0.5t58.5 0.5q51 0 100.5 -7.5t93.5 -26t80 -50t60 -80.5v849q0 45 -31 66.5t-85 21.5q-31 0 -78.5 -11t-102.5 -42t-112 -87t-106 -146q41 42 76 57t70 15t61 -12.5t43.5 -32t26.5 -44.5t9 -49
q0 -34 -13 -60t-34.5 -43t-50.5 -26t-61 -9q-41 0 -73.5 14.5t-55 38.5t-34.5 55.5t-12 66.5q0 64 22 123t59 110t86.5 92.5t103.5 70.5t110 45t107 16q43 0 79.5 -7t63 -28.5t41.5 -61.5t15 -106v-76zM881 -136l77 92l335 -342h-95z" />
    <glyph glyph-name="bn_tta_half" horiz-adv-x="962" 
d="M982 1114h-678v-496q0 -33 6.5 -54.5t19.5 -34t31 -17t42 -4.5q35 0 75 9.5t80 27t77 42t65.5 55t45.5 65.5t17 74q0 5 -2 13q-34 -35 -66.5 -50.5t-62.5 -15.5q-32 0 -59 12t-46.5 32t-31 47t-11.5 56q0 33 11.5 62t32 51t47.5 35t59 13q58 0 95.5 -26t59.5 -65.5
t30 -87.5t8 -92q0 -98 -35.5 -178t-96 -136.5t-140 -87.5t-166.5 -31q-11 0 -31 2t-43 10t-47 23.5t-43.5 42t-32 65.5t-12.5 95v544h-180v116h661q30 16 43.5 35.5t13.5 33.5q0 30 -23 46.5t-60.5 25t-85.5 13t-97.5 10t-97.5 16t-85.5 31.5t-60.5 55.5t-23 89.5
q0 25 13.5 55t44.5 57l36 -28q-25 -21 -30.5 -37.5t-5.5 -30.5q0 -27 25.5 -42.5t67 -24.5t94 -13.5t107.5 -10.5t108 -16t94.5 -29.5t66.5 -50.5t25 -80q0 -18 -6 -33.5t-15 -28.5t-20 -23.5l-21 -19.5h213v-116z" />
    <glyph glyph-name="bn_ttha_half" horiz-adv-x="982" 
d="M1032 1230v-116h-461q49 -67 97.5 -140.5t87 -149t62.5 -151t24 -147.5q0 -84 -23.5 -162t-71 -137t-119 -94.5t-167.5 -35.5q-83 0 -152.5 27t-119.5 74.5t-78.5 112t-28.5 138.5q0 59 16 106q67 21 124.5 61.5t98.5 96.5t64.5 124.5t23.5 144.5q0 69 -24 132h-385v116
h381q-34 46 -63.5 93t-51.5 93.5t-34.5 93.5t-12.5 95q0 64 26 128.5t87 131.5l130 -96q-56 -54 -80 -108.5t-24 -111.5q0 -77 37.5 -157t93.5 -162h543zM535 898q0 -77 -22 -147.5t-63.5 -130t-102 -105t-137.5 -72.5q0 -98 62 -155.5t179 -57.5q65 0 117.5 22.5t89 63.5
t56 97t19.5 124q0 61 -19 128.5t-50 133t-69 125.5t-76 108q6 -27 9 -45.5t4.5 -32.5t2 -27t0.5 -29zM398 -136l77 92l335 -342h-95z" />
    <glyph glyph-name="bn_dda_half" horiz-adv-x="1179" 
d="M1199 1114h-619v-272q0 -26 21 -26q15 0 46.5 13t69 40.5t74.5 70t63 102.5q88 -69 128.5 -155t40.5 -185q0 -82 -40 -147t-102 -110.5t-136 -69.5t-143 -24q-54 0 -110.5 10.5t-110.5 38t-103 75t-87.5 122.5t-65 180.5t-34.5 247.5l64 -38q7 -106 39 -194t87.5 -151.5
t136 -98.5t185.5 -35q30 0 67 7t75.5 20.5t74.5 33.5t64.5 47t45.5 61t17 75q0 37 -7.5 74.5t-21.5 55.5q-32 -61 -72.5 -105t-82.5 -73t-83 -43t-75 -14q-83 0 -116 54t-33 158v255h-456v116h1199v-116z" />
    <glyph glyph-name="bn_ddha_half" horiz-adv-x="962" 
d="M982 1114h-678v-496q0 -33 6.5 -54.5t19.5 -34t31 -17t42 -4.5q35 0 75 9.5t80 27t77 42t65.5 55t45.5 65.5t17 74q0 5 -2 13q-34 -35 -66.5 -50.5t-62.5 -15.5q-32 0 -59 12t-46.5 32t-31 47t-11.5 56q0 33 11.5 62t32 51t47.5 35t59 13q58 0 95.5 -26t59.5 -65.5
t30 -87.5t8 -92q0 -98 -35.5 -178t-96 -136.5t-140 -87.5t-166.5 -31q-11 0 -31 2t-43 10t-47 23.5t-43.5 42t-32 65.5t-12.5 95v544h-180v116h982v-116z" />
    <glyph glyph-name="bn_nna_half" horiz-adv-x="712" 
d="M348 1090q-37 0 -75 -12.5t-68.5 -36t-50 -58.5t-19.5 -80q0 -18 4 -35.5t12 -25.5q6 27 19 44.5t29.5 27t34 13t32.5 3.5q57 -3 93 -38.5t36 -95.5q0 -26 -11.5 -49t-31 -40t-45.5 -27t-56 -10q-36 0 -67.5 17t-54.5 48.5t-36 75t-13 96.5q0 67 18 125.5t51.5 102.5
t81.5 69.5t108 25.5q49 0 103.5 -26t111 -72.5t114 -111t113.5 -141.5l-49 -53q-43 59 -89 107.5t-94 83.5t-98.5 54t-102.5 19z" />
    <glyph glyph-name="bn_ta_half" horiz-adv-x="1294" 
d="M1121 1114h-1121v116h1344v-116h-223zM765 97q-110 0 -198 45t-157 118.5t-121 167.5t-89 192.5t-61 193.5t-38 171l58 -27q20 -74 47.5 -155t64 -160t83.5 -151t106 -126.5t132 -86.5t161 -32q79 0 132 27.5t85.5 70.5t46 96.5t13.5 106.5q0 56 -8.5 110t-32 101.5
t-64.5 85t-106 60.5q14 -18 29 -45.5t15 -57.5q0 -27 -13.5 -49.5t-35.5 -38.5t-48.5 -25t-51.5 -9q-24 0 -52 9.5t-52 28t-40 46.5t-16 65q0 34 15 62.5t41 49.5t60 32.5t73 11.5q96 0 172 -37.5t129 -99.5t81.5 -141.5t28.5 -162.5q0 -105 -31.5 -187.5t-85 -140.5
t-124 -88.5t-148.5 -30.5zM690 -136l77 92l335 -342h-95z" />
    <glyph glyph-name="bn_tha_half" horiz-adv-x="1077" 
d="M391 561q40 -18 90.5 -45t103.5 -63.5t104.5 -83t93.5 -104.5v1181l124 -111v-105h190v-116h-190v-1114l-60 40q-38 86 -103.5 160t-148 133t-177.5 101.5t-191 65.5l-148 162q54 1 111.5 10t113 25.5t105.5 40.5t87.5 54.5t59.5 67t22 79.5q0 42 -21 75t-53.5 55
t-72 33.5t-77.5 11.5q-58 0 -107 -21.5t-91 -78.5q10 4 23 10t26 11t24.5 9t19.5 4q42 0 66.5 -15t38 -35.5t17.5 -40.5t4 -30q0 -25 -11.5 -46t-29.5 -36.5t-41 -24.5t-46 -9q-33 0 -58.5 14.5t-43 37.5t-27 52.5t-9.5 59.5q0 62 23.5 109.5t61 80t85 49t94.5 16.5
q64 0 114.5 -25.5t85 -67.5t52.5 -95.5t18 -108.5q0 -65 -15.5 -118.5t-47 -98.5t-79 -83.5t-110.5 -71.5zM764 -136l77 92l335 -342h-95z" />
    <glyph glyph-name="bn_da_half" horiz-adv-x="1009" 
d="M866 946q-19 -69 -28 -132t-9 -131q0 -47 3 -90t8 -87t13 -90t18 -98l-73 50q-32 128 -53.5 242t-21.5 228q-34 -2 -83.5 -17t-106.5 -50t-116.5 -93t-112.5 -146l-124 159v423h-180v116h1029v-116h-725v-321q54 56 118.5 95.5t128.5 65.5t122 40.5t100 20.5z" />
    <glyph glyph-name="bn_dha_half" horiz-adv-x="995" 
d="M826 1114v-1114l-60 40q-34 88 -88.5 165.5t-124 139t-151 104.5t-169.5 62l-154 188l83 73.5l78 64.5q-32 12 -58.5 34t-46.5 50.5t-31 63t-11 71.5q0 34 12 65.5t33 55.5t50 38.5t62 14.5q28 0 52.5 -10.5t42.5 -28.5t28.5 -41.5t10.5 -49.5q0 -27 -12 -51t-30.5 -41
t-42 -27t-47.5 -10q-21 0 -43.5 9t-42.5 35q7 -26 22 -48t34.5 -38.5t42.5 -27t47 -12.5q94 64 187.5 103t202.5 62v176h313v-116h-189zM702 903q-69 -8 -134 -34.5t-121 -62.5t-100.5 -76t-72.5 -74q42 -18 99.5 -52t117.5 -83.5t116 -113t95 -141.5v637zM681 -136l77 92
l335 -342h-95z" />
    <glyph glyph-name="bn_na_half" horiz-adv-x="748" 
d="M768 1114h-768v116h768v-116zM768 337q-35 79 -85.5 147t-107.5 118t-117 79t-114 29q32 -20 52 -56t20 -84q0 -26 -12 -53t-33.5 -49t-51.5 -35.5t-65 -13.5q-31 0 -63.5 10.5t-59.5 34t-44.5 59.5t-17.5 87q0 55 22.5 98t58.5 72t82 44t93 15q87 0 164 -36.5t142 -98.5
t117.5 -143.5t90.5 -170.5z" />
    <glyph glyph-name="bn_pa_half" horiz-adv-x="948" 
d="M962 688l-87.5 136.5t-76.5 106.5l-333 -344l-125 60l34 35l34 36q26 49 26 93q0 52 -33 82.5t-82 30.5q-23 0 -49 -7.5t-52 -24.5q1 0 -20 8.5l-46.5 19l-46.5 19.5t-21 10q33 59 76.5 110t93.5 89t107 60t117 22q90 0 161.5 -34.5t134 -99t121.5 -156.5t123 -207z
M518 1114q-43 0 -80 -14.5t-66.5 -34.5t-49 -41t-27.5 -34q25 6 49 6q34 0 62 -11.5t48.5 -31t32 -45.5t11.5 -56q0 -16 -5 -38l215 215q-45 40 -91.5 62.5t-98.5 22.5z" />
    <glyph glyph-name="bn_pha_half" horiz-adv-x="1423" 
d="M870 0l-60 40q-57 105 -125.5 173t-140.5 111t-144.5 66t-137.5 38l-144 171q31 37 71 78t88.5 80.5t105.5 76t123 65.5q-63 58 -136 98.5t-143 66.5t-130 38t-97 12l-59 116h1532v-116h-1094q36 -21 76.5 -59t78.5 -83t69.5 -93t49.5 -88q-50 -19 -99 -46t-94 -58
t-85 -64.5t-70 -65.5q61 -21 114.5 -44t106 -55.5t106 -78.5t114.5 -113v683h124q88 0 168.5 -31t141.5 -86.5t97 -132.5t36 -169q0 -54 -14.5 -96.5t-39.5 -72t-58.5 -45.5t-71.5 -16q-29 0 -54 10.5t-43.5 29t-29.5 42.5t-11 51q0 57 38 92t98 35q13 0 30 -4t33.5 -14.5
t29.5 -28.5t18 -47q9 9 14 27.5t5 33.5q0 72 -37.5 123.5t-95 84.5t-125.5 48.5t-129 15.5v-799zM739 -136l77 92l335 -342h-95z" />
    <glyph glyph-name="bn_ba_half" horiz-adv-x="998" 
d="M0 1114v116h1018v-116h-190v-854l-60 40q-42 58 -97.5 113.5t-123 102t-146 81.5t-166.5 54l-154 188q59 53 138.5 98t164.5 78.5t168.5 54t151.5 24.5v20h-704zM704 942q-58 -7 -121 -23t-121 -37.5t-106.5 -47t-76.5 -51.5q44 -15 94.5 -37t105 -56.5t111.5 -82.5
t114 -114v449z" />
    <glyph glyph-name="bn_bha_half" horiz-adv-x="1355" 
d="M1405 1114h-1405v116h1405v-116zM782 60q-46 0 -101.5 18.5t-116 61t-124.5 113.5t-126.5 175.5t-121.5 246.5t-110 328l89 -62q33 -95 69.5 -185t79 -170.5t91 -148t105.5 -116t123 -76t143 -27.5q68 0 119.5 21t89.5 54.5t63.5 77t41 88t22 86.5t6.5 74q0 12 -1.5 28
t-4.5 33.5t-8 34t-12 28.5q-57 -46 -108.5 -73.5t-97 -42t-85.5 -19t-73 -4.5q-48 0 -90 15t-73.5 42t-50 65t-18.5 84q0 35 12 65t33.5 51.5t50 34t61.5 12.5q31 0 58.5 -11t48.5 -30.5t33 -46t12 -57.5q0 -58 -30.5 -96t-79.5 -57q62 8 111 29t86 48.5t64 59t45 61t28 55
t14 41.5q53 -32 85.5 -74t50.5 -87t24 -88.5t6 -78.5q0 -72 -10.5 -143t-32 -135.5t-56 -120t-82.5 -96t-111 -63.5t-141 -23zM718 -136l77 92l335 -342h-95z" />
    <glyph glyph-name="bn_ma_half" horiz-adv-x="1037" 
d="M332 970q54 -18 97 -42l83.5 -45.5t83 -36t95.5 -14.5q25 0 49.5 6.5t43.5 21t31 38.5t12 59q0 46 -14 86t-37 71h-485q7 -16 13.5 -36.5t11.5 -40.5t9 -38t7 -29zM269 966q-32 46 -67 74.5t-70 45t-69 22.5t-63 6l-55 116h1112v-116h-192q15 -18 29 -41t25 -50t18 -58
t7 -64q0 -48 -19.5 -88t-51.5 -69t-74.5 -45.5t-87.5 -16.5q-56 0 -102 25.5t-86.5 58.5l-77.5 64.5t-74 43.5q8 -15 13 -39t5 -43q0 -26 -11.5 -47t-30.5 -36t-44.5 -23t-52.5 -8t-52.5 10t-44.5 28.5t-30.5 44t-11.5 56.5q0 37 13.5 64t36 45t50.5 27.5t58 12.5z" />
    <glyph glyph-name="bn_ya_half" horiz-adv-x="1036" 
d="M742 1114h-367q36 -21 76.5 -59t78.5 -83t69.5 -93t49.5 -88q-50 -19 -99 -46t-94 -58t-85 -64.5t-70 -65.5q61 -21 114.5 -44t106 -55.5t106 -78.5t114.5 -113v848zM502 899q-63 58 -134 97t-139.5 64t-128.5 37.5t-100 16.5l-59 116h1115v-116h-190v-1114l-60 40
q-57 105 -125.5 173t-140.5 111t-144.5 66t-137.5 38l-144 171q31 37 71 78t88.5 80.5t105.5 76t123 65.5zM722 -136l77 92l335 -342h-95z" />
    <glyph glyph-name="bn_la_half" horiz-adv-x="867" 
d="M0 1114v116h885v-116h-885zM885 583q-9 23 -23.5 50t-33.5 50.5t-41 39.5t-46 16q-26 0 -47 -14.5t-36.5 -36t-25.5 -47.5t-14 -49h-50q-26 41 -51 69t-52.5 45.5t-59 25t-69.5 7.5q-28 0 -60.5 -12.5t-60 -36.5t-46 -59t-18.5 -79q0 -34 9 -59t21.5 -43t26 -29t21.5 -17
q-16 36 -16 68q0 28 11 50.5t28.5 38t39 23.5t42.5 8q29 0 54.5 -10t44 -27.5t29 -41t10.5 -51.5q0 -29 -11.5 -53.5t-32.5 -42t-49.5 -27.5t-62.5 -10q-46 0 -88.5 20t-75.5 56.5t-52.5 87.5t-19.5 114q0 65 20.5 117.5t56 89t83.5 56t104 19.5q43 0 81.5 -14.5t70 -39.5
t56 -60t38.5 -75q4 37 18 71t33.5 60.5t44 42t51.5 15.5t54 -21t53.5 -57.5t51 -86t45.5 -107.5z" />
    <glyph glyph-name="bn_sha_half" horiz-adv-x="878" 
d="M898 807q-17 44 -46.5 94t-66 92.5t-78 70.5t-81.5 28q-16 0 -32 -7t-29.5 -19.5t-23.5 -28.5t-14 -34q23 -18 49.5 -42.5t48.5 -53.5t36.5 -61.5t14.5 -67.5q0 -66 -37 -101.5t-92 -35.5q-45 0 -82 30t-69 84q-10 -24 -27.5 -45t-39 -36.5t-47 -24t-51.5 -8.5
q-29 0 -51.5 11t-38.5 29.5t-24.5 42.5t-8.5 50q0 34 15 67.5t39.5 63.5t56 55t64.5 43q-15 42 -36 64.5t-44 33t-46.5 12t-43.5 1.5h-113v116h111q41 0 83.5 -15t79 -42.5t65 -66t40.5 -84.5q23 95 81 151.5t148 56.5q42 0 89 -26t93 -75.5t89 -121.5t79 -164z" />
    <glyph glyph-name="bn_ssa_half" horiz-adv-x="844" 
d="M698 1028q0 35 -11 57t-28 34t-38 16t-41 4q-53 0 -115 -36.5t-119 -92.5l222 -223q28 32 51.5 65.5t41 65t27.5 59.5t10 51zM292 595q43 0 100.5 36t114.5 91l-219 225q-50 -60 -81.5 -122t-31.5 -109q0 -68 30.5 -94.5t86.5 -26.5zM794 1006q0 -62 -17.5 -122
t-49.5 -115t-75.5 -101.5t-95 -80.5t-110 -53.5t-118.5 -19.5q-55 0 -100.5 17.5t-78.5 49t-51 74t-18 93.5q0 48 12.5 98t35 97.5t55 91t72.5 79.5h-255v116h541q52 0 98 -16t80.5 -45t54.5 -70.5t20 -92.5z" />
    <glyph glyph-name="bn_sa_half" horiz-adv-x="1171" 
d="M842 710q-54 0 -106.5 30t-94.5 80t-70.5 115t-35.5 136q-5 -87 -31.5 -154t-64 -113t-81.5 -70t-84 -24q-33 0 -64.5 12t-58 29t-46.5 35.5t-30 31.5l88 89q19 -20 48 -33.5t57 -13.5q47 0 82.5 23.5t59.5 60.5t36 82t12 88h-458v116h1191v-116h-207q19 -15 34 -37
t25 -46.5t15.5 -50t5.5 -47.5q0 -48 -15 -89t-43.5 -70.5t-70 -46.5t-93.5 -17zM958 994q0 23 -16.5 57t-56.5 63h-276q0 -52 17.5 -98.5t46 -81t64 -54.5t73.5 -20q31 0 58 8.5t47 25.5t31.5 42t11.5 58z" />
    <glyph glyph-name="bn_ha_half" horiz-adv-x="1015" 
d="M1065 1230v-116h-714q9 -7 24.5 -21.5t29.5 -37.5q73 0 141 -22t121 -63t85 -99.5t32 -132.5q0 -68 -31 -121t-79.5 -90.5t-107.5 -58.5t-114 -24l93.5 -44t99.5 -55t109.5 -82.5t123.5 -126.5l52 -135q-90 99 -183.5 169t-188.5 116.5t-190.5 72.5t-191.5 37l-85 236
q17 -2 43.5 -11.5l60 -21t72 -20.5t79.5 -9q40 0 90 14t94 40t74 63.5t30 85.5t-15.5 82t-42 57.5t-62 36.5t-75.5 18q17 -22 23.5 -48t6.5 -46q0 -35 -13.5 -62.5t-36 -47t-51 -30t-59.5 -10.5q-29 0 -57 11t-50 31t-35 49t-13 64q0 34 12.5 61t33.5 47.5t49 34.5t60 22
q-5 15 -20.5 35t-43.5 36h-245v116h1065zM431 -136l77 92l335 -342h-95z" />
    <glyph glyph-name="asa_ra_half" horiz-adv-x="998" 
d="M0 1114v116h1017v-116h-189v-1114l-60 40q-34 88 -88.5 165.5t-124 139t-151 104.5t-169.5 62l-154 188q76 79 148.5 138.5t147 102.5t154.5 71t173 43v60h-704zM704 477q-56 91 -132.5 162.5t-167.5 119.5q-45 -33 -78 -64.5t-47 -51.5q44 -17 101.5 -49t116.5 -79
t113.5 -109t93.5 -140v211zM704 889q-51 -3 -102.5 -21.5t-101.5 -46.5q59 -47 112.5 -107.5t91.5 -137.5v313zM684 -136l77 92l335 -342h-95z" />
    <glyph glyph-name="asa_ba_half" horiz-adv-x="998" 
d="M704 889q-43 -2 -88 -16.5t-88 -36.5t-83 -48.5t-73 -53t-57 -51t-36 -40.5q44 -17 101.5 -49t116.5 -79t113.5 -109t93.5 -140v623zM0 1114v116h1017v-116h-189v-1114l-60 40q-34 88 -88.5 165.5t-124 139t-151 104.5t-169.5 62l-154 188q76 79 148.5 138.5t147 102.5
t154.5 71t173 43v60h-704zM576 118q-37 35 -68.5 58.5t-72.5 41.5t-98 33t-145 34l44 132q41 -12 88 -30t95 -47t95 -70.5t89 -99.5zM684 -136l77 92l335 -342h-95z" />
    <glyph glyph-name="bn_k_ra" horiz-adv-x="1595" 
d="M0 1114v116h1615v-116h-1615zM888 840q0 45 -31 66.5t-85 21.5q-31 0 -78.5 -11t-102.5 -42t-112 -87t-106 -146q41 42 76 57t70 15t61 -12.5t43.5 -32t26.5 -44.5t9 -49q0 -34 -13 -60t-34.5 -43t-50.5 -26t-61 -9q-41 0 -73.5 14.5t-55 38.5t-34.5 55.5t-12 66.5
q0 64 22 123t59 110t86.5 92.5t103.5 70.5t110 45t107 16q43 0 79.5 -7t63 -28.5t41.5 -61.5t15 -106v-128q24 35 48.5 66t50.5 54.5t54.5 37t59.5 13.5q60 0 108 -25.5t81.5 -69.5t51.5 -102.5t18 -125.5q0 -53 -13 -96.5t-36 -75t-54.5 -48.5t-67.5 -17q-30 0 -56.5 10
t-46 27t-30.5 40t-11 49q0 60 36 95.5t93 38.5q15 0 32.5 -3.5t34 -13t29.5 -27t19 -44.5q8 8 12 25.5t4 35.5q0 45 -19.5 80t-50.5 58.5t-68.5 36t-74.5 12.5q-36 0 -64 -11t-52 -30.5t-45 -46.5t-43 -60v-622l-64 40q-33 40 -68 63.5t-73.5 36t-80.5 16t-90 3.5
q-60 0 -120 -5t-114 -5q-75 0 -134.5 21t-101 58.5t-63.5 89t-22 112.5q0 41 10 84t31 89l41 -41q-9 -24 -13 -45t-4 -40q0 -51 27 -83t69 -50t93.5 -24t101.5 -6q29 0 58.5 0.5t58.5 0.5q51 0 100.5 -7.5t93.5 -26t80 -50t60 -80.5v689z" />
    <glyph glyph-name="bn_kh_ra" horiz-adv-x="1202" 
d="M543 93q50 0 105.5 -3t105.5 -15t91 -36.5t63 -68.5v202q-39 61 -99 116.5t-131.5 100t-148 76t-148.5 45.5l-150 189q33 0 79 8.5t95.5 24.5t98 38.5t87 50t62.5 60.5t24 70q0 58 -22 99t-51 64q-27 -66 -66.5 -105.5t-84 -59.5t-89.5 -26t-83 -6q-45 0 -81.5 11.5
t-63 31t-41 45t-14.5 54.5q0 57 31.5 87.5t91.5 30.5q18 0 37 -7t35 -21t26 -34.5t10 -47.5q0 -5 -3 -19t-9.5 -30.5t-17.5 -32t-27 -23.5h7q37 0 69.5 20.5t60.5 56.5t50.5 85t39.5 106q57 -16 109 -46t91 -72t62.5 -96t23.5 -117q0 -64 -25 -112t-64 -83t-86 -58t-91 -38
q36 -15 85.5 -41.5t104 -67.5t110.5 -98.5t106 -135.5v1181l124 -111v-105h190v-116h-190v-1295l-64 40q-23 25 -58 41.5t-74 26t-77.5 13t-68.5 3.5q-57 0 -114.5 -7.5t-111.5 -7.5q-75 0 -134.5 21t-101 58.5t-63.5 89t-22 112.5q0 41 10 84t31 89l41 -41q-9 -24 -13 -45
t-4 -40q0 -51 27 -83t69 -50t93.5 -24t101.5 -6h44z" />
    <glyph glyph-name="bn_g_ra" horiz-adv-x="1054" 
d="M760 814q-52 68 -96 118t-86 83t-86 49t-97 16q-36 0 -67 -10t-54 -28t-36 -43.5t-13 -56.5q0 -4 0.5 -11.5t2.5 -11.5q7 4 20 9.5t30 10t36.5 7.5t37.5 3q46 0 81.5 -15t60 -40.5t37 -59t12.5 -70.5q0 -65 -19.5 -123.5t-45 -104.5t-50.5 -77t-37 -41l-109 105
q58 46 91.5 86.5t51 75t22.5 62t5 46.5q0 44 -22 68t-57 24q-24 0 -54.5 -11t-61 -27t-58 -33.5t-45.5 -30.5q-38 32 -56 78t-18 84q0 58 22.5 110t63 91t97.5 61.5t125 22.5q54 0 104.5 -23.5t98 -62.5t90 -90t79.5 -107v499l124 -111v-105h190v-116h-190v-1295l-64 40
q-47 50 -103.5 67t-116.5 17q-57 0 -114.5 -7.5t-111.5 -7.5q-75 0 -134.5 21t-101 58.5t-63.5 89t-22 112.5q0 41 10 84t31 89l41 -41q-9 -24 -13 -45t-4 -40q0 -51 27 -83t69 -50t93.5 -24t101.5 -6h44q50 0 96 -3t86 -15t71.5 -36.5t53.5 -68.5v844z" />
    <glyph glyph-name="bn_gh_ra" horiz-adv-x="1025" 
d="M424 93q50 0 96 -3t86 -15t71.5 -36.5t53.5 -68.5v193q-78 115 -196.5 182.5t-260.5 98.5l-145 149l77.5 56.5t82.5 66l80 69.5t71 68q-15 -8 -33 -14t-36.5 -11t-36 -7.5t-32.5 -2.5q-45 0 -85 13t-70.5 37t-48.5 58.5t-18 77.5q0 30 13 59.5t38 50.5h-131v116h1045
v-116h-190v-1295l-64 40q-47 50 -103.5 67t-116.5 17q-57 0 -114.5 -7.5t-111.5 -7.5q-75 0 -134.5 21t-101 58.5t-63.5 89t-22 112.5q0 41 10 84t31 89l41 -41q-9 -24 -13 -45t-4 -40q0 -51 27 -83t69 -50t93.5 -24t101.5 -6h44zM587 838q-35 -40 -62.5 -68.5l-54.5 -54
l-57.5 -53l-73.5 -66.5q46 -14 100 -42t107 -69.5t101.5 -96t83.5 -122.5v848h-435q-33 -23 -48 -49.5t-15 -60.5q0 -23 10.5 -43t28.5 -35t43 -23.5t54 -8.5q44 0 75.5 10t49.5 26z" />
    <glyph glyph-name="bn_c_ra" horiz-adv-x="1061" 
d="M349 391q0 -22 3 -35.5t8.5 -21t13.5 -10.5t17 -3q21 0 53.5 16t69 42t73.5 59t67 67t48.5 66.5t18.5 56.5q0 14 -21 34t-54 44.5l-74.5 53.5t-83 61.5t-78.5 68.5t-61 74v-573zM349 1071q45 -54 103 -97t118 -78.5t118 -66.5t103 -61.5t72.5 -62.5t27.5 -70v-816l-64 40
q-47 50 -103.5 67t-116.5 17q-57 0 -114.5 -7.5t-111.5 -7.5q-75 0 -134.5 21t-101 58.5t-63.5 89t-22 112.5q0 41 10 84t31 89l41 -41q-9 -24 -13 -45t-4 -40q0 -51 27 -83t69 -50t93.5 -24t101.5 -6h44q50 0 96 -3t86 -15t71.5 -36.5t53.5 -68.5v465q-45 -46 -97.5 -86
t-105 -69t-100.5 -46t-82 -17q-35 0 -64 11.5t-50 30t-32.5 43.5t-11.5 52v760h-224v116h1081v-116h-732v-43z" />
    <glyph glyph-name="bn_ch_ra" horiz-adv-x="1195" 
d="M1215 1230v-116h-839q21 -35 53.5 -65t70 -52t77.5 -35t76 -13q23 0 50.5 3.5l55.5 7l54.5 7t47.5 3.5q36 0 73.5 -10.5t67.5 -35t49.5 -66t19.5 -103.5q0 -93 -35 -174.5t-97.5 -146t-147 -109.5t-183.5 -66q51 -12 112.5 -33t126.5 -55.5t129 -84t120 -117.5v-70
q-39 36 -78 65.5t-77 53.5v-249l-64 40q-47 50 -103.5 67t-116.5 17q-57 0 -114.5 -7.5t-111.5 -7.5q-75 0 -134.5 21t-101 58.5t-63.5 89t-22 112.5q0 41 10 84t31 89l41 -41q-9 -24 -13 -45t-4 -40q0 -51 27 -83t69 -50t93.5 -24t101.5 -6h44q50 0 96 -3t86 -15
t71.5 -36.5t53.5 -68.5v166q-108 48 -216.5 71t-224.5 37l-112 192q32 -11 64 -15.5t65 -4.5q118 0 220 39t177.5 101.5t118.5 140.5t43 156q0 22 -9.5 36t-23 21t-29 9.5t-27.5 2.5q-29 0 -58.5 -9t-52.5 -15q-6 -83 -39.5 -144t-81 -101t-103 -59t-105.5 -19
q-37 0 -68.5 12t-54 37.5t-35.5 66t-13 96.5v377h-252v116h1215zM376 737q6 -40 19 -57.5t45 -17.5q28 0 60.5 8.5t61.5 29.5t50.5 55.5t26.5 86.5q-21 0 -57 9t-74.5 28.5t-74 50t-57.5 73.5v-266z" />
    <glyph glyph-name="bn_j_ra" horiz-adv-x="1355" 
d="M755 93q50 0 96 -3t86 -15t71.5 -36.5t53.5 -68.5v121q-29 109 -47.5 202t-18.5 183q0 82 18 167.5t59 186.5q-45 -12 -94 -12q-57 0 -114.5 16t-108.5 45t-92.5 70t-66.5 91q-15 -10 -37 -29t-46.5 -43.5t-49 -52.5t-44 -55t-31.5 -51.5t-12 -42.5q0 -43 24 -60.5
t60 -17.5q33 0 72 11.5t75 28t65 35t43 32.5q42 -24 72.5 -56t51 -68.5t30 -77t9.5 -80.5q0 -60 -20.5 -117t-59.5 -101.5t-95 -71.5t-128 -27q-97 0 -171 35.5t-129 94t-92.5 134t-60 156.5t-32.5 161.5t-10 148.5v29l61 -44q1 -117 30.5 -219t84 -177t131.5 -118.5
t172 -43.5q35 0 79 13.5t83 38t65.5 58t26.5 74.5q0 23 -10.5 48t-33.5 51l-48 -24.5t-55.5 -25.5t-58.5 -20t-57 -8q-72 0 -120 15.5t-77 45t-41 71t-12 93.5q0 66 15.5 121t36.5 97t43.5 71t36.5 42h-433v116h1375v-116h-630q5 -33 26.5 -62t53.5 -51t72.5 -34.5
t83.5 -12.5q35 0 70.5 9.5t68.5 29.5l154 -166q-33 -29 -61.5 -75.5t-49 -106.5t-32.5 -131.5t-12 -150.5q0 -86 16 -177t51 -185v-182l-64 40q-23 25 -62 41.5t-82.5 26t-85.5 13t-72 3.5q-19 0 -48.5 -1t-64 -3t-71.5 -3.5t-71 -3.5t-62.5 -3t-46.5 -1q-75 0 -134.5 21
t-101 58.5t-63.5 89t-22 112.5q0 41 10 84t31 89l41 -41q-9 -24 -13 -45t-4 -40q0 -51 27 -83t69 -50t93.5 -24t101.5 -6h264z" />
    <glyph glyph-name="bn_tt_ra" horiz-adv-x="1081" 
d="M480 93q50 0 96 -3t86 -15t71.5 -36.5t53.5 -68.5v429q-33 -36 -71.5 -63.5t-79 -46t-82 -28t-81.5 -9.5q-11 0 -31 2.5t-43 11t-47 24.5t-43.5 42.5t-32 66t-12.5 95.5v620h-264v116h665q30 16 43.5 35.5t13.5 33.5q0 30 -23 46.5t-60.5 25t-85.5 13t-97.5 10t-97.5 16
t-85.5 31.5t-60.5 55.5t-23 89.5q0 25 13.5 55t44.5 57l36 -28q-25 -21 -30.5 -37.5t-5.5 -30.5q0 -27 25.5 -42.5t67 -24.5t94 -13.5t107.5 -10.5t108 -16t94.5 -29.5t66.5 -50.5t25 -80q0 -18 -6 -33.5t-15 -28.5t-20 -23.5l-21 -19.5h328v-116h-713v-572q0 -23 6.5 -43.5
t19.5 -36t31 -25t42 -9.5q35 0 75 13t80 36t77 54t65.5 67t45.5 75t17 78q0 5 -2 13q-34 -35 -66.5 -50.5t-62.5 -15.5q-32 0 -59 12t-46.5 32t-31 47t-11.5 56q0 33 11.5 62t32 51t47.5 35t59 13q58 0 95.5 -26t59.5 -65.5t30 -87.5t8 -92v-916l-64 40q-47 50 -103.5 67
t-116.5 17q-57 0 -114.5 -7.5t-111.5 -7.5q-75 0 -134.5 21t-101 58.5t-63.5 89t-22 112.5q0 41 10 84t31 89l41 -41q-9 -24 -13 -45t-4 -40q0 -51 27 -83t69 -50t93.5 -24t101.5 -6h44z" />
    <glyph glyph-name="bn_tth_ra" horiz-adv-x="1080" 
d="M1100 1230v-116h-461q48 -66 96.5 -121t87 -110t63 -115.5t24.5 -137.5v-811l-64 40q-47 50 -103.5 67t-116.5 17q-57 0 -114.5 -7.5t-111.5 -7.5q-75 0 -134.5 21t-101 58.5t-63.5 89t-22 112.5q0 41 10 84t31 89l41 -41q-9 -24 -13 -45t-4 -40q0 -51 27 -83t69 -50
t93.5 -24t101.5 -6h44q50 0 96 -3t86 -15t71.5 -36.5t53.5 -68.5v335q-45 -41 -107 -64t-142 -23q-74 0 -142 27t-121 74.5t-84.5 112t-31.5 138.5q0 59 16 106q67 21 123 46t96 60t62 83.5t22 116.5q0 69 -24 132h-453v116h449q-34 46 -63.5 93t-51.5 93.5t-34.5 93.5
t-12.5 95q0 64 26 128.5t87 131.5l130 -96q-56 -54 -80 -108.5t-24 -111.5q0 -77 37.5 -157t93.5 -162h543zM603 898q0 -71 -33.5 -124t-82.5 -90t-103.5 -59.5t-97.5 -31.5q0 -56 23 -100.5t58.5 -76t78.5 -48.5t83 -17q75 0 126.5 24.5t84 67.5t47 100.5t14.5 122.5
q0 55 -19 101.5t-50 89t-69 85t-76 90.5q6 -27 9 -45.5t4.5 -32.5t2 -27t0.5 -29z" />
    <glyph glyph-name="bn_dd_ra" horiz-adv-x="1266" 
d="M541 93q50 0 96 -3t86 -15t71.5 -36.5t53.5 -68.5v277q-82 -35 -167 -35q-122 0 -225.5 51.5t-182 156.5t-128 263.5t-62.5 371.5l64 -38q5 -71 22.5 -146.5t48 -147.5t74 -136.5t100 -113t126 -77t152.5 -28.5q61 0 123.5 23t112 62.5t81 93t31.5 114.5q0 18 -2.5 39.5
t-8.5 43.5t-17 44t-29 41q-32 -61 -72.5 -108t-82.5 -79t-83.5 -48.5t-75.5 -16.5q-83 0 -116 54t-33 158v325h-498v116h1286v-116h-664v-342q0 -26 21 -26q15 0 46.5 16t69 47.5t74.5 77t63 105.5q52 -39 89.5 -84.5t62 -95t36 -100.5t11.5 -100q0 -91 -34 -162.5
t-89 -122.5v-508l-64 40q-47 50 -103.5 67t-116.5 17q-57 0 -114.5 -7.5t-111.5 -7.5q-75 0 -134.5 21t-101 58.5t-63.5 89t-22 112.5q0 41 10 84t31 89l41 -41q-9 -24 -13 -45t-4 -40q0 -51 27 -83t69 -50t93.5 -24t101.5 -6h44z" />
    <glyph glyph-name="bn_ddh_ra" horiz-adv-x="1081" 
d="M480 93q50 0 96 -3t86 -15t71.5 -36.5t53.5 -68.5v429q-33 -36 -71.5 -63.5t-79 -46t-82 -28t-81.5 -9.5q-11 0 -31 2.5t-43 11t-47 24.5t-43.5 42.5t-32 66t-12.5 95.5v620h-264v116h1101v-116h-713v-572q0 -23 6.5 -43.5t19.5 -36t31 -25t42 -9.5q35 0 75 13t80 36
t77 54t65.5 67t45.5 75t17 78q0 5 -2 13q-34 -35 -66.5 -50.5t-62.5 -15.5q-32 0 -59 12t-46.5 32t-31 47t-11.5 56q0 33 11.5 62t32 51t47.5 35t59 13q58 0 95.5 -26t59.5 -65.5t30 -87.5t8 -92v-916l-64 40q-47 50 -103.5 67t-116.5 17q-57 0 -114.5 -7.5t-111.5 -7.5
q-75 0 -134.5 21t-101 58.5t-63.5 89t-22 112.5q0 41 10 84t31 89l41 -41q-9 -24 -13 -45t-4 -40q0 -51 27 -83t69 -50t93.5 -24t101.5 -6h44z" />
    <glyph glyph-name="bn_t_ra" horiz-adv-x="1182" 
d="M0 1114v116h1202v-116h-1202zM888 840q0 45 -31 66.5t-85 21.5q-31 0 -78.5 -11t-102.5 -42t-112 -87t-106 -146q41 42 76 57t70 15t61 -12.5t43.5 -32t26.5 -44.5t9 -49q0 -34 -13 -60t-34.5 -43t-50.5 -26t-61 -9q-41 0 -73.5 14.5t-55 38.5t-34.5 55.5t-12 66.5
q0 64 22 123t59 110t86.5 92.5t103.5 70.5t110 45t107 16q43 0 79.5 -7t63 -28.5t41.5 -61.5t15 -106v-917l-64 40q-33 40 -68 63.5t-73.5 36t-80.5 16t-90 3.5q-60 0 -120 -5t-114 -5q-75 0 -134.5 21t-101 58.5t-63.5 89t-22 112.5q0 41 10 84t31 89l41 -41
q-9 -24 -13 -45t-4 -40q0 -51 27 -83t69 -50t93.5 -24t101.5 -6q29 0 58.5 0.5t58.5 0.5q51 0 100.5 -7.5t93.5 -26t80 -50t60 -80.5v739z" />
    <glyph glyph-name="bn_th_ra" horiz-adv-x="1081" 
d="M434 561q40 -18 84.5 -45t90 -63.5t91 -83t87.5 -104.5v1181l124 -111v-105h190v-116h-190v-1295l-64 40q-47 50 -103.5 67t-116.5 17q-57 0 -114.5 -7.5t-111.5 -7.5q-75 0 -134.5 21t-101 58.5t-63.5 89t-22 112.5q0 41 10 84t31 89l41 -41q-9 -24 -13 -45t-4 -40
q0 -51 27 -83t69 -50t93.5 -24t101.5 -6h44q50 0 96 -3t86 -15t71.5 -36.5t53.5 -68.5v185q-44 64 -100.5 118.5t-122.5 98.5t-140.5 76.5t-153.5 51.5l-148 162q54 1 111.5 10t113 25.5t105.5 40.5t87.5 54.5t59.5 67t22 79.5q0 42 -21 75t-53.5 55t-72 33.5t-77.5 11.5
q-58 0 -107 -21.5t-91 -78.5q10 4 23 10t26 11t24.5 9t19.5 4q42 0 66.5 -15t38 -35.5t17.5 -40.5t4 -30q0 -25 -11.5 -46t-29.5 -36.5t-41 -24.5t-46 -9q-33 0 -58.5 14.5t-43 37.5t-27 52.5t-9.5 59.5q0 62 23.5 109.5t61 80t85 49t94.5 16.5q64 0 114.5 -25.5t85 -67.5
t52.5 -95.5t18 -108.5q0 -65 -15.5 -118.5t-47 -98.5t-79 -83.5t-110.5 -71.5z" />
    <glyph glyph-name="bn_d_ra" horiz-adv-x="1082" 
d="M479 93q50 0 96 -3t86 -15t71.5 -36.5t53.5 -68.5v307q-11 62 -17.5 122t-6.5 121q0 62 7 124.5t24 128.5q-50 -15 -112 -52t-124 -90.5t-118.5 -122t-95.5 -146.5l-124 159v593h-219v116h1102v-116h-759v-491q42 58 99.5 111t121 97t128 76.5t120.5 47.5l166 -122
q-62 -124 -86 -238.5t-24 -229.5q0 -47 3 -90t8 -87t13 -90t18 -98v-181l-64 40q-47 50 -103.5 67t-116.5 17q-57 0 -114.5 -7.5t-111.5 -7.5q-75 0 -134.5 21t-101 58.5t-63.5 89t-22 112.5q0 41 10 84t31 89l41 -41q-9 -24 -13 -45t-4 -40q0 -51 27 -83t69 -50t93.5 -24
t101.5 -6h44z" />
    <glyph glyph-name="bn_dh_ra" horiz-adv-x="1079" 
d="M479 101q50 0 96 -3t86 -15t71.5 -36.5t53.5 -68.5v189q-40 65 -91.5 121t-111.5 100.5t-127.5 76t-138.5 46.5l-154 188l83 73.5l78 64.5q-32 12 -58.5 34t-46.5 50.5t-31 63t-11 71.5q0 34 12 65.5t33 55.5t50 38.5t62 14.5q28 0 52.5 -10.5t42.5 -28.5t28.5 -41.5
t10.5 -49.5q0 -27 -12 -51t-30.5 -41t-42 -27t-47.5 -10q-21 0 -43.5 9t-42.5 35q7 -26 22 -48t34.5 -38.5t42.5 -27t47 -12.5q94 64 187.5 103t202.5 62v176h313v-116h-189v-1287l-64 40q-47 50 -103.5 67t-116.5 17q-57 0 -114.5 -7.5t-111.5 -7.5q-75 0 -134.5 21
t-101 58.5t-63.5 89t-22 112.5q0 41 10 84t31 89l41 -41q-9 -24 -13 -45t-4 -40q0 -51 27 -83t69 -50t93.5 -24t101.5 -6h44zM786 903q-69 -8 -134 -34.5t-121 -62.5t-100.5 -76t-72.5 -74q42 -18 99.5 -52t117.5 -83.5t116 -113t95 -141.5v637z" />
    <glyph glyph-name="bn_n_ra" horiz-adv-x="1082" 
d="M788 463q-35 79 -85 147t-107 118t-116.5 79t-113.5 29q32 -20 52 -56t20 -84q0 -26 -12 -53t-33.5 -49t-51.5 -35.5t-65 -13.5q-31 0 -63.5 10.5t-59.5 34t-44.5 59.5t-17.5 87q0 55 22.5 98t58.5 72t82 44t93 15q58 0 109.5 -16t95.5 -43t81.5 -62t67 -73.5t51.5 -78
t36 -74.5v496h-788v116h1102v-116h-190v-1295l-64 40q-47 50 -103.5 67t-116.5 17q-57 0 -114.5 -7.5t-111.5 -7.5q-75 0 -134.5 21t-101 58.5t-63.5 89t-22 112.5q0 41 10 84t31 89l41 -41q-9 -24 -13 -45t-4 -40q0 -51 27 -83t69 -50t93.5 -24t101.5 -6h44q50 0 96 -3
t86 -15t71.5 -36.5t53.5 -68.5v493z" />
    <glyph glyph-name="bn_p_ra" horiz-adv-x="1256" 
d="M655 93q50 0 96 -3t86 -15t71.5 -36.5t53.5 -68.5v718l-14 23l-75 116t-75 104l-333 -344l-125 60l34 35l34 36q26 49 26 93q0 52 -33 82.5t-82 30.5q-23 0 -49 -7.5t-52 -24.5q1 0 -20 8.5l-46.5 19l-46.5 19.5t-21 10q33 59 76.5 110t93.5 89t107 60t117 22
q90 0 156 -30t121 -85t104 -132t103 -171v634l124 -111v-105h190v-116h-190v-1295l-64 40q-47 50 -103.5 67t-116.5 17q-57 0 -114.5 -7.5t-111.5 -7.5q-75 0 -134.5 21t-101 58.5t-63.5 89t-22 112.5q0 41 10 84t31 89l41 -41q-9 -24 -13 -45t-4 -40q0 -51 27 -83t69 -50
t93.5 -24t101.5 -6h44zM518 1114q-43 0 -80 -14.5t-66.5 -34.5t-49 -41t-27.5 -34q25 6 49 6q34 0 62 -11.5t48.5 -31t32 -45.5t11.5 -56q0 -16 -5 -38l215 215q-45 40 -91.5 62.5t-98.5 22.5z" />
    <glyph glyph-name="bn_ph_ra" horiz-adv-x="1480" 
d="M436 93q50 0 96 -3t86 -15t71.5 -36.5t53.5 -68.5v171q-55 74 -116 123t-124 81t-125 50.5t-119 32.5l-144 171q31 37 71 78t88.5 80.5t105.5 76t123 65.5q-63 58 -135 98.5t-141.5 66.5t-129.5 38t-97 12l-59 116h1559v-116h-1124q36 -21 76.5 -59t78.5 -83t69.5 -93
t49.5 -88q-50 -19 -99 -46t-94 -58t-85 -64.5t-70 -65.5q61 -21 114.5 -44t106 -55.5t106 -78.5t114.5 -113v683h124q88 0 168.5 -31t141.5 -86.5t97 -132.5t36 -169q0 -54 -14.5 -96.5t-39.5 -72t-58.5 -45.5t-71.5 -16q-29 0 -54 10.5t-43.5 29t-29.5 42.5t-11 51
q0 57 38 92t98 35q13 0 30 -4t33.5 -14.5t29.5 -28.5t18 -47q9 9 14 27.5t5 33.5q0 72 -37.5 123.5t-95 84.5t-125.5 48.5t-129 15.5v-980l-64 40q-47 50 -103.5 67t-116.5 17q-29 0 -53.5 -2.5l-48.5 -5l-47.5 -5t-50.5 -2.5q-75 0 -134.5 21t-101 58.5t-63.5 89t-22 112.5
q0 41 10 84t31 89l41 -41q-9 -24 -13 -45t-4 -40q0 -51 27 -83t69 -50t93.5 -24t101.5 -6h18z" />
    <glyph glyph-name="bn_b_ra" horiz-adv-x="1081" 
d="M480 93q50 0 96 -3t86 -15t71.5 -36.5t53.5 -68.5v197q-40 65 -91.5 121t-111.5 100.5t-127.5 76t-138.5 46.5l-154 188q76 79 148.5 138.5t147 102.5t154.5 71t173 43v60h-787v116h1101v-116h-190v-1295l-64 40q-47 50 -103.5 67t-116.5 17q-57 0 -114.5 -7.5
t-111.5 -7.5q-75 0 -134.5 21t-101 58.5t-63.5 89t-22 112.5q0 41 10 84t31 89l41 -41q-9 -24 -13 -45t-4 -40q0 -51 27 -83t69 -50t93.5 -24t101.5 -6h44zM787 889q-43 -2 -88 -16.5t-88 -36.5t-83 -48.5t-73 -53t-57 -51t-36 -40.5q44 -17 101.5 -49t116.5 -79t113.5 -109
t93.5 -140v623z" />
    <glyph glyph-name="bn_bh_ra" horiz-adv-x="1082" 
d="M788 736q-57 -46 -107 -72t-94.5 -39.5t-83.5 -17t-72 -3.5q-48 0 -90 15t-73.5 42t-50 65t-18.5 84q0 35 12 65t33.5 51.5t50 34t61.5 12.5q31 0 58.5 -11t48.5 -30.5t33 -46t12 -57.5q0 -58 -30.5 -96t-79.5 -57q62 8 114 29t94 49t74 60t55 62.5t36 56t17 41.5h124
v-973l-64 40q-47 50 -103.5 67t-116.5 17q-57 0 -114.5 -7.5t-111.5 -7.5q-75 0 -134.5 21t-101 58.5t-63.5 89t-22 112.5q0 41 10 84t31 89l41 -41q-9 -24 -13 -45t-4 -40q0 -51 27 -83t69 -50t93.5 -24t101.5 -6h44q50 0 96 -3t86 -15t71.5 -36.5t53.5 -68.5v585zM0 1114
v116h1102v-116h-1102z" />
    <glyph glyph-name="bn_m_ra" horiz-adv-x="1062" 
d="M-55 1230h1137v-116h-190q15 -18 29 -41t25 -50t18 -58t7 -64q0 -51 -22 -93t-57 -71v-737l-64 40q-47 50 -103.5 67t-116.5 17q-57 0 -114.5 -7.5t-111.5 -7.5q-75 0 -134.5 21t-101 58.5t-63.5 89t-22 112.5q0 41 10 84t31 89l41 -41q-9 -24 -13 -45t-4 -40
q0 -51 27 -83t69 -50t93.5 -24t101.5 -6h44q50 0 96 -3t86 -15t71.5 -36.5t53.5 -68.5v533q-8 -1 -15 -1.5t-15 -0.5q-56 0 -102 25.5t-86.5 58.5l-77.5 64.5t-74 43.5q8 -15 13 -39t5 -43q0 -26 -11.5 -47t-30.5 -36t-44.5 -23t-52.5 -8t-52.5 10t-44.5 28.5t-30.5 44
t-11.5 56.5q0 37 13.5 64t36 45t50.5 27.5t58 12.5q-54 67 -131.5 101t-164.5 47zM359 970q54 -18 97 -42l83.5 -45.5t83 -36t95.5 -14.5q25 0 49.5 6.5t43.5 21t31 38.5t12 59q0 46 -14 86t-37 71h-485q7 -16 13.5 -36.5t11.5 -40.5t9 -38t7 -29z" />
    <glyph glyph-name="bn_sh_ra" horiz-adv-x="1182" 
d="M581 93q50 0 96 -3t86 -15t71.5 -36.5t53.5 -68.5v837q-17 44 -44.5 94t-62.5 92.5t-75 70.5t-80 28q-16 0 -32 -7t-29.5 -19.5t-23.5 -28.5t-14 -34q23 -18 49.5 -42.5t48.5 -53.5t36.5 -61.5t14.5 -67.5q0 -66 -37 -101.5t-92 -35.5q-45 0 -82 30t-69 84
q-10 -24 -27.5 -45t-39 -36.5t-47 -24t-51.5 -8.5q-29 0 -51.5 11t-38.5 29.5t-24.5 42.5t-8.5 50q0 34 15 67.5t39.5 63.5t56 55t64.5 43q-15 42 -36 64.5t-44 33t-46.5 12t-43.5 1.5h-113v116h111q41 0 83.5 -15t79 -42.5t65 -66t40.5 -84.5q23 95 81 151.5t148 56.5
q28 0 58 -15.5t58.5 -40.5t55 -56t48.5 -62.5t37.5 -60t22.5 -48.5v499l124 -111v-105h190v-116h-190v-1295l-64 40q-47 50 -103.5 67t-116.5 17q-57 0 -114.5 -7.5t-111.5 -7.5q-75 0 -134.5 21t-101 58.5t-63.5 89t-22 112.5q0 41 10 84t31 89l41 -41q-9 -24 -13 -45
t-4 -40q0 -51 27 -83t69 -50t93.5 -24t101.5 -6h44z" />
    <glyph glyph-name="bn_ss_ra" horiz-adv-x="1037" 
d="M436 93q50 0 96 -3t86 -15t71.5 -36.5t53.5 -68.5v167q-57 75 -118.5 125t-123.5 82t-123.5 51t-118.5 33l-144 171q28 34 66.5 72.5t85 77t100 74.5t111.5 66q-44 38 -98.5 74.5t-116 67t-128.5 52.5t-135 31l-59 116h1116v-116h-190v-1295l-64 40q-47 50 -103.5 67
t-116.5 17q-29 0 -53.5 -2.5l-48.5 -5l-48 -5t-51 -2.5q-75 0 -134.5 21t-101 58.5t-63.5 89t-22 112.5q0 41 10 84t31 89l41 -41q-9 -24 -13 -45t-4 -40q0 -51 27 -83t69 -50t93.5 -24t101.5 -6h19zM302 557q61 -21 117.5 -47.5t110.5 -61t107 -79t106 -103.5v339
l-76.5 88.5l-67.5 75.5q-43 -20 -85 -45t-80.5 -53t-72 -57t-59.5 -57zM743 1114h-367q32 -19 66.5 -49t69 -66t67.5 -76t63 -80.5t55.5 -79.5l45.5 -72v423z" />
    <glyph glyph-name="bn_s_ra" horiz-adv-x="1171" 
d="M826 750q-46 0 -94.5 23.5t-90 66.5t-70.5 101.5t-36 129.5q-5 -87 -31.5 -148t-64 -99.5t-81.5 -56t-84 -17.5q-33 0 -64.5 12t-58 29t-46.5 35.5t-30 31.5l88 89q19 -20 48 -33.5t57 -13.5q47 0 82.5 17.5t59.5 47t36 68t12 81.5h-458v116h1125v-116h-141
q42 -34 61 -73.5t19 -80.5q0 -40 -16.5 -76.5t-46.5 -65.5v-818l-64 40q-47 50 -103.5 67t-116.5 17q-57 0 -114.5 -7.5t-111.5 -7.5q-75 0 -134.5 21t-101 58.5t-63.5 89t-22 112.5q0 41 10 84t31 89l41 -41q-9 -24 -13 -45t-4 -40q0 -51 27 -83t69 -50t93.5 -24t101.5 -6
h44q50 0 96 -3t86 -15t71.5 -36.5t53.5 -68.5v603q-23 -4 -51 -4zM958 1017q0 23 -12 49.5t-50 47.5h-287q0 -52 17.5 -92t46 -67t64 -41t73.5 -14q31 0 58 8.5t47 24.5t31.5 37t11.5 47z" />
    <glyph glyph-name="bn_h_ra" horiz-adv-x="1063" 
d="M462 93q50 0 96 -3t86 -15t71.5 -36.5t53.5 -68.5v196q-141 108 -285.5 160.5t-289.5 69.5l-85 236q17 -2 43.5 -11.5l60 -21t72 -20.5t79.5 -9q40 0 90 14t94 40t74 63.5t30 85.5t-15.5 82t-42 57.5t-62 36.5t-75.5 18q17 -22 23.5 -48t6.5 -46q0 -35 -13.5 -62.5
t-36 -47t-51 -30t-59.5 -10.5q-29 0 -57 11t-50 31t-35 49t-13 64q0 34 12.5 61t33.5 47.5t49 34.5t60 22q-5 15 -20.5 35t-43.5 36h-263v116h1083v-116h-714q9 -7 24.5 -21.5t29.5 -37.5q73 0 141 -22t121 -63t85 -99.5t32 -132.5q0 -68 -31 -121t-79.5 -90.5t-107.5 -58.5
t-114 -24l93.5 -44t99.5 -55t109.5 -82.5t123.5 -126.5l52 -135l-27.5 29l-27.5 28v-239l-64 40q-47 50 -103.5 67t-116.5 17q-57 0 -114.5 -7.5t-111.5 -7.5q-75 0 -134.5 21t-101 58.5t-63.5 89t-22 112.5q0 41 10 84t31 89l41 -41q-9 -24 -13 -45t-4 -40q0 -51 27 -83
t69 -50t93.5 -24t101.5 -6h44z" />
    <glyph glyph-name="asa_b_ra" horiz-adv-x="1065" 
d="M464 93q50 0 96 -3t86 -15t71.5 -36.5t53.5 -68.5v197q-40 65 -91.5 121t-111.5 100.5t-127.5 76t-138.5 46.5l-154 188q76 79 148.5 138.5t147 102.5t154.5 71t173 43v60h-771v116h1085v-116h-190v-1295l-64 40q-47 50 -103.5 67t-116.5 17q-57 0 -114.5 -7.5
t-111.5 -7.5q-75 0 -134.5 21t-101 58.5t-63.5 89t-22 112.5q0 41 10 84t31 89l41 -41q-9 -24 -13 -45t-4 -40q0 -51 27 -83t69 -50t93.5 -24t101.5 -6h44zM771 889q-43 -2 -88 -16.5t-88 -36.5t-83 -48.5t-73 -53t-57 -51t-36 -40.5q44 -17 101.5 -49t116.5 -79t113.5 -109
t93.5 -140v623zM643 118q-37 35 -68.5 58.5t-72.5 41.5t-98 33t-145 34l44 132q41 -12 88 -30t95 -47t95 -70.5t89 -99.5z" />
    <glyph glyph-name="bn_k_ss_ra" horiz-adv-x="1682" 
d="M638 93q50 0 96 -3t86 -15t71.5 -36.5t53.5 -68.5v197q-46 79 -104.5 149.5t-130.5 120.5q-17 -46 -52 -76.5t-90 -30.5q-32 0 -59 12t-47.5 32t-32 46.5t-11.5 55.5q0 28 10 54t30 46.5t48.5 33t66.5 12.5q32 0 62 -12.5t59 -31.5q-10 52 -37.5 101t-67.5 87.5t-90 63.5
t-104 31q4 -15 4 -32q0 -27 -11.5 -49.5t-30.5 -38t-44.5 -24.5t-52.5 -9t-52.5 10t-44.5 28.5t-30.5 44t-11.5 56.5q0 37 13.5 64t36 45t50.5 27.5t58 12.5q-27 33 -59.5 56t-68.5 36.5t-74.5 19.5t-76.5 6l-55 116h1757v-116h-633v-197l68.5 27.5t68.5 12.5
q58 0 105.5 -25.5t82 -65t53.5 -87t19 -92.5q0 -33 -10.5 -73t-31.5 -75.5t-54 -59t-78 -23.5q-28 0 -52.5 9t-43 26.5t-29.5 42t-11 55.5q0 21 9 42t25 38.5t38.5 28t49.5 10.5q18 0 38 -4.5t37.5 -16.5t31 -32t19.5 -51q6 14 9 29t3 28q0 45 -12 76t-34.5 50.5t-54 28
t-71.5 8.5q-38 0 -82.5 -14.5t-92.5 -28.5v-962l-64 40q-47 50 -103.5 67t-116.5 17q-57 0 -114.5 -7.5t-111.5 -7.5q-75 0 -134.5 21t-101 58.5t-63.5 89t-22 112.5q0 41 10 84t31 89l41 -41q-9 -24 -13 -45t-4 -40q0 -51 27 -83t69 -50t93.5 -24t101.5 -6h44zM291 1114
l29.5 -61.5t21.5 -52.5q86 -12 160 -50t128 -94t84.5 -125t30.5 -141v-19t-2 -19l55.5 -51.5t47.5 -51.5t46.5 -65.5t52.5 -93.5v474q-65 2 -117.5 26t-89.5 63t-57 90t-20 108q0 15 1.5 30.5t6.5 32.5h-378zM764 982q0 -29 8.5 -50.5t22 -35t31 -20t36.5 -6.5q23 0 43.5 2
t39.5 5v237h-149q-17 -41 -24.5 -73.5t-7.5 -58.5z" />
    <glyph glyph-name="bn_ny_ra" horiz-adv-x="1595" 
d="M1007 744q18 -51 45.5 -96t62 -78t75.5 -52.5t87 -19.5q24 0 47 6t41 19t29 34.5t11 52.5q0 16 -6.5 41t-29.5 49q-26 -34 -53 -43.5t-53 -9.5q-11 0 -27 4.5t-30.5 15.5t-25 29.5t-10.5 47.5t10.5 47.5t25 29.5t30.5 15.5t27 4.5q26 0 53 -9.5t53 -43.5q23 24 29.5 49
t6.5 41q0 31 -11 52.5t-29 34.5t-41 19t-47 6q-46 0 -87 -19.5t-75.5 -52.5t-62 -78t-45.5 -96zM1012 951q29 55 61.5 93t67 62t70.5 34.5t71 10.5q39 0 77 -15t68.5 -43t49.5 -67.5t19 -88.5q0 -37 -8.5 -68t-22 -55t-29.5 -41.5t-31 -28.5q15 -11 31 -28.5t29.5 -41.5
t22 -55t8.5 -68q0 -49 -19 -88.5t-49.5 -67.5t-68.5 -43t-77 -15q-35 0 -71 10.5t-70.5 34.5t-67 62t-61.5 93v-537l-64 40q-33 40 -68 63.5t-73.5 36t-80.5 16t-90 3.5q-60 0 -120 -5t-114 -5q-75 0 -134.5 21t-101 58.5t-63.5 89t-22 112.5q0 41 10 84t31 89l41 -41
q-9 -24 -13 -45t-4 -40q0 -51 27 -83t69 -50t93.5 -24t101.5 -6q29 0 58.5 0.5t58.5 0.5q51 0 100.5 -7.5t93.5 -26t80 -50t60 -80.5v849q0 45 -31 66.5t-85 21.5q-31 0 -78.5 -11t-102.5 -42t-112 -87t-106 -146q41 42 76 57t70 15t61 -12.5t43.5 -32t26.5 -44.5t9 -49
q0 -34 -13 -60t-34.5 -43t-50.5 -26t-61 -9q-41 0 -73.5 14.5t-55 38.5t-34.5 55.5t-12 66.5q0 64 22 123t59 110t86.5 92.5t103.5 70.5t110 45t107 16q43 0 79.5 -7t63 -28.5t41.5 -61.5t15 -106v-76zM581 -94q50 0 96 -3t86 -15t71.5 -36.5t53.5 -68.5v415l124 147v-713
l-64 40q-47 50 -103.5 67t-116.5 17q-57 0 -114.5 -7.5t-111.5 -7.5q-75 0 -134.5 21t-101 58.5t-63.5 89t-22 112.5q0 41 10 84t31 89l41 -41q-9 -24 -13 -45t-4 -40q0 -51 27 -83t69 -50t93.5 -24t101.5 -6h44z" />
    <glyph glyph-name="bn_ng_ra" horiz-adv-x="1229" 
d="M614 614q41 0 77.5 14t65.5 35t49 44.5t29 43.5q75 -46 122.5 -80t74.5 -67t36.5 -69.5t9.5 -86.5q0 -54 -19 -99.5t-50.5 -82.5t-73 -65t-86 -47t-89.5 -28.5t-84 -9.5q-108 0 -190.5 32t-143.5 87.5t-104 130t-71 160.5t-44.5 178.5t-25.5 183.5l61 -47q10 -66 27 -134
t43.5 -132t64 -120.5t89.5 -98.5t120.5 -66.5t156.5 -24.5q57 0 116.5 18.5t108.5 51.5t80.5 77.5t31.5 97.5q0 19 -6 33.5t-15.5 24.5t-20.5 16.5t-20 8.5q-30 -52 -72 -81t-83 -43.5t-74.5 -17.5t-46.5 -3q-44 0 -85 20.5t-72.5 60.5t-51 97.5t-19.5 132.5q0 23 1.5 47
t3.5 47q-53 25 -99.5 58.5t-86 69.5t-71 71l-54.5 62l103 116q56 -85 115.5 -144.5t121.5 -96.5q16 50 40 94t56 76.5t72 51.5t88 19q45 0 84 -12t68 -37.5t45.5 -64.5t16.5 -92q0 -54 -24.5 -94.5t-66.5 -67.5t-97.5 -40.5t-117.5 -13.5q-23 0 -49.5 4.5t-48.5 9.5
q-9 -23 -10.5 -35.5t-1.5 -28.5q0 -29 7.5 -55t21 -45.5t30.5 -31.5t37 -12zM701 919q34 0 64.5 6.5t53 19.5t35.5 33t13 48q0 17 -8 29t-19.5 20t-24.5 11.5t-23 3.5q-73 0 -125.5 -43.5t-85.5 -110.5q30 -9 60.5 -13t59.5 -4zM628 -13q50 0 96 -3t86 -15t71.5 -36.5
t53.5 -68.5v415l124 147v-713l-64 40q-47 50 -103.5 67t-116.5 17q-57 0 -114.5 -7.5t-111.5 -7.5q-75 0 -134.5 21t-101 58.5t-63.5 89t-22 112.5q0 41 10 84t31 89l41 -41q-9 -24 -13 -45t-4 -40q0 -51 27 -83t69 -50t93.5 -24t101.5 -6h44z" />
    <glyph glyph-name="bn_jh_ra" horiz-adv-x="1361" 
d="M703 883q-58 -13 -120 -40.5t-119 -62t-104.5 -73t-76.5 -74.5q61 -21 125 -57.5t121 -84t103 -105t71 -120.5v617zM827 622q30 -22 57 -45.5t55.5 -55t59 -74t68.5 -101.5v1100l124 -111v-105h190v-116h-190v-1014l-60 40q-20 51 -54 98t-75.5 90t-87 81.5t-87.5 70.5
v-480l-60 40q-34 88 -88.5 165.5t-124 139t-151 104.5t-169.5 62l-154 188q87 79 162.5 137t148.5 100t148.5 70t163.5 48v60h-703v116h827v-608zM396 97q50 0 96 -3t86 -15t71.5 -36.5t53.5 -68.5v415l124 147v-713l-64 40q-47 50 -103.5 67t-116.5 17q-57 0 -114.5 -7.5
t-111.5 -7.5q-75 0 -134.5 21t-101 58.5t-63.5 89t-22 112.5q0 41 10 84t31 89l41 -41q-9 -24 -13 -45t-4 -40q0 -51 27 -83t69 -50t93.5 -24t101.5 -6h44z" />
    <glyph glyph-name="bn_k_ba" horiz-adv-x="1359" 
d="M777 909v-1075l-60 40q-45 51 -98 90t-108 66.5t-108.5 44t-101.5 23.5l-24 80q25 25 59.5 52.5t75 54t85.5 51t92 42.5q-67 73 -155 117t-200 68l-154 188q63 72 138.5 128t152 95t150 60.5t132.5 24.5v55h-653v116h1379v-116h-602v-55q74 0 148 -30t133 -85.5
t95.5 -134.5t36.5 -177q0 -54 -14.5 -96.5t-39.5 -72t-58.5 -45.5t-71.5 -16q-29 0 -54 10.5t-43.5 29t-29.5 42.5t-11 51q0 57 38 92t98 35q13 0 30 -4t33.5 -14.5t29.5 -28.5t18 -47q9 9 14 27.5t5 33.5q0 77 -34.5 130.5t-87.5 86.5t-116 48t-119 15zM653 909
q-54 -5 -101.5 -18t-93.5 -36t-93 -58.5t-100 -85.5q61 -21 118.5 -50t107.5 -66.5t91.5 -84t70.5 -104.5v503zM459 144q25 -11 52.5 -28t53.5 -37t48.5 -42.5t39.5 -44.5v257q-54 -11 -102 -34t-92 -71z" />
    <glyph glyph-name="bn_g_ba" horiz-adv-x="1054" 
d="M824 20q-45 51 -98 90t-108 66.5t-108.5 44t-101.5 23.5l-24 80q30 30 72 62.5t91 62.5t103 55.5t110 40.5v291q-46 65 -89 111.5t-86.5 76t-90 43t-99.5 13.5q-28 0 -58 -7.5t-55 -23t-41.5 -38.5t-16.5 -54v-8t1 -9q6 2 20.5 6t33 7.5t37.5 6t34 2.5q93 0 143 -45.5
t50 -119.5q0 -44 -12.5 -79.5t-33 -65.5t-47 -54.5t-54.5 -46.5l-113 99q58 46 91.5 78.5t50.5 56t22 39.5t5 29q0 23 -23 35t-58 12q-24 0 -52.5 -5t-58 -17t-57 -31.5t-50.5 -48.5q-41 36 -57 79t-16 76q0 58 22 109t61 88t93.5 58.5t120.5 21.5q49 0 101.5 -23.5
t102.5 -62.5t96 -90t83 -107v499l124 -111v-105h190v-116h-190v-1134zM566 290q24 -9 51.5 -25t53.5 -37t49 -44.5t40 -45.5v257q-54 -11 -102 -34t-92 -71z" />
    <glyph glyph-name="bn_gh_ba" horiz-adv-x="1025" 
d="M731 1114h-435q-33 -23 -48 -49.5t-15 -60.5q0 -23 10.5 -43t28.5 -35t43 -23.5t54 -8.5q44 0 75.5 10t49.5 26l93 -92q-35 -40 -62.5 -68.5l-54.5 -54l-57.5 -53l-73.5 -66.5l53 -31.5t75.5 -49.5t86.5 -67t86 -83q23 10 45.5 18t45.5 14v717zM731 247q-54 -11 -102 -34
t-92 -71q24 -9 51.5 -25t53.5 -37t49 -44.5t40 -45.5v257zM855 -168l-60 40q-45 51 -98 90t-108 66.5t-108.5 44t-101.5 23.5l-24 80q38 36 91.5 76.5t117.5 75.5q-64 42 -136.5 70.5t-153.5 45.5l-145 149l77.5 56.5t82.5 66l80 69.5t71 68q-15 -8 -33 -14t-36.5 -11
t-36 -7.5t-32.5 -2.5q-45 0 -85 13t-70.5 37t-48.5 58.5t-18 77.5q0 30 13 59.5t38 50.5h-131v116h1045v-116h-190v-1282z" />
    <glyph glyph-name="bn_c_ba" horiz-adv-x="904" 
d="M305 539q0 -22 3 -35.5t8.5 -21t13.5 -10.5t17 -3q13 0 42.5 12.5t66 33t76 46.5t71.5 53.5t53 54.5t21 48t-20.5 41t-54 39.5t-74.5 39l-82.5 40t-78.5 41.5t-62 44v-423zM924 1114h-619v-43q38 -33 92 -61t112.5 -55l116 -54.5t103 -57.5t74 -65t28.5 -78
q0 -33 -27.5 -74.5t-71 -84.5t-98.5 -84.5t-109.5 -73.5t-104 -51.5t-82.5 -19.5q-35 0 -64 11.5t-50 30t-32.5 43.5t-11.5 52v665h-180v116h924v-116zM600 -125l-58 34q-35 39 -76 77t-92 73.5t-112.5 67t-137.5 57.5l-4 11.5t-8 25t-8 25t-4 12.5q39 38 96 83.5t124 84.5
t139 65.5t141 26.5v-643zM282 224q39 -22 68.5 -44t53 -44t41 -43t31.5 -40v296q-54 -11 -102 -44t-92 -81z" />
    <glyph glyph-name="bn_ch_ba" horiz-adv-x="1141" 
d="M1161 1230v-116h-857q21 -35 53.5 -65t70 -52t77.5 -35t76 -13q23 0 50.5 3.5l55.5 7l54.5 7t47.5 3.5q36 0 73.5 -10.5t67.5 -35t49.5 -66t19.5 -103.5q0 -93 -35 -174.5t-97.5 -146t-147 -109.5t-183.5 -66q51 -12 112.5 -33t126.5 -55.5t129 -84t120 -117.5v-70
q-68 62 -134.5 106t-133.5 76v-412l-60 40q-45 51 -98 90t-108 66.5t-108.5 44t-101.5 23.5q-8 20 -12 39.5t-12 40.5q38 38 94.5 79.5t122.5 76.5q-42 8 -84 14t-85 11l-112 192q32 -11 64 -15.5t65 -4.5q118 0 220 39t177.5 101.5t118.5 140.5t43 156q0 22 -9.5 36t-23 21
t-29 9.5t-27.5 2.5q-29 0 -58.5 -9t-52.5 -15q-6 -83 -39.5 -144t-81 -101t-103 -59t-105.5 -19q-37 0 -68.5 12t-54 37.5t-35.5 66t-13 96.5v377h-180v116h1161zM304 737q6 -40 19 -57.5t45 -17.5q28 0 60.5 8.5t61.5 29.5t50.5 55.5t26.5 86.5q-21 0 -57 9t-74.5 28.5
t-74 50t-57.5 73.5v-266zM438 -21q20 -8 46 -24t52.5 -36.5t52 -44t43.5 -47.5v257q-54 -11 -102 -34t-92 -71z" />
    </font>
</defs>
</svg>
